<?xml version="1.0" encoding="UTF-8"?>
<!DOCTYPE svg PUBLIC "-//W3C//DTD SVG 1.1//EN" "http://www.w3.org/Graphics/SVG/1.1/DTD/svg11.dtd">
<svg width="188mm" height="106mm" viewBox="0 0 18800 10600" version="1.1" xmlns="http://www.w3.org/2000/svg" xmlns:xlink="http://www.w3.org/1999/xlink" stroke-width="28.222" stroke-linejoin="round" xml:space="preserve">
 <path fill="rgb(255,255,255)" stroke="none" d="M 9384,10556 L 0,10556 0,0 18768,0 18768,10556 9384,10556 Z"/>
 <path fill="none" stroke="rgb(179,179,179)" stroke-linejoin="round" d="M 9167,8721 L 2008,8721 2008,1565 16326,1565 16326,8721 9167,8721 Z"/>
 <path fill="none" stroke="rgb(179,179,179)" stroke-linejoin="round" d="M 16326,8720 L 2008,8720"/>
 <path fill="none" stroke="rgb(179,179,179)" stroke-linejoin="round" d="M 16326,7825 L 2008,7825"/>
 <path fill="none" stroke="rgb(179,179,179)" stroke-linejoin="round" d="M 16326,6930 L 2008,6930"/>
 <path fill="none" stroke="rgb(179,179,179)" stroke-linejoin="round" d="M 16326,6036 L 2008,6036"/>
 <path fill="none" stroke="rgb(179,179,179)" stroke-linejoin="round" d="M 16326,5142 L 2008,5142"/>
 <path fill="none" stroke="rgb(179,179,179)" stroke-linejoin="round" d="M 16326,4247 L 2008,4247"/>
 <path fill="none" stroke="rgb(179,179,179)" stroke-linejoin="round" d="M 16326,3353 L 2008,3353"/>
 <path fill="none" stroke="rgb(179,179,179)" stroke-linejoin="round" d="M 16326,2458 L 2008,2458"/>
 <path fill="none" stroke="rgb(179,179,179)" stroke-linejoin="round" d="M 16326,1564 L 2008,1564"/>
 <path fill="none" stroke="rgb(179,179,179)" stroke-linejoin="round" d="M 2008,8870 L 2008,8720"/>
 <path fill="none" stroke="rgb(179,179,179)" stroke-linejoin="round" d="M 2008,8870 L 2008,8720"/>
 <path fill="none" stroke="rgb(179,179,179)" stroke-linejoin="round" d="M 4394,8870 L 4394,8720"/>
 <path fill="none" stroke="rgb(179,179,179)" stroke-linejoin="round" d="M 4394,8870 L 4394,8720"/>
 <path fill="none" stroke="rgb(179,179,179)" stroke-linejoin="round" d="M 6781,8870 L 6781,8720"/>
 <path fill="none" stroke="rgb(179,179,179)" stroke-linejoin="round" d="M 6781,8870 L 6781,8720"/>
 <path fill="none" stroke="rgb(179,179,179)" stroke-linejoin="round" d="M 9167,8870 L 9167,8720"/>
 <path fill="none" stroke="rgb(179,179,179)" stroke-linejoin="round" d="M 9167,8870 L 9167,8720"/>
 <path fill="none" stroke="rgb(179,179,179)" stroke-linejoin="round" d="M 11553,8870 L 11553,8720"/>
 <path fill="none" stroke="rgb(179,179,179)" stroke-linejoin="round" d="M 11553,8870 L 11553,8720"/>
 <path fill="none" stroke="rgb(179,179,179)" stroke-linejoin="round" d="M 13939,8870 L 13939,8720"/>
 <path fill="none" stroke="rgb(179,179,179)" stroke-linejoin="round" d="M 13939,8870 L 13939,8720"/>
 <path fill="none" stroke="rgb(179,179,179)" stroke-linejoin="round" d="M 16326,8870 L 16326,8720"/>
 <path fill="none" stroke="rgb(179,179,179)" stroke-linejoin="round" d="M 16326,8870 L 16326,8720"/>
 <path fill="none" stroke="rgb(179,179,179)" stroke-linejoin="round" d="M 2008,8720 L 16326,8720"/>
 <path fill="none" stroke="rgb(179,179,179)" stroke-linejoin="round" d="M 1858,8720 L 2008,8720"/>
 <path fill="none" stroke="rgb(179,179,179)" stroke-linejoin="round" d="M 1858,8720 L 2008,8720"/>
 <path fill="none" stroke="rgb(179,179,179)" stroke-linejoin="round" d="M 1858,7825 L 2008,7825"/>
 <path fill="none" stroke="rgb(179,179,179)" stroke-linejoin="round" d="M 1858,7825 L 2008,7825"/>
 <path fill="none" stroke="rgb(179,179,179)" stroke-linejoin="round" d="M 1858,6930 L 2008,6930"/>
 <path fill="none" stroke="rgb(179,179,179)" stroke-linejoin="round" d="M 1858,6930 L 2008,6930"/>
 <path fill="none" stroke="rgb(179,179,179)" stroke-linejoin="round" d="M 1858,6036 L 2008,6036"/>
 <path fill="none" stroke="rgb(179,179,179)" stroke-linejoin="round" d="M 1858,6036 L 2008,6036"/>
 <path fill="none" stroke="rgb(179,179,179)" stroke-linejoin="round" d="M 1858,5142 L 2008,5142"/>
 <path fill="none" stroke="rgb(179,179,179)" stroke-linejoin="round" d="M 1858,5142 L 2008,5142"/>
 <path fill="none" stroke="rgb(179,179,179)" stroke-linejoin="round" d="M 1858,4247 L 2008,4247"/>
 <path fill="none" stroke="rgb(179,179,179)" stroke-linejoin="round" d="M 1858,4247 L 2008,4247"/>
 <path fill="none" stroke="rgb(179,179,179)" stroke-linejoin="round" d="M 1858,3353 L 2008,3353"/>
 <path fill="none" stroke="rgb(179,179,179)" stroke-linejoin="round" d="M 1858,3353 L 2008,3353"/>
 <path fill="none" stroke="rgb(179,179,179)" stroke-linejoin="round" d="M 1858,2458 L 2008,2458"/>
 <path fill="none" stroke="rgb(179,179,179)" stroke-linejoin="round" d="M 1858,2458 L 2008,2458"/>
 <path fill="none" stroke="rgb(179,179,179)" stroke-linejoin="round" d="M 1858,1564 L 2008,1564"/>
 <path fill="none" stroke="rgb(179,179,179)" stroke-linejoin="round" d="M 1858,1564 L 2008,1564"/>
 <path fill="none" stroke="rgb(179,179,179)" stroke-linejoin="round" d="M 2008,8720 L 2008,1564"/>
 <path fill="rgb(0,69,134)" stroke="none" d="M 14248,8720 L 15132,8720 15132,8720 14248,8720 Z"/>
 <path fill="rgb(0,69,134)" stroke="none" d="M 11862,8720 L 12746,8720 12746,4695 11862,4695 11862,8720 Z"/>
 <path fill="rgb(0,69,134)" stroke="none" d="M 9475,8720 L 10359,8720 10359,6036 9475,6036 9475,8720 Z"/>
 <path fill="rgb(0,69,134)" stroke="none" d="M 7090,8720 L 7974,8720 7974,3800 7090,3800 7090,8720 Z"/>
 <path fill="rgb(0,69,134)" stroke="none" d="M 4703,8720 L 5587,8720 5587,2011 4703,2011 4703,8720 Z"/>
 <path fill="rgb(0,69,134)" stroke="none" d="M 2317,8720 L 3201,8720 3201,4695 2317,4695 2317,8720 Z"/>
 <path fill="rgb(255,66,14)" stroke="none" d="M 15132,8720 L 16016,8720 16016,8272 15132,8272 15132,8720 Z"/>
 <path fill="rgb(255,66,14)" stroke="none" d="M 12746,8720 L 13630,8720 13630,4247 12746,4247 12746,8720 Z"/>
 <path fill="rgb(255,66,14)" stroke="none" d="M 10359,8720 L 11243,8720 11243,5588 10359,5588 10359,8720 Z"/>
 <path fill="rgb(255,66,14)" stroke="none" d="M 7974,8720 L 8858,8720 8858,5142 7974,5142 7974,8720 Z"/>
 <path fill="rgb(255,66,14)" stroke="none" d="M 5587,8720 L 6471,8720 6471,4247 5587,4247 5587,8720 Z"/>
 <path fill="rgb(255,66,14)" stroke="none" d="M 3201,8720 L 4085,8720 4085,2458 3201,2458 3201,8720 Z"/>
 <text class="TextShape"><tspan class="TextParagraph" font-family="Liberation Sans, sans-serif" font-size="353px" font-weight="400"><tspan class="TextPosition" x="3105" y="9288"><tspan fill="rgb(0,0,0)" stroke="none">0</tspan></tspan></tspan></text>
 <text class="TextShape"><tspan class="TextParagraph" font-family="Liberation Sans, sans-serif" font-size="353px" font-weight="400"><tspan class="TextPosition" x="5396" y="9288"><tspan fill="rgb(0,0,0)" stroke="none">20</tspan></tspan></tspan></text>
 <text class="TextShape"><tspan class="TextParagraph" font-family="Liberation Sans, sans-serif" font-size="353px" font-weight="400"><tspan class="TextPosition" x="7783" y="9288"><tspan fill="rgb(0,0,0)" stroke="none">40</tspan></tspan></tspan></text>
 <text class="TextShape"><tspan class="TextParagraph" font-family="Liberation Sans, sans-serif" font-size="353px" font-weight="400"><tspan class="TextPosition" x="10169" y="9288"><tspan fill="rgb(0,0,0)" stroke="none">60</tspan></tspan></tspan></text>
 <text class="TextShape"><tspan class="TextParagraph" font-family="Liberation Sans, sans-serif" font-size="353px" font-weight="400"><tspan class="TextPosition" x="12556" y="9288"><tspan fill="rgb(0,0,0)" stroke="none">80</tspan></tspan></tspan></text>
 <text class="TextShape"><tspan class="TextParagraph" font-family="Liberation Sans, sans-serif" font-size="353px" font-weight="400"><tspan class="TextPosition" x="14847" y="9288"><tspan fill="rgb(0,0,0)" stroke="none">100</tspan></tspan></tspan></text>
 <text class="TextShape"><tspan class="TextParagraph" font-family="Liberation Sans, sans-serif" font-size="353px" font-weight="400"><tspan class="TextPosition" x="1567" y="8838"><tspan fill="rgb(0,0,0)" stroke="none">0</tspan></tspan></tspan></text>
 <text class="TextShape"><tspan class="TextParagraph" font-family="Liberation Sans, sans-serif" font-size="353px" font-weight="400"><tspan class="TextPosition" x="1567" y="7943"><tspan fill="rgb(0,0,0)" stroke="none">2</tspan></tspan></tspan></text>
 <text class="TextShape"><tspan class="TextParagraph" font-family="Liberation Sans, sans-serif" font-size="353px" font-weight="400"><tspan class="TextPosition" x="1567" y="7048"><tspan fill="rgb(0,0,0)" stroke="none">4</tspan></tspan></tspan></text>
 <text class="TextShape"><tspan class="TextParagraph" font-family="Liberation Sans, sans-serif" font-size="353px" font-weight="400"><tspan class="TextPosition" x="1567" y="6154"><tspan fill="rgb(0,0,0)" stroke="none">6</tspan></tspan></tspan></text>
 <text class="TextShape"><tspan class="TextParagraph" font-family="Liberation Sans, sans-serif" font-size="353px" font-weight="400"><tspan class="TextPosition" x="1567" y="5259"><tspan fill="rgb(0,0,0)" stroke="none">8</tspan></tspan></tspan></text>
 <text class="TextShape"><tspan class="TextParagraph" font-family="Liberation Sans, sans-serif" font-size="353px" font-weight="400"><tspan class="TextPosition" x="1377" y="4364"><tspan fill="rgb(0,0,0)" stroke="none">10</tspan></tspan></tspan></text>
 <text class="TextShape"><tspan class="TextParagraph" font-family="Liberation Sans, sans-serif" font-size="353px" font-weight="400"><tspan class="TextPosition" x="1377" y="3470"><tspan fill="rgb(0,0,0)" stroke="none">12</tspan></tspan></tspan></text>
 <text class="TextShape"><tspan class="TextParagraph" font-family="Liberation Sans, sans-serif" font-size="353px" font-weight="400"><tspan class="TextPosition" x="1377" y="2575"><tspan fill="rgb(0,0,0)" stroke="none">14</tspan></tspan></tspan></text>
 <text class="TextShape"><tspan class="TextParagraph" font-family="Liberation Sans, sans-serif" font-size="353px" font-weight="400"><tspan class="TextPosition" x="1377" y="1681"><tspan fill="rgb(0,0,0)" stroke="none">16</tspan></tspan></tspan></text>
 <text class="TextShape"><tspan class="TextParagraph" font-family="Liberation Sans, sans-serif" font-size="459px" font-weight="400"><tspan class="TextPosition" x="6950" y="908"><tspan fill="rgb(0,0,0)" stroke="none">Randomized Data Point</tspan></tspan></tspan></text>
 <path fill="rgb(0,69,134)" stroke="none" d="M 16923,5131 L 16817,5131 16817,4920 17028,4920 17028,5131 16923,5131 Z"/>
 <path fill="rgb(255,66,14)" stroke="none" d="M 16923,5634 L 16817,5634 16817,5423 17028,5423 17028,5634 16923,5634 Z"/>
 <text class="TextShape"><tspan class="TextParagraph" font-family="Liberation Sans, sans-serif" font-size="353px" font-weight="400"><tspan class="TextPosition" x="17128" y="5142"><tspan fill="rgb(0,0,0)" stroke="none">Series 1</tspan></tspan></tspan></text>
 <text class="TextShape"><tspan class="TextParagraph" font-family="Liberation Sans, sans-serif" font-size="353px" font-weight="400"><tspan class="TextPosition" x="17128" y="5645"><tspan fill="rgb(0,0,0)" stroke="none">Series 2</tspan></tspan></tspan></text>
 <text class="TextShape"><tspan class="TextParagraph" font-family="Liberation Sans, sans-serif" font-size="318px" font-weight="400"><tspan class="TextPosition" x="8089" y="9977"><tspan fill="rgb(0,0,0)" stroke="none">Data Value</tspan></tspan></tspan></text>
 <text class="TextShape" transform="rotate(-90 842 6109)"><tspan class="TextParagraph" font-family="Liberation Sans, sans-serif" font-size="318px" font-weight="400"><tspan class="TextPosition" x="842" y="6109"><tspan fill="rgb(0,0,0)" stroke="none">Frequency</tspan></tspan></tspan></text>
</svg>