<svg version="1.1" viewBox="0.0 0.0 600.0 371.0" fill="none" stroke="none" stroke-linecap="square" stroke-miterlimit="10" width="600" height="371" xmlns:xlink="http://www.w3.org/1999/xlink" xmlns="http://www.w3.org/2000/svg"><path fill="#ffffff" d="M0 0L600.0 0L600.0 371.0L0 371.0L0 0Z" fill-rule="nonzero"/><path stroke="#cccccc" stroke-width="1.0" stroke-linecap="butt" d="M148.5 49.5L148.5 332.5" fill-rule="nonzero"/><path stroke="#cccccc" stroke-width="1.0" stroke-linecap="butt" d="M254.5 49.5L254.5 332.5" fill-rule="nonzero"/><path stroke="#cccccc" stroke-width="1.0" stroke-linecap="butt" d="M361.5 49.5L361.5 332.5" fill-rule="nonzero"/><path stroke="#cccccc" stroke-width="1.0" stroke-linecap="butt" d="M468.5 49.5L468.5 332.5" fill-rule="nonzero"/><path stroke="#cccccc" stroke-width="1.0" stroke-linecap="butt" d="M574.5 49.5L574.5 332.5" fill-rule="nonzero"/><path stroke="#333333" stroke-width="1.0" stroke-linecap="butt" d="M45.5 332.5L581.5 332.5" fill-rule="nonzero"/><path stroke="#cccccc" stroke-width="1.0" stroke-linecap="butt" d="M45.5 261.5L581.5 261.5" fill-rule="nonzero"/><path stroke="#cccccc" stroke-width="1.0" stroke-linecap="butt" d="M45.5 191.5L581.5 191.5" fill-rule="nonzero"/><path stroke="#cccccc" stroke-width="1.0" stroke-linecap="butt" d="M45.5 120.5L581.5 120.5" fill-rule="nonzero"/><path stroke="#cccccc" stroke-width="1.0" stroke-linecap="butt" d="M45.5 49.5L581.5 49.5" fill-rule="nonzero"/><clipPath id="id_0"><path d="M45.55 49.916668L581.45 49.916668L581.45 332.45L45.55 332.45L45.55 49.916668Z" clip-rule="nonzero"/></clipPath><path fill="#4285f4" clip-path="url(#id_0)" d="M56.871784 227.91267C56.871784 230.39795 54.857067 232.41267 52.371784 232.41267C49.886505 232.41267 47.871784 230.39795 47.871784 227.91267C47.871784 225.42738 49.886505 223.41267 52.371784 223.41267C54.857067 223.41267 56.871784 225.42738 56.871784 227.91267Z" fill-rule="nonzero"/><path fill="#4285f4" clip-path="url(#id_0)" d="M67.53008 312.67267C67.53008 315.15796 65.51536 317.17267 63.03008 317.17267C60.5448 317.17267 58.53008 315.15796 58.53008 312.67267C58.53008 310.18738 60.5448 308.17267 63.03008 308.17267C65.51536 308.17267 67.53008 310.18738 67.53008 312.67267Z" fill-rule="nonzero"/><path fill="#4285f4" clip-path="url(#id_0)" d="M78.18838 258.99133C78.18838 261.47662 76.17365 263.49133 73.68838 263.49133C71.203094 263.49133 69.18838 261.47662 69.18838 258.99133C69.18838 256.50604 71.203094 254.49133 73.68838 254.49133C76.17365 254.49133 78.18838 256.50604 78.18838 258.99133Z" fill-rule="nonzero"/><path fill="#4285f4" clip-path="url(#id_0)" d="M88.84667 256.166C88.84667 258.65128 86.83195 260.666 84.34667 260.666C81.86139 260.666 79.84667 258.65128 79.84667 256.166C79.84667 253.68073 81.86139 251.666 84.34667 251.666C86.83195 251.666 88.84667 253.68073 88.84667 256.166Z" fill-rule="nonzero"/><path fill="#4285f4" clip-path="url(#id_0)" d="M99.50497 75.344666C99.50497 77.82995 97.49024 79.844666 95.00497 79.844666C92.519684 79.844666 90.50497 77.82995 90.50497 75.344666C90.50497 72.85938 92.519684 70.844666 95.00497 70.844666C97.49024 70.844666 99.50497 72.85938 99.50497 75.344666Z" fill-rule="nonzero"/><path fill="#4285f4" clip-path="url(#id_0)" d="M110.16326 114.89933C110.16326 117.38461 108.14854 119.39933 105.66326 119.39933C103.17798 119.39933 101.16326 117.38461 101.16326 114.89933C101.16326 112.414055 103.17798 110.39933 105.66326 110.39933C108.14854 110.39933 110.16326 112.414055 110.16326 114.89933Z" fill-rule="nonzero"/><path fill="#4285f4" clip-path="url(#id_0)" d="M120.821556 168.58067C120.821556 171.06595 118.80683 173.08067 116.321556 173.08067C113.83627 173.08067 111.821556 171.06595 111.821556 168.58067C111.821556 166.09538 113.83627 164.08067 116.321556 164.08067C118.80683 164.08067 120.821556 166.09538 120.821556 168.58067Z" fill-rule="nonzero"/><path fill="#4285f4" clip-path="url(#id_0)" d="M131.47984 86.646C131.47984 89.13128 129.46513 91.146 126.97985 91.146C124.49457 91.146 122.47985 89.13128 122.47985 86.646C122.47985 84.16072 124.49457 82.146 126.97985 82.146C129.46513 82.146 131.47984 84.16072 131.47984 86.646Z" fill-rule="nonzero"/><path fill="#4285f4" clip-path="url(#id_0)" d="M142.13814 168.58067C142.13814 171.06595 140.12343 173.08067 137.63814 173.08067C135.15286 173.08067 133.13814 171.06595 133.13814 168.58067C133.13814 166.09538 135.15286 164.08067 137.63814 164.08067C140.12343 164.08067 142.13814 166.09538 142.13814 168.58067Z" fill-rule="nonzero"/><path fill="#4285f4" clip-path="url(#id_0)" d="M152.79643 295.72067C152.79643 298.20596 150.78172 300.22067 148.29643 300.22067C145.81116 300.22067 143.79643 298.20596 143.79643 295.72067C143.79643 293.23538 145.81116 291.22067 148.29643 291.22067C150.78172 291.22067 152.79643 293.23538 152.79643 295.72067Z" fill-rule="nonzero"/><path fill="#4285f4" clip-path="url(#id_0)" d="M163.45473 157.27933C163.45473 159.76462 161.44002 161.77933 158.95473 161.77933C156.46945 161.77933 154.45473 159.76462 154.45473 157.27933C154.45473 154.79405 156.46945 152.77933 158.95473 152.77933C161.44002 152.77933 163.45473 154.79405 163.45473 157.27933Z" fill-rule="nonzero"/><path fill="#4285f4" clip-path="url(#id_0)" d="M174.11302 75.344666C174.11302 77.82995 172.09831 79.844666 169.61302 79.844666C167.12775 79.844666 165.11302 77.82995 165.11302 75.344666C165.11302 72.85938 167.12775 70.844666 169.61302 70.844666C172.09831 70.844666 174.11302 72.85938 174.11302 75.344666Z" fill-rule="nonzero"/><path fill="#4285f4" clip-path="url(#id_0)" d="M184.77132 281.594C184.77132 284.07928 182.7566 286.094 180.27132 286.094C177.78604 286.094 175.77132 284.07928 175.77132 281.594C175.77132 279.1087 177.78604 277.094 180.27132 277.094C182.7566 277.094 184.77132 279.1087 184.77132 281.594Z" fill-rule="nonzero"/><path fill="#4285f4" clip-path="url(#id_0)" d="M195.42961 281.594C195.42961 284.07928 193.4149 286.094 190.92961 286.094C188.44434 286.094 186.42961 284.07928 186.42961 281.594C186.42961 279.1087 188.44434 277.094 190.92961 277.094C193.4149 277.094 195.42961 279.1087 195.42961 281.594Z" fill-rule="nonzero"/><path fill="#4285f4" clip-path="url(#id_0)" d="M206.0879 267.46735C206.0879 269.9526 204.0732 271.96735 201.5879 271.96735C199.10263 271.96735 197.0879 269.9526 197.0879 267.46735C197.0879 264.98206 199.10263 262.96735 201.5879 262.96735C204.0732 262.96735 206.0879 264.98206 206.0879 267.46735Z" fill-rule="nonzero"/><path fill="#4285f4" clip-path="url(#id_0)" d="M216.7462 160.10466C216.7462 162.58995 214.73149 164.60466 212.2462 164.60466C209.76093 164.60466 207.7462 162.58995 207.7462 160.10466C207.7462 157.61938 209.76093 155.60466 212.2462 155.60466C214.73149 155.60466 216.7462 157.61938 216.7462 160.10466Z" fill-rule="nonzero"/><path fill="#4285f4" clip-path="url(#id_0)" d="M227.4045 78.17C227.4045 80.65528 225.38979 82.67 222.9045 82.67C220.41922 82.67 218.4045 80.65528 218.4045 78.17C218.4045 75.684715 220.41922 73.67 222.9045 73.67C225.38979 73.67 227.4045 75.684715 227.4045 78.17Z" fill-rule="nonzero"/><path fill="#4285f4" clip-path="url(#id_0)" d="M238.06279 258.99133C238.06279 261.47662 236.04808 263.49133 233.56279 263.49133C231.07751 263.49133 229.06279 261.47662 229.06279 258.99133C229.06279 256.50604 231.07751 254.49133 233.56279 254.49133C236.04808 254.49133 238.06279 256.50604 238.06279 258.99133Z" fill-rule="nonzero"/><path fill="#4285f4" clip-path="url(#id_0)" d="M248.72108 326.79935C248.72108 329.2846 246.70636 331.29935 244.22108 331.29935C241.73581 331.29935 239.72108 329.2846 239.72108 326.79935C239.72108 324.31406 241.73581 322.29935 244.22108 322.29935C246.70636 322.29935 248.72108 324.31406 248.72108 326.79935Z" fill-rule="nonzero"/><path fill="#4285f4" clip-path="url(#id_0)" d="M259.3794 179.882C259.3794 182.36728 257.36465 184.382 254.87938 184.382C252.3941 184.382 250.37938 182.36728 250.37938 179.882C250.37938 177.39671 252.3941 175.382 254.87938 175.382C257.36465 175.382 259.3794 177.39671 259.3794 179.882Z" fill-rule="nonzero"/><path fill="#4285f4" clip-path="url(#id_0)" d="M270.0377 256.166C270.0377 258.65128 268.02295 260.666 265.5377 260.666C263.0524 260.666 261.0377 258.65128 261.0377 256.166C261.0377 253.68073 263.0524 251.666 265.5377 251.666C268.02295 251.666 270.0377 253.68073 270.0377 256.166Z" fill-rule="nonzero"/><path fill="#4285f4" clip-path="url(#id_0)" d="M280.69598 247.69C280.69598 250.17528 278.68124 252.19 276.19598 252.19C273.7107 252.19 271.69598 250.17528 271.69598 247.69C271.69598 245.20471 273.7107 243.19 276.19598 243.19C278.68124 243.19 280.69598 245.20471 280.69598 247.69Z" fill-rule="nonzero"/><path fill="#4285f4" clip-path="url(#id_0)" d="M291.35428 185.53267C291.35428 188.01794 289.33954 190.03267 286.85428 190.03267C284.369 190.03267 282.35428 188.01794 282.35428 185.53267C282.35428 183.04738 284.369 181.03267 286.85428 181.03267C289.33954 181.03267 291.35428 183.04738 291.35428 185.53267Z" fill-rule="nonzero"/><path fill="#4285f4" clip-path="url(#id_0)" d="M302.01257 222.262C302.01257 224.74728 299.99783 226.762 297.51257 226.762C295.02728 226.762 293.01257 224.74728 293.01257 222.262C293.01257 219.77672 295.02728 217.762 297.51257 217.762C299.99783 217.762 302.01257 219.77672 302.01257 222.262Z" fill-rule="nonzero"/><path fill="#4285f4" clip-path="url(#id_0)" d="M312.67087 323.974C312.67087 326.4593 310.65613 328.474 308.17087 328.474C305.68558 328.474 303.67087 326.4593 303.67087 323.974C303.67087 321.4887 305.68558 319.474 308.17087 319.474C310.65613 319.474 312.67087 321.4887 312.67087 323.974Z" fill-rule="nonzero"/><path fill="#4285f4" clip-path="url(#id_0)" d="M323.32913 227.91267C323.32913 230.39795 321.31442 232.41267 318.82913 232.41267C316.34387 232.41267 314.32913 230.39795 314.32913 227.91267C314.32913 225.42738 316.34387 223.41267 318.82913 223.41267C321.31442 223.41267 323.32913 225.42738 323.32913 227.91267Z" fill-rule="nonzero"/><path fill="#4285f4" clip-path="url(#id_0)" d="M333.98743 242.03934C333.98743 244.52461 331.97272 246.53934 329.48743 246.53934C327.00217 246.53934 324.98743 244.52461 324.98743 242.03934C324.98743 239.55405 327.00217 237.53934 329.48743 237.53934C331.97272 237.53934 333.98743 239.55405 333.98743 242.03934Z" fill-rule="nonzero"/><path fill="#4285f4" clip-path="url(#id_0)" d="M344.64572 210.96066C344.64572 213.44595 342.631 215.46066 340.14572 215.46066C337.66046 215.46066 335.64572 213.44595 335.64572 210.96066C335.64572 208.47539 337.66046 206.46066 340.14572 206.46066C342.631 206.46066 344.64572 208.47539 344.64572 210.96066Z" fill-rule="nonzero"/><path fill="#4285f4" clip-path="url(#id_0)" d="M355.30402 253.34067C355.30402 255.82594 353.2893 257.84067 350.80402 257.84067C348.31876 257.84067 346.30402 255.82594 346.30402 253.34067C346.30402 250.8554 348.31876 248.84067 350.80402 248.84067C353.2893 248.84067 355.30402 250.8554 355.30402 253.34067Z" fill-rule="nonzero"/><path fill="#4285f4" clip-path="url(#id_0)" d="M365.9623 315.498C365.9623 317.98328 363.9476 319.998 361.4623 319.998C358.97705 319.998 356.9623 317.98328 356.9623 315.498C356.9623 313.01273 358.97705 310.998 361.4623 310.998C363.9476 310.998 365.9623 313.01273 365.9623 315.498Z" fill-rule="nonzero"/><path fill="#4285f4" clip-path="url(#id_0)" d="M376.6206 191.18333C376.6206 193.66861 374.6059 195.68333 372.1206 195.68333C369.63535 195.68333 367.6206 193.66861 367.6206 191.18333C367.6206 188.69806 369.63535 186.68333 372.1206 186.68333C374.6059 186.68333 376.6206 188.69806 376.6206 191.18333Z" fill-rule="nonzero"/><path fill="#4285f4" clip-path="url(#id_0)" d="M387.2789 191.18333C387.2789 193.66861 385.2642 195.68333 382.7789 195.68333C380.29364 195.68333 378.2789 193.66861 378.2789 191.18333C378.2789 188.69806 380.29364 186.68333 382.7789 186.68333C385.2642 186.68333 387.2789 188.69806 387.2789 191.18333Z" fill-rule="nonzero"/><path fill="#4285f4" clip-path="url(#id_0)" d="M397.9372 131.85133C397.9372 134.33661 395.9225 136.35133 393.4372 136.35133C390.95193 136.35133 388.9372 134.33661 388.9372 131.85133C388.9372 129.36606 390.95193 127.35133 393.4372 127.35133C395.9225 127.35133 397.9372 129.36606 397.9372 131.85133Z" fill-rule="nonzero"/><path fill="#4285f4" clip-path="url(#id_0)" d="M408.5955 205.31C408.5955 207.79529 406.58078 209.81 404.0955 209.81C401.61023 209.81 399.5955 207.79529 399.5955 205.31C399.5955 202.82472 401.61023 200.81 404.0955 200.81C406.58078 200.81 408.5955 202.82472 408.5955 205.31Z" fill-rule="nonzero"/><path fill="#4285f4" clip-path="url(#id_0)" d="M419.25378 227.91267C419.25378 230.39795 417.23907 232.41267 414.75378 232.41267C412.26852 232.41267 410.25378 230.39795 410.25378 227.91267C410.25378 225.42738 412.26852 223.41267 414.75378 223.41267C417.23907 223.41267 419.25378 225.42738 419.25378 227.91267Z" fill-rule="nonzero"/><path fill="#4285f4" clip-path="url(#id_0)" d="M429.91208 278.76868C429.91208 281.25394 427.89737 283.26868 425.41208 283.26868C422.92682 283.26868 420.91208 281.25394 420.91208 278.76868C420.91208 276.2834 422.92682 274.26868 425.41208 274.26868C427.89737 274.26868 429.91208 276.2834 429.91208 278.76868Z" fill-rule="nonzero"/><path fill="#4285f4" clip-path="url(#id_0)" d="M440.57037 95.122C440.57037 97.607285 438.55566 99.622 436.07037 99.622C433.5851 99.622 431.57037 97.607285 431.57037 95.122C431.57037 92.63672 433.5851 90.622 436.07037 90.622C438.55566 90.622 440.57037 92.63672 440.57037 95.122Z" fill-rule="nonzero"/><path fill="#4285f4" clip-path="url(#id_0)" d="M451.22867 160.10466C451.22867 162.58995 449.21396 164.60466 446.72867 164.60466C444.2434 164.60466 442.22867 162.58995 442.22867 160.10466C442.22867 157.61938 444.2434 155.60466 446.72867 155.60466C449.21396 155.60466 451.22867 157.61938 451.22867 160.10466Z" fill-rule="nonzero"/><path fill="#4285f4" clip-path="url(#id_0)" d="M461.88696 202.48466C461.88696 204.96996 459.87225 206.98466 457.38696 206.98466C454.9017 206.98466 452.88696 204.96996 452.88696 202.48466C452.88696 199.99939 454.9017 197.98466 457.38696 197.98466C459.87225 197.98466 461.88696 199.99939 461.88696 202.48466Z" fill-rule="nonzero"/><path fill="#4285f4" clip-path="url(#id_0)" d="M472.54526 188.358C472.54526 190.84328 470.53055 192.858 468.04526 192.858C465.56 192.858 463.54526 190.84328 463.54526 188.358C463.54526 185.87271 465.56 183.858 468.04526 183.858C470.53055 183.858 472.54526 185.87271 472.54526 188.358Z" fill-rule="nonzero"/><path fill="#4285f4" clip-path="url(#id_0)" d="M483.20355 222.262C483.20355 224.74728 481.18884 226.762 478.70355 226.762C476.2183 226.762 474.20355 224.74728 474.20355 222.262C474.20355 219.77672 476.2183 217.762 478.70355 217.762C481.18884 217.762 483.20355 219.77672 483.20355 222.262Z" fill-rule="nonzero"/><path fill="#4285f4" clip-path="url(#id_0)" d="M493.86185 64.043335C493.86185 66.52862 491.84714 68.543335 489.36185 68.543335C486.8766 68.543335 484.86185 66.52862 484.86185 64.043335C484.86185 61.558052 486.8766 59.543335 489.36185 59.543335C491.84714 59.543335 493.86185 61.558052 493.86185 64.043335Z" fill-rule="nonzero"/><path fill="#4285f4" clip-path="url(#id_0)" d="M504.52014 287.24466C504.52014 289.72995 502.50543 291.74466 500.02014 291.74466C497.53488 291.74466 495.52014 289.72995 495.52014 287.24466C495.52014 284.7594 497.53488 282.74466 500.02014 282.74466C502.50543 282.74466 504.52014 284.7594 504.52014 287.24466Z" fill-rule="nonzero"/><path fill="#4285f4" clip-path="url(#id_0)" d="M515.17847 256.166C515.17847 258.65128 513.16376 260.666 510.67844 260.666C508.19318 260.666 506.17844 258.65128 506.17844 256.166C506.17844 253.68073 508.19318 251.666 510.67844 251.666C513.16376 251.666 515.17847 253.68073 515.17847 256.166Z" fill-rule="nonzero"/><path fill="#4285f4" clip-path="url(#id_0)" d="M525.83673 253.34067C525.83673 255.82594 523.822 257.84067 521.33673 257.84067C518.85144 257.84067 516.83673 255.82594 516.83673 253.34067C516.83673 250.8554 518.85144 248.84067 521.33673 248.84067C523.822 248.84067 525.83673 250.8554 525.83673 253.34067Z" fill-rule="nonzero"/><path fill="#4285f4" clip-path="url(#id_0)" d="M536.49506 80.99533C536.49506 83.48061 534.48035 85.49533 531.99506 85.49533C529.50977 85.49533 527.49506 83.48061 527.49506 80.99533C527.49506 78.510056 529.50977 76.49533 531.99506 76.49533C534.48035 76.49533 536.49506 78.510056 536.49506 80.99533Z" fill-rule="nonzero"/><path fill="#4285f4" clip-path="url(#id_0)" d="M547.1533 179.882C547.1533 182.36728 545.1386 184.382 542.6533 184.382C540.168 184.382 538.1533 182.36728 538.1533 179.882C538.1533 177.39671 540.168 175.382 542.6533 175.382C545.1386 175.382 547.1533 177.39671 547.1533 179.882Z" fill-rule="nonzero"/><path fill="#4285f4" clip-path="url(#id_0)" d="M557.81165 55.567333C557.81165 58.052616 555.79694 60.067333 553.31165 60.067333C550.82635 60.067333 548.81165 58.052616 548.81165 55.567333C548.81165 53.08205 550.82635 51.067333 553.31165 51.067333C555.79694 51.067333 557.81165 53.08205 557.81165 55.567333Z" fill-rule="nonzero"/><path fill="#4285f4" clip-path="url(#id_0)" d="M568.4699 55.567333C568.4699 58.052616 566.4552 60.067333 563.9699 60.067333C561.4846 60.067333 559.4699 58.052616 559.4699 55.567333C559.4699 53.08205 561.4846 51.067333 563.9699 51.067333C566.4552 51.067333 568.4699 53.08205 568.4699 55.567333Z" fill-rule="nonzero"/><path fill="#4285f4" clip-path="url(#id_0)" d="M579.12823 160.10466C579.12823 162.58995 577.1135 164.60466 574.62823 164.60466C572.14294 164.60466 570.12823 162.58995 570.12823 160.10466C570.12823 157.61938 572.14294 155.60466 574.62823 155.60466C577.1135 155.60466 579.12823 157.61938 579.12823 160.10466Z" fill-rule="nonzero"/><path fill="#ea4335" clip-path="url(#id_0)" d="M56.871784 261.81668C56.871784 264.30194 54.857067 266.31668 52.371784 266.31668C49.886505 266.31668 47.871784 264.30194 47.871784 261.81668C47.871784 259.3314 49.886505 257.31668 52.371784 257.31668C54.857067 257.31668 56.871784 259.3314 56.871784 261.81668Z" fill-rule="nonzero"/><path fill="#ea4335" clip-path="url(#id_0)" d="M67.53008 83.82066C67.53008 86.30595 65.51536 88.32066 63.03008 88.32066C60.5448 88.32066 58.53008 86.30595 58.53008 83.82066C58.53008 81.33539 60.5448 79.32066 63.03008 79.32066C65.51536 79.32066 67.53008 81.33539 67.53008 83.82066Z" fill-rule="nonzero"/><path fill="#ea4335" clip-path="url(#id_0)" d="M78.18838 148.80333C78.18838 151.28862 76.17365 153.30333 73.68838 153.30333C71.203094 153.30333 69.18838 151.28862 69.18838 148.80333C69.18838 146.31805 71.203094 144.30333 73.68838 144.30333C76.17365 144.30333 78.18838 146.31805 78.18838 148.80333Z" fill-rule="nonzero"/><path fill="#ea4335" clip-path="url(#id_0)" d="M88.84667 318.32333C88.84667 320.80862 86.83195 322.82333 84.34667 322.82333C81.86139 322.82333 79.84667 320.80862 79.84667 318.32333C79.84667 315.83804 81.86139 313.82333 84.34667 313.82333C86.83195 313.82333 88.84667 315.83804 88.84667 318.32333Z" fill-rule="nonzero"/><path fill="#ea4335" clip-path="url(#id_0)" d="M99.50497 253.34067C99.50497 255.82594 97.49024 257.84067 95.00497 257.84067C92.519684 257.84067 90.50497 255.82594 90.50497 253.34067C90.50497 250.8554 92.519684 248.84067 95.00497 248.84067C97.49024 248.84067 99.50497 250.8554 99.50497 253.34067Z" fill-rule="nonzero"/><path fill="#ea4335" clip-path="url(#id_0)" d="M110.16326 188.358C110.16326 190.84328 108.14854 192.858 105.66326 192.858C103.17798 192.858 101.16326 190.84328 101.16326 188.358C101.16326 185.87271 103.17798 183.858 105.66326 183.858C108.14854 183.858 110.16326 185.87271 110.16326 188.358Z" fill-rule="nonzero"/><path fill="#ea4335" clip-path="url(#id_0)" d="M120.821556 250.51534C120.821556 253.00061 118.80683 255.01534 116.321556 255.01534C113.83627 255.01534 111.821556 253.00061 111.821556 250.51534C111.821556 248.03004 113.83627 246.01534 116.321556 246.01534C118.80683 246.01534 120.821556 248.03004 120.821556 250.51534Z" fill-rule="nonzero"/><path fill="#ea4335" clip-path="url(#id_0)" d="M131.47984 97.947334C131.47984 100.43262 129.46513 102.447334 126.97985 102.447334C124.49457 102.447334 122.47985 100.43262 122.47985 97.947334C122.47985 95.46205 124.49457 93.447334 126.97985 93.447334C129.46513 93.447334 131.47984 95.46205 131.47984 97.947334Z" fill-rule="nonzero"/><path fill="#ea4335" clip-path="url(#id_0)" d="M142.13814 304.19666C142.13814 306.68195 140.12343 308.69666 137.63814 308.69666C135.15286 308.69666 133.13814 306.68195 133.13814 304.19666C133.13814 301.7114 135.15286 299.69666 137.63814 299.69666C140.12343 299.69666 142.13814 301.7114 142.13814 304.19666Z" fill-rule="nonzero"/><path fill="#ea4335" clip-path="url(#id_0)" d="M152.79643 55.567333C152.79643 58.052616 150.78172 60.067333 148.29643 60.067333C145.81116 60.067333 143.79643 58.052616 143.79643 55.567333C143.79643 53.08205 145.81116 51.067333 148.29643 51.067333C150.78172 51.067333 152.79643 53.08205 152.79643 55.567333Z" fill-rule="nonzero"/><path fill="#ea4335" clip-path="url(#id_0)" d="M163.45473 185.53267C163.45473 188.01794 161.44002 190.03267 158.95473 190.03267C156.46945 190.03267 154.45473 188.01794 154.45473 185.53267C154.45473 183.04738 156.46945 181.03267 158.95473 181.03267C161.44002 181.03267 163.45473 183.04738 163.45473 185.53267Z" fill-rule="nonzero"/><path fill="#ea4335" clip-path="url(#id_0)" d="M174.11302 258.99133C174.11302 261.47662 172.09831 263.49133 169.61302 263.49133C167.12775 263.49133 165.11302 261.47662 165.11302 258.99133C165.11302 256.50604 167.12775 254.49133 169.61302 254.49133C172.09831 254.49133 174.11302 256.50604 174.11302 258.99133Z" fill-rule="nonzero"/><path fill="#ea4335" clip-path="url(#id_0)" d="M184.77132 140.32733C184.77132 142.81262 182.7566 144.82733 180.27132 144.82733C177.78604 144.82733 175.77132 142.81262 175.77132 140.32733C175.77132 137.84206 177.78604 135.82733 180.27132 135.82733C182.7566 135.82733 184.77132 137.84206 184.77132 140.32733Z" fill-rule="nonzero"/><path fill="#ea4335" clip-path="url(#id_0)" d="M195.42961 151.62866C195.42961 154.11395 193.4149 156.12866 190.92961 156.12866C188.44434 156.12866 186.42961 154.11395 186.42961 151.62866C186.42961 149.14339 188.44434 147.12866 190.92961 147.12866C193.4149 147.12866 195.42961 149.14339 195.42961 151.62866Z" fill-rule="nonzero"/><path fill="#ea4335" clip-path="url(#id_0)" d="M206.0879 323.974C206.0879 326.4593 204.0732 328.474 201.5879 328.474C199.10263 328.474 197.0879 326.4593 197.0879 323.974C197.0879 321.4887 199.10263 319.474 201.5879 319.474C204.0732 319.474 206.0879 321.4887 206.0879 323.974Z" fill-rule="nonzero"/><path fill="#ea4335" clip-path="url(#id_0)" d="M216.7462 315.498C216.7462 317.98328 214.73149 319.998 212.2462 319.998C209.76093 319.998 207.7462 317.98328 207.7462 315.498C207.7462 313.01273 209.76093 310.998 212.2462 310.998C214.73149 310.998 216.7462 313.01273 216.7462 315.498Z" fill-rule="nonzero"/><path fill="#ea4335" clip-path="url(#id_0)" d="M227.4045 222.262C227.4045 224.74728 225.38979 226.762 222.9045 226.762C220.41922 226.762 218.4045 224.74728 218.4045 222.262C218.4045 219.77672 220.41922 217.762 222.9045 217.762C225.38979 217.762 227.4045 219.77672 227.4045 222.262Z" fill-rule="nonzero"/><path fill="#ea4335" clip-path="url(#id_0)" d="M238.06279 182.70734C238.06279 185.19261 236.04808 187.20734 233.56279 187.20734C231.07751 187.20734 229.06279 185.19261 229.06279 182.70734C229.06279 180.22205 231.07751 178.20734 233.56279 178.20734C236.04808 178.20734 238.06279 180.22205 238.06279 182.70734Z" fill-rule="nonzero"/><path fill="#ea4335" clip-path="url(#id_0)" d="M248.72108 61.218C248.72108 63.70328 246.70636 65.718 244.22108 65.718C241.73581 65.718 239.72108 63.70328 239.72108 61.218C239.72108 58.73272 241.73581 56.718 244.22108 56.718C246.70636 56.718 248.72108 58.73272 248.72108 61.218Z" fill-rule="nonzero"/><path fill="#ea4335" clip-path="url(#id_0)" d="M259.3794 290.07C259.3794 292.55527 257.36465 294.57 254.87938 294.57C252.3941 294.57 250.37938 292.55527 250.37938 290.07C250.37938 287.58472 252.3941 285.57 254.87938 285.57C257.36465 285.57 259.3794 287.58472 259.3794 290.07Z" fill-rule="nonzero"/><path fill="#ea4335" clip-path="url(#id_0)" d="M270.0377 219.43666C270.0377 221.92195 268.02295 223.93666 265.5377 223.93666C263.0524 223.93666 261.0377 221.92195 261.0377 219.43666C261.0377 216.95139 263.0524 214.93666 265.5377 214.93666C268.02295 214.93666 270.0377 216.95139 270.0377 219.43666Z" fill-rule="nonzero"/><path fill="#ea4335" clip-path="url(#id_0)" d="M280.69598 264.642C280.69598 267.1273 278.68124 269.142 276.19598 269.142C273.7107 269.142 271.69598 267.1273 271.69598 264.642C271.69598 262.1567 273.7107 260.142 276.19598 260.142C278.68124 260.142 280.69598 262.1567 280.69598 264.642Z" fill-rule="nonzero"/><path fill="#ea4335" clip-path="url(#id_0)" d="M291.35428 148.80333C291.35428 151.28862 289.33954 153.30333 286.85428 153.30333C284.369 153.30333 282.35428 151.28862 282.35428 148.80333C282.35428 146.31805 284.369 144.30333 286.85428 144.30333C289.33954 144.30333 291.35428 146.31805 291.35428 148.80333Z" fill-rule="nonzero"/><path fill="#ea4335" clip-path="url(#id_0)" d="M302.01257 256.166C302.01257 258.65128 299.99783 260.666 297.51257 260.666C295.02728 260.666 293.01257 258.65128 293.01257 256.166C293.01257 253.68073 295.02728 251.666 297.51257 251.666C299.99783 251.666 302.01257 253.68073 302.01257 256.166Z" fill-rule="nonzero"/><path fill="#ea4335" clip-path="url(#id_0)" d="M312.67087 95.122C312.67087 97.607285 310.65613 99.622 308.17087 99.622C305.68558 99.622 303.67087 97.607285 303.67087 95.122C303.67087 92.63672 305.68558 90.622 308.17087 90.622C310.65613 90.622 312.67087 92.63672 312.67087 95.122Z" fill-rule="nonzero"/><path fill="#ea4335" clip-path="url(#id_0)" d="M323.32913 295.72067C323.32913 298.20596 321.31442 300.22067 318.82913 300.22067C316.34387 300.22067 314.32913 298.20596 314.32913 295.72067C314.32913 293.23538 316.34387 291.22067 318.82913 291.22067C321.31442 291.22067 323.32913 293.23538 323.32913 295.72067Z" fill-rule="nonzero"/><path fill="#ea4335" clip-path="url(#id_0)" d="M333.98743 97.947334C333.98743 100.43262 331.97272 102.447334 329.48743 102.447334C327.00217 102.447334 324.98743 100.43262 324.98743 97.947334C324.98743 95.46205 327.00217 93.447334 329.48743 93.447334C331.97272 93.447334 333.98743 95.46205 333.98743 97.947334Z" fill-rule="nonzero"/><path fill="#ea4335" clip-path="url(#id_0)" d="M344.64572 210.96066C344.64572 213.44595 342.631 215.46066 340.14572 215.46066C337.66046 215.46066 335.64572 213.44595 335.64572 210.96066C335.64572 208.47539 337.66046 206.46066 340.14572 206.46066C342.631 206.46066 344.64572 208.47539 344.64572 210.96066Z" fill-rule="nonzero"/><path fill="#ea4335" clip-path="url(#id_0)" d="M355.30402 292.89532C355.30402 295.3806 353.2893 297.39532 350.80402 297.39532C348.31876 297.39532 346.30402 295.3806 346.30402 292.89532C346.30402 290.41006 348.31876 288.39532 350.80402 288.39532C353.2893 288.39532 355.30402 290.41006 355.30402 292.89532Z" fill-rule="nonzero"/><path fill="#ea4335" clip-path="url(#id_0)" d="M365.9623 148.80333C365.9623 151.28862 363.9476 153.30333 361.4623 153.30333C358.97705 153.30333 356.9623 151.28862 356.9623 148.80333C356.9623 146.31805 358.97705 144.30333 361.4623 144.30333C363.9476 144.30333 365.9623 146.31805 365.9623 148.80333Z" fill-rule="nonzero"/><path fill="#ea4335" clip-path="url(#id_0)" d="M376.6206 117.72467C376.6206 120.209946 374.6059 122.22467 372.1206 122.22467C369.63535 122.22467 367.6206 120.209946 367.6206 117.72467C367.6206 115.23939 369.63535 113.22467 372.1206 113.22467C374.6059 113.22467 376.6206 115.23939 376.6206 117.72467Z" fill-rule="nonzero"/><path fill="#ea4335" clip-path="url(#id_0)" d="M387.2789 64.043335C387.2789 66.52862 385.2642 68.543335 382.7789 68.543335C380.29364 68.543335 378.2789 66.52862 378.2789 64.043335C378.2789 61.558052 380.29364 59.543335 382.7789 59.543335C385.2642 59.543335 387.2789 61.558052 387.2789 64.043335Z" fill-rule="nonzero"/><path fill="#ea4335" clip-path="url(#id_0)" d="M397.9372 290.07C397.9372 292.55527 395.9225 294.57 393.4372 294.57C390.95193 294.57 388.9372 292.55527 388.9372 290.07C388.9372 287.58472 390.95193 285.57 393.4372 285.57C395.9225 285.57 397.9372 287.58472 397.9372 290.07Z" fill-rule="nonzero"/><path fill="#ea4335" clip-path="url(#id_0)" d="M408.5955 49.916668C408.5955 52.401947 406.58078 54.416668 404.0955 54.416668C401.61023 54.416668 399.5955 52.401947 399.5955 49.916668C399.5955 47.431385 401.61023 45.416668 404.0955 45.416668C406.58078 45.416668 408.5955 47.431385 408.5955 49.916668Z" fill-rule="nonzero"/><path fill="#ea4335" clip-path="url(#id_0)" d="M419.25378 318.32333C419.25378 320.80862 417.23907 322.82333 414.75378 322.82333C412.26852 322.82333 410.25378 320.80862 410.25378 318.32333C410.25378 315.83804 412.26852 313.82333 414.75378 313.82333C417.23907 313.82333 419.25378 315.83804 419.25378 318.32333Z" fill-rule="nonzero"/><path fill="#ea4335" clip-path="url(#id_0)" d="M429.91208 157.27933C429.91208 159.76462 427.89737 161.77933 425.41208 161.77933C422.92682 161.77933 420.91208 159.76462 420.91208 157.27933C420.91208 154.79405 422.92682 152.77933 425.41208 152.77933C427.89737 152.77933 429.91208 154.79405 429.91208 157.27933Z" fill-rule="nonzero"/><path fill="#ea4335" clip-path="url(#id_0)" d="M440.57037 72.51933C440.57037 75.004616 438.55566 77.01933 436.07037 77.01933C433.5851 77.01933 431.57037 75.004616 431.57037 72.51933C431.57037 70.03405 433.5851 68.01933 436.07037 68.01933C438.55566 68.01933 440.57037 70.03405 440.57037 72.51933Z" fill-rule="nonzero"/><path fill="#ea4335" clip-path="url(#id_0)" d="M451.22867 168.58067C451.22867 171.06595 449.21396 173.08067 446.72867 173.08067C444.2434 173.08067 442.22867 171.06595 442.22867 168.58067C442.22867 166.09538 444.2434 164.08067 446.72867 164.08067C449.21396 164.08067 451.22867 166.09538 451.22867 168.58067Z" fill-rule="nonzero"/><path fill="#ea4335" clip-path="url(#id_0)" d="M461.88696 304.19666C461.88696 306.68195 459.87225 308.69666 457.38696 308.69666C454.9017 308.69666 452.88696 306.68195 452.88696 304.19666C452.88696 301.7114 454.9017 299.69666 457.38696 299.69666C459.87225 299.69666 461.88696 301.7114 461.88696 304.19666Z" fill-rule="nonzero"/><path fill="#ea4335" clip-path="url(#id_0)" d="M472.54526 242.03934C472.54526 244.52461 470.53055 246.53934 468.04526 246.53934C465.56 246.53934 463.54526 244.52461 463.54526 242.03934C463.54526 239.55405 465.56 237.53934 468.04526 237.53934C470.53055 237.53934 472.54526 239.55405 472.54526 242.03934Z" fill-rule="nonzero"/><path fill="#ea4335" clip-path="url(#id_0)" d="M483.20355 307.022C483.20355 309.5073 481.18884 311.522 478.70355 311.522C476.2183 311.522 474.20355 309.5073 474.20355 307.022C474.20355 304.5367 476.2183 302.522 478.70355 302.522C481.18884 302.522 483.20355 304.5367 483.20355 307.022Z" fill-rule="nonzero"/><path fill="#ea4335" clip-path="url(#id_0)" d="M493.86185 97.947334C493.86185 100.43262 491.84714 102.447334 489.36185 102.447334C486.8766 102.447334 484.86185 100.43262 484.86185 97.947334C484.86185 95.46205 486.8766 93.447334 489.36185 93.447334C491.84714 93.447334 493.86185 95.46205 493.86185 97.947334Z" fill-rule="nonzero"/><path fill="#ea4335" clip-path="url(#id_0)" d="M504.52014 216.61133C504.52014 219.09662 502.50543 221.11133 500.02014 221.11133C497.53488 221.11133 495.52014 219.09662 495.52014 216.61133C495.52014 214.12605 497.53488 212.11133 500.02014 212.11133C502.50543 212.11133 504.52014 214.12605 504.52014 216.61133Z" fill-rule="nonzero"/><path fill="#ea4335" clip-path="url(#id_0)" d="M515.17847 52.742C515.17847 55.22728 513.16376 57.242 510.67844 57.242C508.19318 57.242 506.17844 55.22728 506.17844 52.742C506.17844 50.256718 508.19318 48.242 510.67844 48.242C513.16376 48.242 515.17847 50.256718 515.17847 52.742Z" fill-rule="nonzero"/><path fill="#ea4335" clip-path="url(#id_0)" d="M525.83673 202.48466C525.83673 204.96996 523.822 206.98466 521.33673 206.98466C518.85144 206.98466 516.83673 204.96996 516.83673 202.48466C516.83673 199.99939 518.85144 197.98466 521.33673 197.98466C523.822 197.98466 525.83673 199.99939 525.83673 202.48466Z" fill-rule="nonzero"/><path fill="#ea4335" clip-path="url(#id_0)" d="M536.49506 242.03934C536.49506 244.52461 534.48035 246.53934 531.99506 246.53934C529.50977 246.53934 527.49506 244.52461 527.49506 242.03934C527.49506 239.55405 529.50977 237.53934 531.99506 237.53934C534.48035 237.53934 536.49506 239.55405 536.49506 242.03934Z" fill-rule="nonzero"/><path fill="#ea4335" clip-path="url(#id_0)" d="M547.1533 278.76868C547.1533 281.25394 545.1386 283.26868 542.6533 283.26868C540.168 283.26868 538.1533 281.25394 538.1533 278.76868C538.1533 276.2834 540.168 274.26868 542.6533 274.26868C545.1386 274.26868 547.1533 276.2834 547.1533 278.76868Z" fill-rule="nonzero"/><path fill="#ea4335" clip-path="url(#id_0)" d="M557.81165 329.62466C557.81165 332.10995 555.79694 334.12466 553.31165 334.12466C550.82635 334.12466 548.81165 332.10995 548.81165 329.62466C548.81165 327.13937 550.82635 325.12466 553.31165 325.12466C555.79694 325.12466 557.81165 327.13937 557.81165 329.62466Z" fill-rule="nonzero"/><path fill="#ea4335" clip-path="url(#id_0)" d="M568.4699 295.72067C568.4699 298.20596 566.4552 300.22067 563.9699 300.22067C561.4846 300.22067 559.4699 298.20596 559.4699 295.72067C559.4699 293.23538 561.4846 291.22067 563.9699 291.22067C566.4552 291.22067 568.4699 293.23538 568.4699 295.72067Z" fill-rule="nonzero"/><path fill="#ea4335" clip-path="url(#id_0)" d="M579.12823 222.262C579.12823 224.74728 577.1135 226.762 574.62823 226.762C572.14294 226.762 570.12823 224.74728 570.12823 222.262C570.12823 219.77672 572.14294 217.762 574.62823 217.762C577.1135 217.762 579.12823 219.77672 579.12823 222.262Z" fill-rule="nonzero"/><path fill="#000000" d="M33.05 332.21564Q33.05 330.6844 33.3625 329.7625Q33.675 328.825 34.284374 328.325Q34.909374 327.825 35.846874 327.825Q36.534374 327.825 37.05 328.10626Q37.58125 328.3875 37.925 328.91876Q38.26875 329.4344 38.45625 330.1844Q38.64375 330.9344 38.64375 332.21564Q38.64375 333.73126 38.33125 334.65314Q38.034374 335.575 37.409374 336.09064Q36.8 336.59064 35.846874 336.59064Q34.6125 336.59064 33.89375 335.7Q33.05 334.6375 33.05 332.21564ZM34.128124 332.21564Q34.128124 334.325 34.628124 335.02814Q35.128124 335.73126 35.846874 335.73126Q36.58125 335.73126 37.065624 335.02814Q37.565624 334.325 37.565624 332.21564Q37.565624 330.09064 37.065624 329.40314Q36.58125 328.7 35.83125 328.7Q35.1125 328.7 34.675 329.3094Q34.128124 330.09064 34.128124 332.21564Z" fill-rule="nonzero"/><path fill="#000000" d="M31.596874 264.80106L31.596874 265.81668L25.909374 265.81668Q25.909374 265.44168 26.034374 265.0823Q26.253124 264.50418 26.721874 263.94168Q27.20625 263.37918 28.1125 262.6448Q29.51875 261.48856 30.003124 260.81668Q30.503124 260.1448 30.503124 259.55106Q30.503124 258.92606 30.05 258.50418Q29.596874 258.06668 28.878124 258.06668Q28.1125 258.06668 27.659374 258.5198Q27.20625 258.97293 27.190624 259.78543L26.1125 259.67606Q26.221874 258.4573 26.940624 257.8323Q27.675 257.19168 28.909374 257.19168Q30.14375 257.19168 30.8625 257.87918Q31.58125 258.56668 31.58125 259.5823Q31.58125 260.09793 31.3625 260.59793Q31.159374 261.0823 30.659374 261.6448Q30.175 262.19168 29.05 263.1448Q28.096874 263.94168 27.815624 264.23856Q27.55 264.5198 27.378124 264.80106L31.596874 264.80106ZM33.05 263.56668L34.159374 263.47293Q34.284374 264.28543 34.721874 264.69168Q35.175 265.09793 35.815624 265.09793Q36.565624 265.09793 37.096874 264.5198Q37.628124 263.94168 37.628124 263.00418Q37.628124 262.09793 37.1125 261.5823Q36.6125 261.05106 35.784374 261.05106Q35.284374 261.05106 34.8625 261.28543Q34.45625 261.5198 34.221874 261.87918L33.2375 261.75418L34.065624 257.34793L38.346874 257.34793L38.346874 258.34793L34.909374 258.34793L34.45625 260.66043Q35.221874 260.11356 36.065624 260.11356Q37.190624 260.11356 37.95625 260.8948Q38.7375 261.67606 38.7375 262.91043Q38.7375 264.06668 38.065624 264.92606Q37.2375 265.9573 35.815624 265.9573Q34.64375 265.9573 33.89375 265.30106Q33.159374 264.6448 33.05 263.56668Z" fill-rule="nonzero"/><path fill="#000000" d="M26.05 192.93333L27.159374 192.83958Q27.284374 193.65208 27.721874 194.05833Q28.175 194.46458 28.815624 194.46458Q29.565624 194.46458 30.096874 193.88646Q30.628124 193.30833 30.628124 192.37083Q30.628124 191.46458 30.1125 190.94896Q29.6125 190.41771 28.784374 190.41771Q28.284374 190.41771 27.8625 190.65208Q27.45625 190.88646 27.221874 191.24583L26.2375 191.12083L27.065624 186.71458L31.346874 186.71458L31.346874 187.71458L27.909374 187.71458L27.45625 190.02708Q28.221874 189.48021 29.065624 189.48021Q30.190624 189.48021 30.95625 190.26146Q31.7375 191.04271 31.7375 192.27708Q31.7375 193.43333 31.065624 194.29271Q30.2375 195.32396 28.815624 195.32396Q27.64375 195.32396 26.89375 194.66771Q26.159374 194.01146 26.05 192.93333ZM33.05 190.94896Q33.05 189.41771 33.3625 188.49583Q33.675 187.55833 34.284374 187.05833Q34.909374 186.55833 35.846874 186.55833Q36.534374 186.55833 37.05 186.83958Q37.58125 187.12083 37.925 187.65208Q38.26875 188.16771 38.45625 188.91771Q38.64375 189.66771 38.64375 190.94896Q38.64375 192.46458 38.33125 193.38646Q38.034374 194.30833 37.409374 194.82396Q36.8 195.32396 35.846874 195.32396Q34.6125 195.32396 33.89375 194.43333Q33.05 193.37083 33.05 190.94896ZM34.128124 190.94896Q34.128124 193.05833 34.628124 193.76146Q35.128124 194.46458 35.846874 194.46458Q36.58125 194.46458 37.065624 193.76146Q37.565624 193.05833 37.565624 190.94896Q37.565624 188.82396 37.065624 188.13646Q36.58125 187.43333 35.83125 187.43333Q35.1125 187.43333 34.675 188.04271Q34.128124 188.82396 34.128124 190.94896Z" fill-rule="nonzero"/><path fill="#000000" d="M26.1125 117.08125L26.1125 116.06563L31.675 116.06563L31.675 116.89375Q30.8625 117.76875 30.05 119.22188Q29.253124 120.65938 28.815624 122.19063Q28.4875 123.26875 28.409374 124.55L27.315624 124.55Q27.33125 123.53438 27.70625 122.09688Q28.096874 120.65938 28.8 119.33125Q29.51875 118.00313 30.33125 117.08125L26.1125 117.08125ZM33.05 122.3L34.159374 122.20625Q34.284374 123.01875 34.721874 123.425Q35.175 123.83125 35.815624 123.83125Q36.565624 123.83125 37.096874 123.25313Q37.628124 122.675 37.628124 121.7375Q37.628124 120.83125 37.1125 120.31563Q36.6125 119.78438 35.784374 119.78438Q35.284374 119.78438 34.8625 120.01875Q34.45625 120.25313 34.221874 120.6125L33.2375 120.4875L34.065624 116.08125L38.346874 116.08125L38.346874 117.08125L34.909374 117.08125L34.45625 119.39375Q35.221874 118.84688 36.065624 118.84688Q37.190624 118.84688 37.95625 119.62813Q38.7375 120.40938 38.7375 121.64375Q38.7375 122.8 38.065624 123.65938Q37.2375 124.69063 35.815624 124.69063Q34.64375 124.69063 33.89375 124.03438Q33.159374 123.37813 33.05 122.3Z" fill-rule="nonzero"/><path fill="#000000" d="M23.01875 53.916668L21.971874 53.916668L21.971874 47.197918Q21.58125 47.557293 20.95625 47.932293Q20.346874 48.291668 19.8625 48.463543L19.8625 47.447918Q20.7375 47.026043 21.39375 46.447918Q22.065624 45.854168 22.346874 45.291668L23.01875 45.291668L23.01875 53.916668ZM26.05 49.682293Q26.05 48.151043 26.3625 47.229168Q26.675 46.291668 27.284374 45.791668Q27.909374 45.291668 28.846874 45.291668Q29.534374 45.291668 30.05 45.572918Q30.58125 45.854168 30.925 46.385418Q31.26875 46.901043 31.45625 47.651043Q31.64375 48.401043 31.64375 49.682293Q31.64375 51.197918 31.33125 52.119793Q31.034374 53.041668 30.409374 53.557293Q29.8 54.057293 28.846874 54.057293Q27.6125 54.057293 26.89375 53.166668Q26.05 52.104168 26.05 49.682293ZM27.128124 49.682293Q27.128124 51.791668 27.628124 52.494793Q28.128124 53.197918 28.846874 53.197918Q29.58125 53.197918 30.065624 52.494793Q30.565624 51.791668 30.565624 49.682293Q30.565624 47.557293 30.065624 46.869793Q29.58125 46.166668 28.83125 46.166668Q28.1125 46.166668 27.675 46.776043Q27.128124 47.557293 27.128124 49.682293ZM33.05 49.682293Q33.05 48.151043 33.3625 47.229168Q33.675 46.291668 34.284374 45.791668Q34.909374 45.291668 35.846874 45.291668Q36.534374 45.291668 37.05 45.572918Q37.58125 45.854168 37.925 46.385418Q38.26875 46.901043 38.45625 47.651043Q38.64375 48.401043 38.64375 49.682293Q38.64375 51.197918 38.33125 52.119793Q38.034374 53.041668 37.409374 53.557293Q36.8 54.057293 35.846874 54.057293Q34.6125 54.057293 33.89375 53.166668Q33.05 52.104168 33.05 49.682293ZM34.128124 49.682293Q34.128124 51.791668 34.628124 52.494793Q35.128124 53.197918 35.846874 53.197918Q36.58125 53.197918 37.065624 52.494793Q37.565624 51.791668 37.565624 49.682293Q37.565624 47.557293 37.065624 46.869793Q36.58125 46.166668 35.83125 46.166668Q35.1125 46.166668 34.675 46.776043Q34.128124 47.557293 34.128124 49.682293Z" fill-rule="nonzero"/><path fill="#000000" d="M145.76518 349.45L144.7183 349.45L144.7183 342.73126Q144.32768 343.09064 143.70268 343.46564Q143.0933 343.825 142.60893 343.9969L142.60893 342.98126Q143.48393 342.5594 144.14018 341.98126Q144.81206 341.3875 145.0933 340.825L145.76518 340.825L145.76518 349.45ZM148.79643 345.21564Q148.79643 343.6844 149.10893 342.7625Q149.42143 341.825 150.0308 341.325Q150.6558 340.825 151.5933 340.825Q152.2808 340.825 152.79643 341.10626Q153.32768 341.3875 153.67143 341.91876Q154.01518 342.4344 154.20268 343.1844Q154.39018 343.9344 154.39018 345.21564Q154.39018 346.73126 154.07768 347.65314Q153.7808 348.575 153.1558 349.09064Q152.54643 349.59064 151.5933 349.59064Q150.35893 349.59064 149.64018 348.7Q148.79643 347.6375 148.79643 345.21564ZM149.87456 345.21564Q149.87456 347.325 150.37456 348.02814Q150.87456 348.73126 151.5933 348.73126Q152.32768 348.73126 152.81206 348.02814Q153.31206 347.325 153.31206 345.21564Q153.31206 343.09064 152.81206 342.40314Q152.32768 341.7 151.57768 341.7Q150.85893 341.7 150.42143 342.3094Q149.87456 343.09064 149.87456 345.21564Z" fill-rule="nonzero"/><path fill="#000000" d="M253.92625 348.4344L253.92625 349.45L248.23875 349.45Q248.23875 349.075 248.36375 348.71564Q248.5825 348.1375 249.05125 347.575Q249.53563 347.0125 250.44188 346.27814Q251.84813 345.1219 252.3325 344.45Q252.8325 343.77814 252.8325 343.1844Q252.8325 342.5594 252.37938 342.1375Q251.92625 341.7 251.2075 341.7Q250.44188 341.7 249.98875 342.15314Q249.53563 342.60626 249.52 343.41876L248.44188 343.3094Q248.55125 342.09064 249.27 341.46564Q250.00438 340.825 251.23875 340.825Q252.47313 340.825 253.19188 341.5125Q253.91063 342.2 253.91063 343.21564Q253.91063 343.73126 253.69188 344.23126Q253.48875 344.71564 252.98875 345.27814Q252.50438 345.825 251.37938 346.77814Q250.42625 347.575 250.145 347.8719Q249.87938 348.15314 249.7075 348.4344L253.92625 348.4344ZM255.37938 345.21564Q255.37938 343.6844 255.69188 342.7625Q256.0044 341.825 256.61377 341.325Q257.23877 340.825 258.17627 340.825Q258.86377 340.825 259.3794 341.10626Q259.91064 341.3875 260.2544 341.91876Q260.59814 342.4344 260.78564 343.1844Q260.97314 343.9344 260.97314 345.21564Q260.97314 346.73126 260.66064 347.65314Q260.36377 348.575 259.73877 349.09064Q259.1294 349.59064 258.17627 349.59064Q256.9419 349.59064 256.22314 348.7Q255.37938 347.6375 255.37938 345.21564ZM256.45752 345.21564Q256.45752 347.325 256.95752 348.02814Q257.45752 348.73126 258.17627 348.73126Q258.91064 348.73126 259.39502 348.02814Q259.89502 347.325 259.89502 345.21564Q259.89502 343.09064 259.39502 342.40314Q258.91064 341.7 258.16064 341.7Q257.4419 341.7 257.0044 342.3094Q256.45752 343.09064 256.45752 345.21564Z" fill-rule="nonzero"/><path fill="#000000" d="M354.9623 347.1844L356.0248 347.04376Q356.1967 347.9344 356.6342 348.34064Q357.0717 348.73126 357.6967 348.73126Q358.4467 348.73126 358.9623 348.21564Q359.47794 347.7 359.47794 346.9344Q359.47794 346.21564 358.99356 345.7469Q358.5248 345.2625 357.79044 345.2625Q357.49356 345.2625 357.04044 345.3875L357.16544 344.45Q357.2748 344.46564 357.3373 344.46564Q358.0092 344.46564 358.54044 344.1219Q359.0873 343.7625 359.0873 343.02814Q359.0873 342.45 358.6967 342.075Q358.30606 341.6844 357.68106 341.6844Q357.0717 341.6844 356.6498 342.075Q356.24356 342.46564 356.1342 343.23126L355.0717 343.04376Q355.2592 341.9969 355.9467 341.41876Q356.6342 340.825 357.6498 340.825Q358.35294 340.825 358.9467 341.1375Q359.54044 341.4344 359.85294 341.95Q360.16544 342.46564 360.16544 343.0594Q360.16544 343.60626 359.86856 344.075Q359.5717 344.52814 358.99356 344.79376Q359.74356 344.96564 360.16544 345.52814Q360.5873 346.075 360.5873 346.91876Q360.5873 348.04376 359.7592 348.825Q358.9467 349.60626 357.6967 349.60626Q356.5717 349.60626 355.8217 348.9344Q355.0717 348.2469 354.9623 347.1844ZM361.9623 345.21564Q361.9623 343.6844 362.2748 342.7625Q362.5873 341.825 363.1967 341.325Q363.8217 340.825 364.7592 340.825Q365.4467 340.825 365.9623 341.10626Q366.49356 341.3875 366.8373 341.91876Q367.18106 342.4344 367.36856 343.1844Q367.55606 343.9344 367.55606 345.21564Q367.55606 346.73126 367.24356 347.65314Q366.9467 348.575 366.3217 349.09064Q365.7123 349.59064 364.7592 349.59064Q363.5248 349.59064 362.80606 348.7Q361.9623 347.6375 361.9623 345.21564ZM363.04044 345.21564Q363.04044 347.325 363.54044 348.02814Q364.04044 348.73126 364.7592 348.73126Q365.49356 348.73126 365.97794 348.02814Q366.47794 347.325 366.47794 345.21564Q366.47794 343.09064 365.97794 342.40314Q365.49356 341.7 364.74356 341.7Q364.0248 341.7 363.5873 342.3094Q363.04044 343.09064 363.04044 345.21564Z" fill-rule="nonzero"/><path fill="#000000" d="M464.92026 349.45L464.92026 347.3875L461.2015 347.3875L461.2015 346.41876L465.12338 340.85626L465.98276 340.85626L465.98276 346.41876L467.139 346.41876L467.139 347.3875L465.98276 347.3875L465.98276 349.45L464.92026 349.45ZM464.92026 346.41876L464.92026 342.5594L462.23276 346.41876L464.92026 346.41876ZM468.54526 345.21564Q468.54526 343.6844 468.85776 342.7625Q469.17026 341.825 469.77963 341.325Q470.40463 340.825 471.34213 340.825Q472.02963 340.825 472.54526 341.10626Q473.0765 341.3875 473.42026 341.91876Q473.764 342.4344 473.9515 343.1844Q474.139 343.9344 474.139 345.21564Q474.139 346.73126 473.8265 347.65314Q473.52963 348.575 472.90463 349.09064Q472.29526 349.59064 471.34213 349.59064Q470.10776 349.59064 469.389 348.7Q468.54526 347.6375 468.54526 345.21564ZM469.62338 345.21564Q469.62338 347.325 470.12338 348.02814Q470.62338 348.73126 471.34213 348.73126Q472.0765 348.73126 472.56088 348.02814Q473.06088 347.325 473.06088 345.21564Q473.06088 343.09064 472.56088 342.40314Q472.0765 341.7 471.3265 341.7Q470.60776 341.7 470.17026 342.3094Q469.62338 343.09064 469.62338 345.21564Z" fill-rule="nonzero"/><path fill="#000000" d="M568.12823 347.2L569.2376 347.10626Q569.3626 347.91876 569.8001 348.325Q570.25323 348.73126 570.89386 348.73126Q571.64386 348.73126 572.1751 348.15314Q572.70636 347.575 572.70636 346.6375Q572.70636 345.73126 572.19073 345.21564Q571.69073 344.6844 570.8626 344.6844Q570.3626 344.6844 569.94073 344.91876Q569.5345 345.15314 569.3001 345.5125L568.31573 345.3875L569.14386 340.98126L573.4251 340.98126L573.4251 341.98126L569.9876 341.98126L569.5345 344.29376Q570.3001 343.7469 571.14386 343.7469Q572.26886 343.7469 573.0345 344.52814Q573.81573 345.3094 573.81573 346.54376Q573.81573 347.7 573.14386 348.5594Q572.31573 349.59064 570.89386 349.59064Q569.722 349.59064 568.972 348.9344Q568.2376 348.27814 568.12823 347.2ZM575.12823 345.21564Q575.12823 343.6844 575.44073 342.7625Q575.75323 341.825 576.3626 341.325Q576.9876 340.825 577.9251 340.825Q578.6126 340.825 579.12823 341.10626Q579.6595 341.3875 580.00323 341.91876Q580.347 342.4344 580.5345 343.1844Q580.722 343.9344 580.722 345.21564Q580.722 346.73126 580.4095 347.65314Q580.1126 348.575 579.4876 349.09064Q578.87823 349.59064 577.9251 349.59064Q576.69073 349.59064 575.972 348.7Q575.12823 347.6375 575.12823 345.21564ZM576.20636 345.21564Q576.20636 347.325 576.70636 348.02814Q577.20636 348.73126 577.9251 348.73126Q578.6595 348.73126 579.14386 348.02814Q579.64386 347.325 579.64386 345.21564Q579.64386 343.09064 579.14386 342.40314Q578.6595 341.7 577.9095 341.7Q577.19073 341.7 576.75323 342.3094Q576.20636 343.09064 576.20636 345.21564Z" fill-rule="nonzero"/><path fill="#4285f4" d="M292.0 24.55C292.0 27.863708 289.31372 30.55 286.0 30.55C282.68628 30.55 280.0 27.863708 280.0 24.55C280.0 21.236292 282.68628 18.55 286.0 18.55C289.31372 18.55 292.0 21.236292 292.0 24.55Z" fill-rule="nonzero"/><path fill="#ea4335" d="M320.0 24.55C320.0 27.863708 317.31372 30.55 314.0 30.55C310.68628 30.55 308.0 27.863708 308.0 24.55C308.0 21.236292 310.68628 18.55 314.0 18.55C317.31372 18.55 320.0 21.236292 320.0 24.55Z" fill-rule="nonzero"/></svg>