<svg version="1.1" viewBox="0.0 0.0 600.0 371.0" fill="none" stroke="none" stroke-linecap="square" stroke-miterlimit="10" width="600" height="371" xmlns:xlink="http://www.w3.org/1999/xlink" xmlns="http://www.w3.org/2000/svg"><path fill="#ffffff" d="M0 0L600.0 0L600.0 371.0L0 371.0L0 0Z" fill-rule="nonzero"/><path stroke="#cccccc" stroke-width="1.0" stroke-linecap="butt" d="M174.5 88.5L174.5 300.5" fill-rule="nonzero"/><path stroke="#cccccc" stroke-width="1.0" stroke-linecap="butt" d="M274.5 88.5L274.5 300.5" fill-rule="nonzero"/><path stroke="#cccccc" stroke-width="1.0" stroke-linecap="butt" d="M374.5 88.5L374.5 300.5" fill-rule="nonzero"/><path stroke="#cccccc" stroke-width="1.0" stroke-linecap="butt" d="M474.5 88.5L474.5 300.5" fill-rule="nonzero"/><path stroke="#cccccc" stroke-width="1.0" stroke-linecap="butt" d="M574.5 88.5L574.5 300.5" fill-rule="nonzero"/><path stroke="#333333" stroke-width="1.0" stroke-linecap="butt" d="M77.5 300.5L581.5 300.5" fill-rule="nonzero"/><path stroke="#cccccc" stroke-width="1.0" stroke-linecap="butt" d="M77.5 247.5L581.5 247.5" fill-rule="nonzero"/><path stroke="#cccccc" stroke-width="1.0" stroke-linecap="butt" d="M77.5 194.5L581.5 194.5" fill-rule="nonzero"/><path stroke="#cccccc" stroke-width="1.0" stroke-linecap="butt" d="M77.5 141.5L581.5 141.5" fill-rule="nonzero"/><path stroke="#cccccc" stroke-width="1.0" stroke-linecap="butt" d="M77.5 88.5L581.5 88.5" fill-rule="nonzero"/><clipPath id="id_0"><path d="M77.55 88.28333L581.45 88.28333L581.45 300.45L77.55 300.45L77.55 88.28333Z" clip-rule="nonzero"/></clipPath><path stroke="#4285f4" stroke-width="2.0" stroke-linecap="butt" clip-path="url(#id_0)" d="M0 224.65724L581.45 183.03618" fill-rule="nonzero"/><path stroke="#ea4335" stroke-width="2.0" stroke-linecap="butt" clip-path="url(#id_0)" d="M0 194.90224L581.45 209.75676" fill-rule="nonzero"/><path fill="#4285f4" clip-path="url(#id_0)" d="M88.86077 221.94833C88.86077 224.43361 86.846054 226.44833 84.36077 226.44833C81.875496 226.44833 79.86077 224.43361 79.86077 221.94833C79.86077 219.46306 81.875496 217.44833 84.36077 217.44833C86.846054 217.44833 88.86077 219.46306 88.86077 221.94833Z" fill-rule="nonzero"/><path fill="#4285f4" clip-path="url(#id_0)" d="M98.866455 285.59833C98.866455 288.08362 96.85174 290.09833 94.366455 290.09833C91.88117 290.09833 89.866455 288.08362 89.866455 285.59833C89.866455 283.11304 91.88117 281.09833 94.366455 281.09833C96.85174 281.09833 98.866455 283.11304 98.866455 285.59833Z" fill-rule="nonzero"/><path fill="#4285f4" clip-path="url(#id_0)" d="M108.87214 245.28667C108.87214 247.77194 106.85742 249.78667 104.37214 249.78667C101.886856 249.78667 99.87214 247.77194 99.87214 245.28667C99.87214 242.80139 101.886856 240.78667 104.37214 240.78667C106.85742 240.78667 108.87214 242.80139 108.87214 245.28667Z" fill-rule="nonzero"/><path fill="#4285f4" clip-path="url(#id_0)" d="M118.87782 243.165C118.87782 245.65028 116.863106 247.665 114.37782 247.665C111.89254 247.665 109.87782 245.65028 109.87782 243.165C109.87782 240.67972 111.89254 238.665 114.37782 238.665C116.863106 238.665 118.87782 240.67972 118.87782 243.165Z" fill-rule="nonzero"/><path fill="#4285f4" clip-path="url(#id_0)" d="M128.8835 107.378334C128.8835 109.86362 126.86879 111.878334 124.38351 111.878334C121.898224 111.878334 119.88351 109.86362 119.88351 107.378334C119.88351 104.89305 121.898224 102.878334 124.38351 102.878334C126.86879 102.878334 128.8835 104.89305 128.8835 107.378334Z" fill-rule="nonzero"/><path fill="#4285f4" clip-path="url(#id_0)" d="M138.88919 137.08167C138.88919 139.56696 136.87447 141.58167 134.38919 141.58167C131.9039 141.58167 129.88919 139.56696 129.88919 137.08167C129.88919 134.59639 131.9039 132.58167 134.38919 132.58167C136.87447 132.58167 138.88919 134.59639 138.88919 137.08167Z" fill-rule="nonzero"/><path fill="#4285f4" clip-path="url(#id_0)" d="M148.89487 177.39333C148.89487 179.87862 146.88016 181.89333 144.39487 181.89333C141.90959 181.89333 139.89487 179.87862 139.89487 177.39333C139.89487 174.90805 141.90959 172.89333 144.39487 172.89333C146.88016 172.89333 148.89487 174.90805 148.89487 177.39333Z" fill-rule="nonzero"/><path fill="#4285f4" clip-path="url(#id_0)" d="M158.90056 115.865C158.90056 118.35028 156.88583 120.365 154.40056 120.365C151.91527 120.365 149.90056 118.35028 149.90056 115.865C149.90056 113.379715 151.91527 111.365 154.40056 111.365C156.88583 111.365 158.90056 113.379715 158.90056 115.865Z" fill-rule="nonzero"/><path fill="#4285f4" clip-path="url(#id_0)" d="M168.90623 177.39333C168.90623 179.87862 166.89151 181.89333 164.40623 181.89333C161.92096 181.89333 159.90623 179.87862 159.90623 177.39333C159.90623 174.90805 161.92096 172.89333 164.40623 172.89333C166.89151 172.89333 168.90623 174.90805 168.90623 177.39333Z" fill-rule="nonzero"/><path fill="#4285f4" clip-path="url(#id_0)" d="M178.91191 272.86835C178.91191 275.3536 176.8972 277.36835 174.41191 277.36835C171.92664 277.36835 169.91191 275.3536 169.91191 272.86835C169.91191 270.38306 171.92664 268.36835 174.41191 268.36835C176.8972 268.36835 178.91191 270.38306 178.91191 272.86835Z" fill-rule="nonzero"/><path fill="#4285f4" clip-path="url(#id_0)" d="M188.9176 168.90666C188.9176 171.39195 186.90288 173.40666 184.4176 173.40666C181.93233 173.40666 179.9176 171.39195 179.9176 168.90666C179.9176 166.42139 181.93233 164.40666 184.4176 164.40666C186.90288 164.40666 188.9176 166.42139 188.9176 168.90666Z" fill-rule="nonzero"/><path fill="#4285f4" clip-path="url(#id_0)" d="M198.92328 107.378334C198.92328 109.86362 196.90857 111.878334 194.42328 111.878334C191.938 111.878334 189.92328 109.86362 189.92328 107.378334C189.92328 104.89305 191.938 102.878334 194.42328 102.878334C196.90857 102.878334 198.92328 104.89305 198.92328 107.378334Z" fill-rule="nonzero"/><path fill="#4285f4" clip-path="url(#id_0)" d="M208.92897 262.26C208.92897 264.74527 206.91425 266.76 204.42897 266.76C201.94368 266.76 199.92897 264.74527 199.92897 262.26C199.92897 259.77472 201.94368 257.76 204.42897 257.76C206.91425 257.76 208.92897 259.77472 208.92897 262.26Z" fill-rule="nonzero"/><path fill="#4285f4" clip-path="url(#id_0)" d="M218.93465 262.26C218.93465 264.74527 216.91994 266.76 214.43465 266.76C211.94937 266.76 209.93465 264.74527 209.93465 262.26C209.93465 259.77472 211.94937 257.76 214.43465 257.76C216.91994 257.76 218.93465 259.77472 218.93465 262.26Z" fill-rule="nonzero"/><path fill="#4285f4" clip-path="url(#id_0)" d="M228.94034 251.65167C228.94034 254.13695 226.92561 256.15167 224.44034 256.15167C221.95505 256.15167 219.94034 254.13695 219.94034 251.65167C219.94034 249.16638 221.95505 247.15167 224.44034 247.15167C226.92561 247.15167 228.94034 249.16638 228.94034 251.65167Z" fill-rule="nonzero"/><path fill="#4285f4" clip-path="url(#id_0)" d="M238.94601 171.02834C238.94601 173.51361 236.93129 175.52834 234.44601 175.52834C231.96074 175.52834 229.94601 173.51361 229.94601 171.02834C229.94601 168.54305 231.96074 166.52834 234.44601 166.52834C236.93129 166.52834 238.94601 168.54305 238.94601 171.02834Z" fill-rule="nonzero"/><path fill="#4285f4" clip-path="url(#id_0)" d="M248.95169 109.5C248.95169 111.98528 246.93698 114.0 244.45169 114.0C241.96642 114.0 239.95169 111.98528 239.95169 109.5C239.95169 107.01472 241.96642 105.0 244.45169 105.0C246.93698 105.0 248.95169 107.01472 248.95169 109.5Z" fill-rule="nonzero"/><path fill="#4285f4" clip-path="url(#id_0)" d="M258.95737 245.28667C258.95737 247.77194 256.94266 249.78667 254.45738 249.78667C251.97209 249.78667 249.95738 247.77194 249.95738 245.28667C249.95738 242.80139 251.97209 240.78667 254.45738 240.78667C256.94266 240.78667 258.95737 242.80139 258.95737 245.28667Z" fill-rule="nonzero"/><path fill="#4285f4" clip-path="url(#id_0)" d="M268.96307 296.20667C268.96307 298.69196 266.94833 300.70667 264.46307 300.70667C261.97778 300.70667 259.96307 298.69196 259.96307 296.20667C259.96307 293.72137 261.97778 291.70667 264.46307 291.70667C266.94833 291.70667 268.96307 293.72137 268.96307 296.20667Z" fill-rule="nonzero"/><path fill="#4285f4" clip-path="url(#id_0)" d="M278.96875 185.88C278.96875 188.36528 276.95404 190.38 274.46875 190.38C271.98346 190.38 269.96875 188.36528 269.96875 185.88C269.96875 183.39471 271.98346 181.38 274.46875 181.38C276.95404 181.38 278.96875 183.39471 278.96875 185.88Z" fill-rule="nonzero"/><path fill="#4285f4" clip-path="url(#id_0)" d="M288.97443 243.165C288.97443 245.65028 286.95972 247.665 284.47443 247.665C281.98914 247.665 279.97443 245.65028 279.97443 243.165C279.97443 240.67972 281.98914 238.665 284.47443 238.665C286.95972 238.665 288.97443 240.67972 288.97443 243.165Z" fill-rule="nonzero"/><path fill="#4285f4" clip-path="url(#id_0)" d="M298.9801 236.8C298.9801 239.28528 296.9654 241.3 294.4801 241.3C291.99484 241.3 289.9801 239.28528 289.9801 236.8C289.9801 234.31471 291.99484 232.3 294.4801 232.3C296.9654 232.3 298.9801 234.31471 298.9801 236.8Z" fill-rule="nonzero"/><path fill="#4285f4" clip-path="url(#id_0)" d="M308.98578 190.12334C308.98578 192.60861 306.97107 194.62334 304.48578 194.62334C302.00052 194.62334 299.98578 192.60861 299.98578 190.12334C299.98578 187.63805 302.00052 185.62334 304.48578 185.62334C306.97107 185.62334 308.98578 187.63805 308.98578 190.12334Z" fill-rule="nonzero"/><path fill="#4285f4" clip-path="url(#id_0)" d="M318.9915 217.705C318.9915 220.19028 316.97675 222.205 314.4915 222.205C312.0062 222.205 309.9915 220.19028 309.9915 217.705C309.9915 215.21971 312.0062 213.205 314.4915 213.205C316.97675 213.205 318.9915 215.21971 318.9915 217.705Z" fill-rule="nonzero"/><path fill="#4285f4" clip-path="url(#id_0)" d="M328.99716 294.085C328.99716 296.57028 326.98245 298.585 324.49716 298.585C322.01187 298.585 319.99716 296.57028 319.99716 294.085C319.99716 291.59973 322.01187 289.585 324.49716 289.585C326.98245 289.585 328.99716 291.59973 328.99716 294.085Z" fill-rule="nonzero"/><path fill="#4285f4" clip-path="url(#id_0)" d="M339.00284 221.94833C339.00284 224.43361 336.98813 226.44833 334.50284 226.44833C332.01755 226.44833 330.00284 224.43361 330.00284 221.94833C330.00284 219.46306 332.01755 217.44833 334.50284 217.44833C336.98813 217.44833 339.00284 219.46306 339.00284 221.94833Z" fill-rule="nonzero"/><path fill="#4285f4" clip-path="url(#id_0)" d="M349.0085 232.55667C349.0085 235.04195 346.9938 237.05667 344.5085 237.05667C342.02325 237.05667 340.0085 235.04195 340.0085 232.55667C340.0085 230.07138 342.02325 228.05667 344.5085 228.05667C346.9938 228.05667 349.0085 230.07138 349.0085 232.55667Z" fill-rule="nonzero"/><path fill="#4285f4" clip-path="url(#id_0)" d="M359.01422 209.21834C359.01422 211.70361 356.99948 213.71834 354.51422 213.71834C352.02893 213.71834 350.01422 211.70361 350.01422 209.21834C350.01422 206.73305 352.02893 204.71834 354.51422 204.71834C356.99948 204.71834 359.01422 206.73305 359.01422 209.21834Z" fill-rule="nonzero"/><path fill="#4285f4" clip-path="url(#id_0)" d="M369.0199 241.04333C369.0199 243.52861 367.00516 245.54333 364.5199 245.54333C362.0346 245.54333 360.0199 243.52861 360.0199 241.04333C360.0199 238.55804 362.0346 236.54333 364.5199 236.54333C367.00516 236.54333 369.0199 238.55804 369.0199 241.04333Z" fill-rule="nonzero"/><path fill="#4285f4" clip-path="url(#id_0)" d="M379.02557 287.72C379.02557 290.2053 377.01086 292.22 374.52557 292.22C372.04028 292.22 370.02557 290.2053 370.02557 287.72C370.02557 285.2347 372.04028 283.22 374.52557 283.22C377.01086 283.22 379.02557 285.2347 379.02557 287.72Z" fill-rule="nonzero"/><path fill="#4285f4" clip-path="url(#id_0)" d="M389.03125 194.36667C389.03125 196.85194 387.01654 198.86667 384.53125 198.86667C382.04596 198.86667 380.03125 196.85194 380.03125 194.36667C380.03125 191.88138 382.04596 189.86667 384.53125 189.86667C387.01654 189.86667 389.03125 191.88138 389.03125 194.36667Z" fill-rule="nonzero"/><path fill="#4285f4" clip-path="url(#id_0)" d="M399.03693 194.36667C399.03693 196.85194 397.02222 198.86667 394.53693 198.86667C392.05167 198.86667 390.03693 196.85194 390.03693 194.36667C390.03693 191.88138 392.05167 189.86667 394.53693 189.86667C397.02222 189.86667 399.03693 191.88138 399.03693 194.36667Z" fill-rule="nonzero"/><path fill="#4285f4" clip-path="url(#id_0)" d="M409.04263 149.81166C409.04263 152.29695 407.0279 154.31166 404.54263 154.31166C402.05734 154.31166 400.04263 152.29695 400.04263 149.81166C400.04263 147.32639 402.05734 145.31166 404.54263 145.31166C407.0279 145.31166 409.04263 147.32639 409.04263 149.81166Z" fill-rule="nonzero"/><path fill="#4285f4" clip-path="url(#id_0)" d="M419.0483 204.975C419.0483 207.46028 417.03357 209.475 414.5483 209.475C412.06302 209.475 410.0483 207.46028 410.0483 204.975C410.0483 202.48972 412.06302 200.475 414.5483 200.475C417.03357 200.475 419.0483 202.48972 419.0483 204.975Z" fill-rule="nonzero"/><path fill="#4285f4" clip-path="url(#id_0)" d="M429.054 221.94833C429.054 224.43361 427.03928 226.44833 424.554 226.44833C422.0687 226.44833 420.054 224.43361 420.054 221.94833C420.054 219.46306 422.0687 217.44833 424.554 217.44833C427.03928 217.44833 429.054 219.46306 429.054 221.94833Z" fill-rule="nonzero"/><path fill="#4285f4" clip-path="url(#id_0)" d="M439.05966 260.13834C439.05966 262.62363 437.04495 264.63834 434.55966 264.63834C432.0744 264.63834 430.05966 262.62363 430.05966 260.13834C430.05966 257.65305 432.0744 255.63834 434.55966 255.63834C437.04495 255.63834 439.05966 257.65305 439.05966 260.13834Z" fill-rule="nonzero"/><path fill="#4285f4" clip-path="url(#id_0)" d="M449.06534 122.23C449.06534 124.71528 447.05063 126.73 444.56534 126.73C442.08008 126.73 440.06534 124.71528 440.06534 122.23C440.06534 119.74472 442.08008 117.73 444.56534 117.73C447.05063 117.73 449.06534 119.74472 449.06534 122.23Z" fill-rule="nonzero"/><path fill="#4285f4" clip-path="url(#id_0)" d="M459.07104 171.02834C459.07104 173.51361 457.0563 175.52834 454.57104 175.52834C452.08575 175.52834 450.07104 173.51361 450.07104 171.02834C450.07104 168.54305 452.08575 166.52834 454.57104 166.52834C457.0563 166.52834 459.07104 168.54305 459.07104 171.02834Z" fill-rule="nonzero"/><path fill="#4285f4" clip-path="url(#id_0)" d="M469.07672 202.85333C469.07672 205.33861 467.062 207.35333 464.57672 207.35333C462.09143 207.35333 460.07672 205.33861 460.07672 202.85333C460.07672 200.36806 462.09143 198.35333 464.57672 198.35333C467.062 198.35333 469.07672 200.36806 469.07672 202.85333Z" fill-rule="nonzero"/><path fill="#4285f4" clip-path="url(#id_0)" d="M479.0824 192.245C479.0824 194.73029 477.0677 196.745 474.5824 196.745C472.0971 196.745 470.0824 194.73029 470.0824 192.245C470.0824 189.75972 472.0971 187.745 474.5824 187.745C477.0677 187.745 479.0824 189.75972 479.0824 192.245Z" fill-rule="nonzero"/><path fill="#4285f4" clip-path="url(#id_0)" d="M489.08807 217.705C489.08807 220.19028 487.07336 222.205 484.58807 222.205C482.1028 222.205 480.08807 220.19028 480.08807 217.705C480.08807 215.21971 482.1028 213.205 484.58807 213.205C487.07336 213.205 489.08807 215.21971 489.08807 217.705Z" fill-rule="nonzero"/><path fill="#4285f4" clip-path="url(#id_0)" d="M499.09375 98.89167C499.09375 101.376945 497.07904 103.39167 494.59375 103.39167C492.1085 103.39167 490.09375 101.376945 490.09375 98.89167C490.09375 96.40639 492.1085 94.39167 494.59375 94.39167C497.07904 94.39167 499.09375 96.40639 499.09375 98.89167Z" fill-rule="nonzero"/><path fill="#4285f4" clip-path="url(#id_0)" d="M509.09946 266.50333C509.09946 268.98862 507.08472 271.00333 504.59946 271.00333C502.11417 271.00333 500.09946 268.98862 500.09946 266.50333C500.09946 264.01807 502.11417 262.00333 504.59946 262.00333C507.08472 262.00333 509.09946 264.01807 509.09946 266.50333Z" fill-rule="nonzero"/><path fill="#4285f4" clip-path="url(#id_0)" d="M519.1051 243.165C519.1051 245.65028 517.0904 247.665 514.6051 247.665C512.1199 247.665 510.10513 245.65028 510.10513 243.165C510.10513 240.67972 512.1199 238.665 514.6051 238.665C517.0904 238.665 519.1051 240.67972 519.1051 243.165Z" fill-rule="nonzero"/><path fill="#4285f4" clip-path="url(#id_0)" d="M529.11084 241.04333C529.11084 243.52861 527.09607 245.54333 524.61084 245.54333C522.12555 245.54333 520.11084 243.52861 520.11084 241.04333C520.11084 238.55804 522.12555 236.54333 524.61084 236.54333C527.09607 236.54333 529.11084 238.55804 529.11084 241.04333Z" fill-rule="nonzero"/><path fill="#4285f4" clip-path="url(#id_0)" d="M539.1165 111.621666C539.1165 114.10695 537.1018 116.121666 534.6165 116.121666C532.1312 116.121666 530.1165 114.10695 530.1165 111.621666C530.1165 109.13638 532.1312 107.121666 534.6165 107.121666C537.1018 107.121666 539.1165 109.13638 539.1165 111.621666Z" fill-rule="nonzero"/><path fill="#4285f4" clip-path="url(#id_0)" d="M549.1222 185.88C549.1222 188.36528 547.1075 190.38 544.6222 190.38C542.1369 190.38 540.1222 188.36528 540.1222 185.88C540.1222 183.39471 542.1369 181.38 544.6222 181.38C547.1075 181.38 549.1222 183.39471 549.1222 185.88Z" fill-rule="nonzero"/><path fill="#4285f4" clip-path="url(#id_0)" d="M559.12787 92.526665C559.12787 95.01195 557.11316 97.026665 554.62787 97.026665C552.1426 97.026665 550.12787 95.01195 550.12787 92.526665C550.12787 90.04138 552.1426 88.026665 554.62787 88.026665C557.11316 88.026665 559.12787 90.04138 559.12787 92.526665Z" fill-rule="nonzero"/><path fill="#4285f4" clip-path="url(#id_0)" d="M569.13354 92.526665C569.13354 95.01195 567.11884 97.026665 564.63354 97.026665C562.14825 97.026665 560.13354 95.01195 560.13354 92.526665C560.13354 90.04138 562.14825 88.026665 564.63354 88.026665C567.11884 88.026665 569.13354 90.04138 569.13354 92.526665Z" fill-rule="nonzero"/><path fill="#4285f4" clip-path="url(#id_0)" d="M579.1392 171.02834C579.1392 173.51361 577.1245 175.52834 574.6392 175.52834C572.15393 175.52834 570.1392 173.51361 570.1392 171.02834C570.1392 168.54305 572.15393 166.52834 574.6392 166.52834C577.1245 166.52834 579.1392 168.54305 579.1392 171.02834Z" fill-rule="nonzero"/><path fill="#ea4335" clip-path="url(#id_0)" d="M88.86077 247.40834C88.86077 249.89362 86.846054 251.90834 84.36077 251.90834C81.875496 251.90834 79.86077 249.89362 79.86077 247.40834C79.86077 244.92305 81.875496 242.90834 84.36077 242.90834C86.846054 242.90834 88.86077 244.92305 88.86077 247.40834Z" fill-rule="nonzero"/><path fill="#ea4335" clip-path="url(#id_0)" d="M98.866455 113.74333C98.866455 116.228615 96.85174 118.24333 94.366455 118.24333C91.88117 118.24333 89.866455 116.228615 89.866455 113.74333C89.866455 111.25805 91.88117 109.24333 94.366455 109.24333C96.85174 109.24333 98.866455 111.25805 98.866455 113.74333Z" fill-rule="nonzero"/><path fill="#ea4335" clip-path="url(#id_0)" d="M108.87214 162.54167C108.87214 165.02695 106.85742 167.04167 104.37214 167.04167C101.886856 167.04167 99.87214 165.02695 99.87214 162.54167C99.87214 160.05638 101.886856 158.04167 104.37214 158.04167C106.85742 158.04167 108.87214 160.05638 108.87214 162.54167Z" fill-rule="nonzero"/><path fill="#ea4335" clip-path="url(#id_0)" d="M118.87782 289.84167C118.87782 292.32693 116.863106 294.34167 114.37782 294.34167C111.89254 294.34167 109.87782 292.32693 109.87782 289.84167C109.87782 287.35638 111.89254 285.34167 114.37782 285.34167C116.863106 285.34167 118.87782 287.35638 118.87782 289.84167Z" fill-rule="nonzero"/><path fill="#ea4335" clip-path="url(#id_0)" d="M128.8835 241.04333C128.8835 243.52861 126.86879 245.54333 124.38351 245.54333C121.898224 245.54333 119.88351 243.52861 119.88351 241.04333C119.88351 238.55804 121.898224 236.54333 124.38351 236.54333C126.86879 236.54333 128.8835 238.55804 128.8835 241.04333Z" fill-rule="nonzero"/><path fill="#ea4335" clip-path="url(#id_0)" d="M138.88919 192.245C138.88919 194.73029 136.87447 196.745 134.38919 196.745C131.9039 196.745 129.88919 194.73029 129.88919 192.245C129.88919 189.75972 131.9039 187.745 134.38919 187.745C136.87447 187.745 138.88919 189.75972 138.88919 192.245Z" fill-rule="nonzero"/><path fill="#ea4335" clip-path="url(#id_0)" d="M148.89487 238.92166C148.89487 241.40695 146.88016 243.42166 144.39487 243.42166C141.90959 243.42166 139.89487 241.40695 139.89487 238.92166C139.89487 236.43639 141.90959 234.42166 144.39487 234.42166C146.88016 234.42166 148.89487 236.43639 148.89487 238.92166Z" fill-rule="nonzero"/><path fill="#ea4335" clip-path="url(#id_0)" d="M158.90056 124.35167C158.90056 126.836945 156.88583 128.85167 154.40056 128.85167C151.91527 128.85167 149.90056 126.836945 149.90056 124.35167C149.90056 121.86639 151.91527 119.85167 154.40056 119.85167C156.88583 119.85167 158.90056 121.86639 158.90056 124.35167Z" fill-rule="nonzero"/><path fill="#ea4335" clip-path="url(#id_0)" d="M168.90623 279.23334C168.90623 281.71863 166.89151 283.73334 164.40623 283.73334C161.92096 283.73334 159.90623 281.71863 159.90623 279.23334C159.90623 276.74805 161.92096 274.73334 164.40623 274.73334C166.89151 274.73334 168.90623 276.74805 168.90623 279.23334Z" fill-rule="nonzero"/><path fill="#ea4335" clip-path="url(#id_0)" d="M178.91191 92.526665C178.91191 95.01195 176.8972 97.026665 174.41191 97.026665C171.92664 97.026665 169.91191 95.01195 169.91191 92.526665C169.91191 90.04138 171.92664 88.026665 174.41191 88.026665C176.8972 88.026665 178.91191 90.04138 178.91191 92.526665Z" fill-rule="nonzero"/><path fill="#ea4335" clip-path="url(#id_0)" d="M188.9176 190.12334C188.9176 192.60861 186.90288 194.62334 184.4176 194.62334C181.93233 194.62334 179.9176 192.60861 179.9176 190.12334C179.9176 187.63805 181.93233 185.62334 184.4176 185.62334C186.90288 185.62334 188.9176 187.63805 188.9176 190.12334Z" fill-rule="nonzero"/><path fill="#ea4335" clip-path="url(#id_0)" d="M198.92328 245.28667C198.92328 247.77194 196.90857 249.78667 194.42328 249.78667C191.938 249.78667 189.92328 247.77194 189.92328 245.28667C189.92328 242.80139 191.938 240.78667 194.42328 240.78667C196.90857 240.78667 198.92328 242.80139 198.92328 245.28667Z" fill-rule="nonzero"/><path fill="#ea4335" clip-path="url(#id_0)" d="M208.92897 156.17667C208.92897 158.66194 206.91425 160.67667 204.42897 160.67667C201.94368 160.67667 199.92897 158.66194 199.92897 156.17667C199.92897 153.69139 201.94368 151.67667 204.42897 151.67667C206.91425 151.67667 208.92897 153.69139 208.92897 156.17667Z" fill-rule="nonzero"/><path fill="#ea4335" clip-path="url(#id_0)" d="M218.93465 164.66333C218.93465 167.14862 216.91994 169.16333 214.43465 169.16333C211.94937 169.16333 209.93465 167.14862 209.93465 164.66333C209.93465 162.17805 211.94937 160.16333 214.43465 160.16333C216.91994 160.16333 218.93465 162.17805 218.93465 164.66333Z" fill-rule="nonzero"/><path fill="#ea4335" clip-path="url(#id_0)" d="M228.94034 294.085C228.94034 296.57028 226.92561 298.585 224.44034 298.585C221.95505 298.585 219.94034 296.57028 219.94034 294.085C219.94034 291.59973 221.95505 289.585 224.44034 289.585C226.92561 289.585 228.94034 291.59973 228.94034 294.085Z" fill-rule="nonzero"/><path fill="#ea4335" clip-path="url(#id_0)" d="M238.94601 287.72C238.94601 290.2053 236.93129 292.22 234.44601 292.22C231.96074 292.22 229.94601 290.2053 229.94601 287.72C229.94601 285.2347 231.96074 283.22 234.44601 283.22C236.93129 283.22 238.94601 285.2347 238.94601 287.72Z" fill-rule="nonzero"/><path fill="#ea4335" clip-path="url(#id_0)" d="M248.95169 217.705C248.95169 220.19028 246.93698 222.205 244.45169 222.205C241.96642 222.205 239.95169 220.19028 239.95169 217.705C239.95169 215.21971 241.96642 213.205 244.45169 213.205C246.93698 213.205 248.95169 215.21971 248.95169 217.705Z" fill-rule="nonzero"/><path fill="#ea4335" clip-path="url(#id_0)" d="M258.95737 188.00166C258.95737 190.48695 256.94266 192.50166 254.45738 192.50166C251.97209 192.50166 249.95738 190.48695 249.95738 188.00166C249.95738 185.51639 251.97209 183.50166 254.45738 183.50166C256.94266 183.50166 258.95737 185.51639 258.95737 188.00166Z" fill-rule="nonzero"/><path fill="#ea4335" clip-path="url(#id_0)" d="M268.96307 96.77C268.96307 99.25528 266.94833 101.27 264.46307 101.27C261.97778 101.27 259.96307 99.25528 259.96307 96.77C259.96307 94.28472 261.97778 92.27 264.46307 92.27C266.94833 92.27 268.96307 94.28472 268.96307 96.77Z" fill-rule="nonzero"/><path fill="#ea4335" clip-path="url(#id_0)" d="M278.96875 268.625C278.96875 271.1103 276.95404 273.125 274.46875 273.125C271.98346 273.125 269.96875 271.1103 269.96875 268.625C269.96875 266.1397 271.98346 264.125 274.46875 264.125C276.95404 264.125 278.96875 266.1397 278.96875 268.625Z" fill-rule="nonzero"/><path fill="#ea4335" clip-path="url(#id_0)" d="M288.97443 215.58333C288.97443 218.06862 286.95972 220.08333 284.47443 220.08333C281.98914 220.08333 279.97443 218.06862 279.97443 215.58333C279.97443 213.09805 281.98914 211.08333 284.47443 211.08333C286.95972 211.08333 288.97443 213.09805 288.97443 215.58333Z" fill-rule="nonzero"/><path fill="#ea4335" clip-path="url(#id_0)" d="M298.9801 249.53C298.9801 252.01527 296.9654 254.03 294.4801 254.03C291.99484 254.03 289.9801 252.01527 289.9801 249.53C289.9801 247.04472 291.99484 245.03 294.4801 245.03C296.9654 245.03 298.9801 247.04472 298.9801 249.53Z" fill-rule="nonzero"/><path fill="#ea4335" clip-path="url(#id_0)" d="M308.98578 162.54167C308.98578 165.02695 306.97107 167.04167 304.48578 167.04167C302.00052 167.04167 299.98578 165.02695 299.98578 162.54167C299.98578 160.05638 302.00052 158.04167 304.48578 158.04167C306.97107 158.04167 308.98578 160.05638 308.98578 162.54167Z" fill-rule="nonzero"/><path fill="#ea4335" clip-path="url(#id_0)" d="M318.9915 243.165C318.9915 245.65028 316.97675 247.665 314.4915 247.665C312.0062 247.665 309.9915 245.65028 309.9915 243.165C309.9915 240.67972 312.0062 238.665 314.4915 238.665C316.97675 238.665 318.9915 240.67972 318.9915 243.165Z" fill-rule="nonzero"/><path fill="#ea4335" clip-path="url(#id_0)" d="M328.99716 122.23C328.99716 124.71528 326.98245 126.73 324.49716 126.73C322.01187 126.73 319.99716 124.71528 319.99716 122.23C319.99716 119.74472 322.01187 117.73 324.49716 117.73C326.98245 117.73 328.99716 119.74472 328.99716 122.23Z" fill-rule="nonzero"/><path fill="#ea4335" clip-path="url(#id_0)" d="M339.00284 272.86835C339.00284 275.3536 336.98813 277.36835 334.50284 277.36835C332.01755 277.36835 330.00284 275.3536 330.00284 272.86835C330.00284 270.38306 332.01755 268.36835 334.50284 268.36835C336.98813 268.36835 339.00284 270.38306 339.00284 272.86835Z" fill-rule="nonzero"/><path fill="#ea4335" clip-path="url(#id_0)" d="M349.0085 124.35167C349.0085 126.836945 346.9938 128.85167 344.5085 128.85167C342.02325 128.85167 340.0085 126.836945 340.0085 124.35167C340.0085 121.86639 342.02325 119.85167 344.5085 119.85167C346.9938 119.85167 349.0085 121.86639 349.0085 124.35167Z" fill-rule="nonzero"/><path fill="#ea4335" clip-path="url(#id_0)" d="M359.01422 209.21834C359.01422 211.70361 356.99948 213.71834 354.51422 213.71834C352.02893 213.71834 350.01422 211.70361 350.01422 209.21834C350.01422 206.73305 352.02893 204.71834 354.51422 204.71834C356.99948 204.71834 359.01422 206.73305 359.01422 209.21834Z" fill-rule="nonzero"/><path fill="#ea4335" clip-path="url(#id_0)" d="M369.0199 270.74667C369.0199 273.23193 367.00516 275.24667 364.5199 275.24667C362.0346 275.24667 360.0199 273.23193 360.0199 270.74667C360.0199 268.26138 362.0346 266.24667 364.5199 266.24667C367.00516 266.24667 369.0199 268.26138 369.0199 270.74667Z" fill-rule="nonzero"/><path fill="#ea4335" clip-path="url(#id_0)" d="M379.02557 162.54167C379.02557 165.02695 377.01086 167.04167 374.52557 167.04167C372.04028 167.04167 370.02557 165.02695 370.02557 162.54167C370.02557 160.05638 372.04028 158.04167 374.52557 158.04167C377.01086 158.04167 379.02557 160.05638 379.02557 162.54167Z" fill-rule="nonzero"/><path fill="#ea4335" clip-path="url(#id_0)" d="M389.03125 139.20334C389.03125 141.68861 387.01654 143.70334 384.53125 143.70334C382.04596 143.70334 380.03125 141.68861 380.03125 139.20334C380.03125 136.71805 382.04596 134.70334 384.53125 134.70334C387.01654 134.70334 389.03125 136.71805 389.03125 139.20334Z" fill-rule="nonzero"/><path fill="#ea4335" clip-path="url(#id_0)" d="M399.03693 98.89167C399.03693 101.376945 397.02222 103.39167 394.53693 103.39167C392.05167 103.39167 390.03693 101.376945 390.03693 98.89167C390.03693 96.40639 392.05167 94.39167 394.53693 94.39167C397.02222 94.39167 399.03693 96.40639 399.03693 98.89167Z" fill-rule="nonzero"/><path fill="#ea4335" clip-path="url(#id_0)" d="M409.04263 268.625C409.04263 271.1103 407.0279 273.125 404.54263 273.125C402.05734 273.125 400.04263 271.1103 400.04263 268.625C400.04263 266.1397 402.05734 264.125 404.54263 264.125C407.0279 264.125 409.04263 266.1397 409.04263 268.625Z" fill-rule="nonzero"/><path fill="#ea4335" clip-path="url(#id_0)" d="M419.0483 88.28333C419.0483 90.768616 417.03357 92.78333 414.5483 92.78333C412.06302 92.78333 410.0483 90.768616 410.0483 88.28333C410.0483 85.79805 412.06302 83.78333 414.5483 83.78333C417.03357 83.78333 419.0483 85.79805 419.0483 88.28333Z" fill-rule="nonzero"/><path fill="#ea4335" clip-path="url(#id_0)" d="M429.054 289.84167C429.054 292.32693 427.03928 294.34167 424.554 294.34167C422.0687 294.34167 420.054 292.32693 420.054 289.84167C420.054 287.35638 422.0687 285.34167 424.554 285.34167C427.03928 285.34167 429.054 287.35638 429.054 289.84167Z" fill-rule="nonzero"/><path fill="#ea4335" clip-path="url(#id_0)" d="M439.05966 168.90666C439.05966 171.39195 437.04495 173.40666 434.55966 173.40666C432.0744 173.40666 430.05966 171.39195 430.05966 168.90666C430.05966 166.42139 432.0744 164.40666 434.55966 164.40666C437.04495 164.40666 439.05966 166.42139 439.05966 168.90666Z" fill-rule="nonzero"/><path fill="#ea4335" clip-path="url(#id_0)" d="M449.06534 105.25667C449.06534 107.74195 447.05063 109.75667 444.56534 109.75667C442.08008 109.75667 440.06534 107.74195 440.06534 105.25667C440.06534 102.771385 442.08008 100.75667 444.56534 100.75667C447.05063 100.75667 449.06534 102.771385 449.06534 105.25667Z" fill-rule="nonzero"/><path fill="#ea4335" clip-path="url(#id_0)" d="M459.07104 177.39333C459.07104 179.87862 457.0563 181.89333 454.57104 181.89333C452.08575 181.89333 450.07104 179.87862 450.07104 177.39333C450.07104 174.90805 452.08575 172.89333 454.57104 172.89333C457.0563 172.89333 459.07104 174.90805 459.07104 177.39333Z" fill-rule="nonzero"/><path fill="#ea4335" clip-path="url(#id_0)" d="M469.07672 279.23334C469.07672 281.71863 467.062 283.73334 464.57672 283.73334C462.09143 283.73334 460.07672 281.71863 460.07672 279.23334C460.07672 276.74805 462.09143 274.73334 464.57672 274.73334C467.062 274.73334 469.07672 276.74805 469.07672 279.23334Z" fill-rule="nonzero"/><path fill="#ea4335" clip-path="url(#id_0)" d="M479.0824 232.55667C479.0824 235.04195 477.0677 237.05667 474.5824 237.05667C472.0971 237.05667 470.0824 235.04195 470.0824 232.55667C470.0824 230.07138 472.0971 228.05667 474.5824 228.05667C477.0677 228.05667 479.0824 230.07138 479.0824 232.55667Z" fill-rule="nonzero"/><path fill="#ea4335" clip-path="url(#id_0)" d="M489.08807 281.355C489.08807 283.84027 487.07336 285.855 484.58807 285.855C482.1028 285.855 480.08807 283.84027 480.08807 281.355C480.08807 278.86972 482.1028 276.855 484.58807 276.855C487.07336 276.855 489.08807 278.86972 489.08807 281.355Z" fill-rule="nonzero"/><path fill="#ea4335" clip-path="url(#id_0)" d="M499.09375 124.35167C499.09375 126.836945 497.07904 128.85167 494.59375 128.85167C492.1085 128.85167 490.09375 126.836945 490.09375 124.35167C490.09375 121.86639 492.1085 119.85167 494.59375 119.85167C497.07904 119.85167 499.09375 121.86639 499.09375 124.35167Z" fill-rule="nonzero"/><path fill="#ea4335" clip-path="url(#id_0)" d="M509.09946 213.46167C509.09946 215.94695 507.08472 217.96167 504.59946 217.96167C502.11417 217.96167 500.09946 215.94695 500.09946 213.46167C500.09946 210.97638 502.11417 208.96167 504.59946 208.96167C507.08472 208.96167 509.09946 210.97638 509.09946 213.46167Z" fill-rule="nonzero"/><path fill="#ea4335" clip-path="url(#id_0)" d="M519.1051 90.405C519.1051 92.89028 517.0904 94.905 514.6051 94.905C512.1199 94.905 510.10513 92.89028 510.10513 90.405C510.10513 87.919716 512.1199 85.905 514.6051 85.905C517.0904 85.905 519.1051 87.919716 519.1051 90.405Z" fill-rule="nonzero"/><path fill="#ea4335" clip-path="url(#id_0)" d="M529.11084 202.85333C529.11084 205.33861 527.09607 207.35333 524.61084 207.35333C522.12555 207.35333 520.11084 205.33861 520.11084 202.85333C520.11084 200.36806 522.12555 198.35333 524.61084 198.35333C527.09607 198.35333 529.11084 200.36806 529.11084 202.85333Z" fill-rule="nonzero"/><path fill="#ea4335" clip-path="url(#id_0)" d="M539.1165 232.55667C539.1165 235.04195 537.1018 237.05667 534.6165 237.05667C532.1312 237.05667 530.1165 235.04195 530.1165 232.55667C530.1165 230.07138 532.1312 228.05667 534.6165 228.05667C537.1018 228.05667 539.1165 230.07138 539.1165 232.55667Z" fill-rule="nonzero"/><path fill="#ea4335" clip-path="url(#id_0)" d="M549.1222 260.13834C549.1222 262.62363 547.1075 264.63834 544.6222 264.63834C542.1369 264.63834 540.1222 262.62363 540.1222 260.13834C540.1222 257.65305 542.1369 255.63834 544.6222 255.63834C547.1075 255.63834 549.1222 257.65305 549.1222 260.13834Z" fill-rule="nonzero"/><path fill="#ea4335" clip-path="url(#id_0)" d="M559.12787 298.32834C559.12787 300.81363 557.11316 302.82834 554.62787 302.82834C552.1426 302.82834 550.12787 300.81363 550.12787 298.32834C550.12787 295.84305 552.1426 293.82834 554.62787 293.82834C557.11316 293.82834 559.12787 295.84305 559.12787 298.32834Z" fill-rule="nonzero"/><path fill="#ea4335" clip-path="url(#id_0)" d="M569.13354 272.86835C569.13354 275.3536 567.11884 277.36835 564.63354 277.36835C562.14825 277.36835 560.13354 275.3536 560.13354 272.86835C560.13354 270.38306 562.14825 268.36835 564.63354 268.36835C567.11884 268.36835 569.13354 270.38306 569.13354 272.86835Z" fill-rule="nonzero"/><path fill="#ea4335" clip-path="url(#id_0)" d="M579.1392 217.705C579.1392 220.19028 577.1245 222.205 574.6392 222.205C572.15393 222.205 570.1392 220.19028 570.1392 217.705C570.1392 215.21971 572.15393 213.205 574.6392 213.205C577.1245 213.205 579.1392 215.21971 579.1392 217.705Z" fill-rule="nonzero"/><path fill="#000000" d="M303.92188 349.45L303.92188 340.85626L306.89062 340.85626Q307.89062 340.85626 308.42188 340.98126Q309.15625 341.15314 309.67188 341.59064Q310.35938 342.16876 310.6875 343.075Q311.03125 343.96564 311.03125 345.10626Q311.03125 346.09064 310.79688 346.84064Q310.57812 347.59064 310.21875 348.09064Q309.85938 348.59064 309.42188 348.8719Q309.0 349.15314 308.40625 349.3094Q307.8125 349.45 307.03125 349.45L303.92188 349.45ZM305.0625 348.4344L306.89062 348.4344Q307.75 348.4344 308.23438 348.27814Q308.71875 348.1219 309.0 347.825Q309.40625 347.4344 309.625 346.7469Q309.85938 346.0594 309.85938 345.09064Q309.85938 343.7469 309.40625 343.02814Q308.96875 342.29376 308.34375 342.04376Q307.875 341.8719 306.875 341.8719L305.0625 341.8719L305.0625 348.4344ZM316.85938 348.6844Q316.26562 349.1844 315.71875 349.3875Q315.1875 349.59064 314.5625 349.59064Q313.53125 349.59064 312.98438 349.09064Q312.4375 348.59064 312.4375 347.8094Q312.4375 347.35626 312.64062 346.98126Q312.84375 346.59064 313.1875 346.3719Q313.53125 346.1375 313.95312 346.02814Q314.25 345.9344 314.89062 345.85626Q316.15625 345.71564 316.76562 345.4969Q316.76562 345.27814 316.76562 345.23126Q316.76562 344.575 316.46875 344.3094Q316.0625 343.96564 315.26562 343.96564Q314.53125 343.96564 314.17188 344.23126Q313.8125 344.48126 313.64062 345.1375L312.60938 344.9969Q312.75 344.34064 313.07812 343.9344Q313.40625 343.52814 314.01562 343.3094Q314.625 343.09064 315.42188 343.09064Q316.21875 343.09064 316.71875 343.27814Q317.21875 343.46564 317.45312 343.7469Q317.6875 344.02814 317.78125 344.46564Q317.82812 344.73126 317.82812 345.4344L317.82812 346.84064Q317.82812 348.3094 317.89062 348.7Q317.96875 349.09064 318.17188 349.45L317.0625 349.45Q316.90625 349.1219 316.85938 348.6844ZM316.76562 346.325Q316.1875 346.5594 315.04688 346.73126Q314.39062 346.825 314.125 346.95Q313.85938 347.0594 313.70312 347.27814Q313.5625 347.4969 313.5625 347.77814Q313.5625 348.2 313.875 348.48126Q314.20312 348.7625 314.8125 348.7625Q315.42188 348.7625 315.89062 348.4969Q316.375 348.23126 316.59375 347.7625Q316.76562 347.40314 316.76562 346.71564L316.76562 346.325ZM322.09375 348.5125L322.25 349.4344Q321.79688 349.52814 321.45312 349.52814Q320.875 349.52814 320.5625 349.35626Q320.25 349.16876 320.10938 348.8719Q319.98438 348.575 319.98438 347.6219L319.98438 344.04376L319.21875 344.04376L319.21875 343.23126L319.98438 343.23126L319.98438 341.6844L321.03125 341.0594L321.03125 343.23126L322.09375 343.23126L322.09375 344.04376L321.03125 344.04376L321.03125 347.6844Q321.03125 348.1375 321.07812 348.2625Q321.14062 348.3875 321.26562 348.46564Q321.39062 348.54376 321.625 348.54376Q321.8125 348.54376 322.09375 348.5125ZM326.85938 348.6844Q326.26562 349.1844 325.71875 349.3875Q325.1875 349.59064 324.5625 349.59064Q323.53125 349.59064 322.98438 349.09064Q322.4375 348.59064 322.4375 347.8094Q322.4375 347.35626 322.64062 346.98126Q322.84375 346.59064 323.1875 346.3719Q323.53125 346.1375 323.95312 346.02814Q324.25 345.9344 324.89062 345.85626Q326.15625 345.71564 326.76562 345.4969Q326.76562 345.27814 326.76562 345.23126Q326.76562 344.575 326.46875 344.3094Q326.0625 343.96564 325.26562 343.96564Q324.53125 343.96564 324.17188 344.23126Q323.8125 344.48126 323.64062 345.1375L322.60938 344.9969Q322.75 344.34064 323.07812 343.9344Q323.40625 343.52814 324.01562 343.3094Q324.625 343.09064 325.42188 343.09064Q326.21875 343.09064 326.71875 343.27814Q327.21875 343.46564 327.45312 343.7469Q327.6875 344.02814 327.78125 344.46564Q327.82812 344.73126 327.82812 345.4344L327.82812 346.84064Q327.82812 348.3094 327.89062 348.7Q327.96875 349.09064 328.17188 349.45L327.0625 349.45Q326.90625 349.1219 326.85938 348.6844ZM326.76562 346.325Q326.1875 346.5594 325.04688 346.73126Q324.39062 346.825 324.125 346.95Q323.85938 347.0594 323.70312 347.27814Q323.5625 347.4969 323.5625 347.77814Q323.5625 348.2 323.875 348.48126Q324.20312 348.7625 324.8125 348.7625Q325.42188 348.7625 325.89062 348.4969Q326.375 348.23126 326.59375 347.7625Q326.76562 347.40314 326.76562 346.71564L326.76562 346.325ZM329.79688 351.84064L329.79688 343.23126L330.75 343.23126L330.75 344.02814Q331.09375 343.5594 331.51562 343.325Q331.95312 343.09064 332.5625 343.09064Q333.35938 343.09064 333.96875 343.4969Q334.57812 343.90314 334.875 344.65314Q335.1875 345.40314 335.1875 346.29376Q335.1875 347.2469 334.84375 348.0125Q334.51562 348.77814 333.85938 349.1844Q333.20312 349.59064 332.48438 349.59064Q331.95312 349.59064 331.53125 349.3719Q331.10938 349.1375 330.84375 348.8094L330.84375 351.84064L329.79688 351.84064ZM330.75 346.3719Q330.75 347.575 331.23438 348.15314Q331.71875 348.71564 332.40625 348.71564Q333.10938 348.71564 333.60938 348.1219Q334.10938 347.52814 334.10938 346.27814Q334.10938 345.09064 333.625 344.5125Q333.14062 343.91876 332.45312 343.91876Q331.78125 343.91876 331.26562 344.54376Q330.75 345.16876 330.75 346.3719ZM336.40625 346.34064Q336.40625 344.60626 337.35938 343.77814Q338.15625 343.09064 339.3125 343.09064Q340.59375 343.09064 341.40625 343.9344Q342.23438 344.7625 342.23438 346.2469Q342.23438 347.45 341.875 348.1375Q341.51562 348.825 340.8125 349.21564Q340.125 349.59064 339.3125 349.59064Q338.01562 349.59064 337.20312 348.7625Q336.40625 347.91876 336.40625 346.34064ZM337.48438 346.34064Q337.48438 347.52814 338.0 348.1219Q338.53125 348.71564 339.3125 348.71564Q340.10938 348.71564 340.625 348.1219Q341.14062 347.52814 341.14062 346.3094Q341.14062 345.15314 340.60938 344.5594Q340.09375 343.96564 339.3125 343.96564Q338.53125 343.96564 338.0 344.5594Q337.48438 345.1375 337.48438 346.34064ZM343.79688 342.075L343.79688 340.85626L344.85938 340.85626L344.85938 342.075L343.79688 342.075ZM343.79688 349.45L343.79688 343.23126L344.85938 343.23126L344.85938 349.45L343.79688 349.45ZM346.79688 349.45L346.79688 343.23126L347.73438 343.23126L347.73438 344.10626Q348.42188 343.09064 349.71875 343.09064Q350.28125 343.09064 350.75 343.29376Q351.23438 343.4969 351.46875 343.825Q351.70312 344.15314 351.79688 344.59064Q351.84375 344.8875 351.84375 345.6219L351.84375 349.45L350.79688 349.45L350.79688 345.66876Q350.79688 345.0125 350.67188 344.7Q350.54688 344.3875 350.23438 344.2Q349.92188 343.9969 349.5 343.9969Q348.82812 343.9969 348.32812 344.4344Q347.84375 344.85626 347.84375 346.04376L347.84375 349.45L346.79688 349.45ZM356.09375 348.5125L356.25 349.4344Q355.79688 349.52814 355.45312 349.52814Q354.875 349.52814 354.5625 349.35626Q354.25 349.16876 354.10938 348.8719Q353.98438 348.575 353.98438 347.6219L353.98438 344.04376L353.21875 344.04376L353.21875 343.23126L353.98438 343.23126L353.98438 341.6844L355.03125 341.0594L355.03125 343.23126L356.09375 343.23126L356.09375 344.04376L355.03125 344.04376L355.03125 347.6844Q355.03125 348.1375 355.07812 348.2625Q355.14062 348.3875 355.26562 348.46564Q355.39062 348.54376 355.625 348.54376Q355.8125 348.54376 356.09375 348.5125Z" fill-rule="nonzero"/><path fill="#000000" d="M29.550013 243.9448L20.956263 243.9448L20.956263 240.97604Q20.956263 239.97604 21.081263 239.4448Q21.253138 238.71042 21.690638 238.1948Q22.268763 237.5073 23.175013 237.17917Q24.065638 236.83542 25.206263 236.83542Q26.190638 236.83542 26.940638 237.0698Q27.690638 237.28854 28.190638 237.64792Q28.690638 238.0073 28.971888 238.4448Q29.253138 238.86667 29.409388 239.46042Q29.550013 240.05417 29.550013 240.83542L29.550013 243.9448ZM28.534388 242.80417L28.534388 240.97604Q28.534388 240.11667 28.378138 239.6323Q28.221888 239.14792 27.925013 238.86667Q27.534388 238.46042 26.846888 238.24167Q26.159388 238.0073 25.190638 238.0073Q23.846888 238.0073 23.128138 238.46042Q22.393763 238.89792 22.143763 239.52292Q21.971888 239.99167 21.971888 240.99167L21.971888 242.80417L28.534388 242.80417ZM28.784388 231.0073Q29.284388 231.60104 29.487513 232.14792Q29.690638 232.67917 29.690638 233.30417Q29.690638 234.33542 29.190638 234.8823Q28.690638 235.42917 27.909388 235.42917Q27.456263 235.42917 27.081263 235.22604Q26.690638 235.02292 26.471888 234.67917Q26.237513 234.33542 26.128138 233.91354Q26.034388 233.61667 25.956263 232.97604Q25.815638 231.71042 25.596888 231.10104Q25.378138 231.10104 25.331263 231.10104Q24.675013 231.10104 24.409388 231.39792Q24.065638 231.80417 24.065638 232.60104Q24.065638 233.33542 24.331263 233.6948Q24.581263 234.05417 25.237513 234.22604L25.096888 235.2573Q24.440638 235.11667 24.034388 234.78854Q23.628138 234.46042 23.409388 233.85104Q23.190638 233.24167 23.190638 232.4448Q23.190638 231.64792 23.378138 231.14792Q23.565638 230.64792 23.846888 230.41354Q24.128138 230.17917 24.565638 230.08542Q24.831263 230.03854 25.534388 230.03854L26.940638 230.03854Q28.409388 230.03854 28.800013 229.97604Q29.190638 229.89792 29.550013 229.6948L29.550013 230.80417Q29.221888 230.96042 28.784388 231.0073ZM26.425013 231.10104Q26.659388 231.67917 26.831263 232.8198Q26.925013 233.47604 27.050013 233.74167Q27.159388 234.0073 27.378138 234.16354Q27.596888 234.30417 27.878138 234.30417Q28.300013 234.30417 28.581263 233.99167Q28.862513 233.66354 28.862513 233.05417Q28.862513 232.4448 28.596888 231.97604Q28.331263 231.49167 27.862513 231.27292Q27.503138 231.10104 26.815638 231.10104L26.425013 231.10104ZM28.612513 225.77292L29.534388 225.61667Q29.628138 226.0698 29.628138 226.41354Q29.628138 226.99167 29.456263 227.30417Q29.268763 227.61667 28.971888 227.7573Q28.675013 227.8823 27.721888 227.8823L24.143763 227.8823L24.143763 228.64792L23.331263 228.64792L23.331263 227.8823L21.784388 227.8823L21.159388 226.83542L23.331263 226.83542L23.331263 225.77292L24.143763 225.77292L24.143763 226.83542L27.784388 226.83542Q28.237513 226.83542 28.362513 226.78854Q28.487513 226.72604 28.565638 226.60104Q28.643763 226.47604 28.643763 226.24167Q28.643763 226.05417 28.612513 225.77292ZM28.784388 221.0073Q29.284388 221.60104 29.487513 222.14792Q29.690638 222.67917 29.690638 223.30417Q29.690638 224.33542 29.190638 224.8823Q28.690638 225.42917 27.909388 225.42917Q27.456263 225.42917 27.081263 225.22604Q26.690638 225.02292 26.471888 224.67917Q26.237513 224.33542 26.128138 223.91354Q26.034388 223.61667 25.956263 222.97604Q25.815638 221.71042 25.596888 221.10104Q25.378138 221.10104 25.331263 221.10104Q24.675013 221.10104 24.409388 221.39792Q24.065638 221.80417 24.065638 222.60104Q24.065638 223.33542 24.331263 223.6948Q24.581263 224.05417 25.237513 224.22604L25.096888 225.2573Q24.440638 225.11667 24.034388 224.78854Q23.628138 224.46042 23.409388 223.85104Q23.190638 223.24167 23.190638 222.4448Q23.190638 221.64792 23.378138 221.14792Q23.565638 220.64792 23.846888 220.41354Q24.128138 220.17917 24.565638 220.08542Q24.831263 220.03854 25.534388 220.03854L26.940638 220.03854Q28.409388 220.03854 28.800013 219.97604Q29.190638 219.89792 29.550013 219.6948L29.550013 220.80417Q29.221888 220.96042 28.784388 221.0073ZM26.425013 221.10104Q26.659388 221.67917 26.831263 222.8198Q26.925013 223.47604 27.050013 223.74167Q27.159388 224.0073 27.378138 224.16354Q27.596888 224.30417 27.878138 224.30417Q28.300013 224.30417 28.581263 223.99167Q28.862513 223.66354 28.862513 223.05417Q28.862513 222.4448 28.596888 221.97604Q28.331263 221.49167 27.862513 221.27292Q27.503138 221.10104 26.815638 221.10104L26.425013 221.10104ZM31.940638 218.0698L23.331263 218.0698L23.331263 217.11667L24.128138 217.11667Q23.659388 216.77292 23.425013 216.35104Q23.190638 215.91354 23.190638 215.30417Q23.190638 214.5073 23.596888 213.89792Q24.003138 213.28854 24.753138 212.99167Q25.503138 212.67917 26.393763 212.67917Q27.346888 212.67917 28.112513 213.02292Q28.878138 213.35104 29.284388 214.0073Q29.690638 214.66354 29.690638 215.3823Q29.690638 215.91354 29.471888 216.33542Q29.237513 216.7573 28.909388 217.02292L31.940638 217.02292L31.940638 218.0698ZM26.471888 217.11667Q27.675013 217.11667 28.253138 216.6323Q28.815638 216.14792 28.815638 215.46042Q28.815638 214.7573 28.221888 214.2573Q27.628138 213.7573 26.378138 213.7573Q25.190638 213.7573 24.612513 214.24167Q24.018763 214.72604 24.018763 215.41354Q24.018763 216.08542 24.643763 216.60104Q25.268763 217.11667 26.471888 217.11667ZM26.440638 211.46042Q24.706263 211.46042 23.878138 210.5073Q23.190638 209.71042 23.190638 208.55417Q23.190638 207.27292 24.034388 206.46042Q24.862513 205.6323 26.346888 205.6323Q27.550013 205.6323 28.237513 205.99167Q28.925013 206.35104 29.315638 207.05417Q29.690638 207.74167 29.690638 208.55417Q29.690638 209.85104 28.862513 210.66354Q28.018763 211.46042 26.440638 211.46042ZM26.440638 210.3823Q27.628138 210.3823 28.221888 209.86667Q28.815638 209.33542 28.815638 208.55417Q28.815638 207.7573 28.221888 207.24167Q27.628138 206.72604 26.409388 206.72604Q25.253138 206.72604 24.659388 207.2573Q24.065638 207.77292 24.065638 208.55417Q24.065638 209.33542 24.659388 209.86667Q25.237513 210.3823 26.440638 210.3823ZM22.175013 204.0698L20.956263 204.0698L20.956263 203.0073L22.175013 203.0073L22.175013 204.0698ZM29.550013 204.0698L23.331263 204.0698L23.331263 203.0073L29.550013 203.0073L29.550013 204.0698ZM29.550013 201.0698L23.331263 201.0698L23.331263 200.1323L24.206263 200.1323Q23.190638 199.4448 23.190638 198.14792Q23.190638 197.58542 23.393763 197.11667Q23.596888 196.6323 23.925013 196.39792Q24.253138 196.16354 24.690638 196.0698Q24.987513 196.02292 25.721888 196.02292L29.550013 196.02292L29.550013 197.0698L25.768763 197.0698Q25.112513 197.0698 24.800013 197.1948Q24.487513 197.3198 24.300013 197.6323Q24.096888 197.9448 24.096888 198.36667Q24.096888 199.03854 24.534388 199.53854Q24.956263 200.02292 26.143763 200.02292L29.550013 200.02292L29.550013 201.0698ZM28.612513 191.77292L29.534388 191.61667Q29.628138 192.0698 29.628138 192.41354Q29.628138 192.99167 29.456263 193.30417Q29.268763 193.61667 28.971888 193.7573Q28.675013 193.8823 27.721888 193.8823L24.143763 193.8823L24.143763 194.64792L23.331263 194.64792L23.331263 193.8823L21.784388 193.8823L21.159388 192.83542L23.331263 192.83542L23.331263 191.77292L24.143763 191.77292L24.143763 192.83542L27.784388 192.83542Q28.237513 192.83542 28.362513 192.78854Q28.487513 192.72604 28.565638 192.60104Q28.643763 192.47604 28.643763 192.24167Q28.643763 192.05417 28.612513 191.77292ZM29.550013 185.49167L20.956263 188.8198L20.956263 187.58542L27.206263 185.35104Q27.956263 185.08542 28.612513 184.89792Q27.909388 184.6948 27.206263 184.42917L20.956263 182.11667L20.956263 180.96042L29.550013 184.3198L29.550013 185.49167ZM28.784388 176.0073Q29.284388 176.60104 29.487513 177.14792Q29.690638 177.67917 29.690638 178.30417Q29.690638 179.33542 29.190638 179.8823Q28.690638 180.42917 27.909388 180.42917Q27.456263 180.42917 27.081263 180.22604Q26.690638 180.02292 26.471888 179.67917Q26.237513 179.33542 26.128138 178.91354Q26.034388 178.61667 25.956263 177.97604Q25.815638 176.71042 25.596888 176.10104Q25.378138 176.10104 25.331263 176.10104Q24.675013 176.10104 24.409388 176.39792Q24.065638 176.80417 24.065638 177.60104Q24.065638 178.33542 24.331263 178.6948Q24.581263 179.05417 25.237513 179.22604L25.096888 180.2573Q24.440638 180.11667 24.034388 179.78854Q23.628138 179.46042 23.409388 178.85104Q23.190638 178.24167 23.190638 177.4448Q23.190638 176.64792 23.378138 176.14792Q23.565638 175.64792 23.846888 175.41354Q24.128138 175.17917 24.565638 175.08542Q24.831263 175.03854 25.534388 175.03854L26.940638 175.03854Q28.409388 175.03854 28.800013 174.97604Q29.190638 174.89792 29.550013 174.6948L29.550013 175.80417Q29.221888 175.96042 28.784388 176.0073ZM26.425013 176.10104Q26.659388 176.67917 26.831263 177.8198Q26.925013 178.47604 27.050013 178.74167Q27.159388 179.0073 27.378138 179.16354Q27.596888 179.30417 27.878138 179.30417Q28.300013 179.30417 28.581263 178.99167Q28.862513 178.66354 28.862513 178.05417Q28.862513 177.4448 28.596888 176.97604Q28.331263 176.49167 27.862513 176.27292Q27.503138 176.10104 26.815638 176.10104L26.425013 176.10104ZM29.550013 173.10104L20.956263 173.10104L20.956263 172.03854L29.550013 172.03854L29.550013 173.10104ZM29.550013 165.99167L28.628138 165.99167Q29.690638 166.72604 29.690638 167.97604Q29.690638 168.52292 29.487513 169.0073Q29.268763 169.47604 28.956263 169.71042Q28.628138 169.9448 28.159388 170.03854Q27.862513 170.10104 27.175013 170.10104L23.331263 170.10104L23.331263 169.03854L26.784388 169.03854Q27.596888 169.03854 27.893763 168.97604Q28.300013 168.8823 28.550013 168.5698Q28.784388 168.24167 28.784388 167.7573Q28.784388 167.28854 28.550013 166.8823Q28.300013 166.46042 27.878138 166.28854Q27.456263 166.10104 26.659388 166.10104L23.331263 166.10104L23.331263 165.05417L29.550013 165.05417L29.550013 165.99167ZM27.550013 158.8198L27.675013 157.72604Q28.628138 157.97604 29.159388 158.67917Q29.690638 159.3823 29.690638 160.46042Q29.690638 161.8198 28.846888 162.6323Q28.003138 163.42917 26.487513 163.42917Q24.925013 163.42917 24.065638 162.61667Q23.190638 161.80417 23.190638 160.52292Q23.190638 159.27292 24.034388 158.49167Q24.878138 157.6948 26.425013 157.6948Q26.518763 157.6948 26.706263 157.6948L26.706263 162.33542Q27.737513 162.27292 28.284388 161.7573Q28.815638 161.24167 28.815638 160.46042Q28.815638 159.8823 28.518763 159.47604Q28.206263 159.05417 27.550013 158.8198ZM25.846888 162.27292L25.846888 158.80417Q25.050013 158.86667 24.659388 159.1948Q24.050013 159.71042 24.050013 160.5073Q24.050013 161.24167 24.534388 161.74167Q25.018763 162.22604 25.846888 162.27292Z" fill-rule="nonzero"/><path fill="#000000" d="M65.05 300.21564Q65.05 298.6844 65.3625 297.7625Q65.675 296.825 66.28438 296.325Q66.90938 295.825 67.84688 295.825Q68.53438 295.825 69.05 296.10626Q69.58125 296.3875 69.925 296.91876Q70.26875 297.4344 70.45625 298.1844Q70.64375 298.9344 70.64375 300.21564Q70.64375 301.73126 70.33125 302.65314Q70.03438 303.575 69.40938 304.09064Q68.8 304.59064 67.84688 304.59064Q66.6125 304.59064 65.89375 303.7Q65.05 302.6375 65.05 300.21564ZM66.12813 300.21564Q66.12813 302.325 66.62813 303.02814Q67.12813 303.73126 67.84688 303.73126Q68.58125 303.73126 69.06563 303.02814Q69.56563 302.325 69.56563 300.21564Q69.56563 298.09064 69.06563 297.40314Q68.58125 296.7 67.83125 296.7Q67.1125 296.7 66.675 297.3094Q66.12813 298.09064 66.12813 300.21564Z" fill-rule="nonzero"/><path fill="#000000" d="M63.596874 250.39272L63.596874 251.40834L57.909374 251.40834Q57.909374 251.03334 58.034374 250.67397Q58.253124 250.09584 58.721874 249.53334Q59.20625 248.97084 60.1125 248.23647Q61.51875 247.08022 62.003124 246.40834Q62.503124 245.73647 62.503124 245.14272Q62.503124 244.51772 62.05 244.09584Q61.596874 243.65834 60.878124 243.65834Q60.1125 243.65834 59.659374 244.11147Q59.20625 244.56459 59.190624 245.37709L58.1125 245.26772Q58.221874 244.04897 58.940624 243.42397Q59.675 242.78334 60.909374 242.78334Q62.14375 242.78334 62.8625 243.47084Q63.58125 244.15834 63.58125 245.17397Q63.58125 245.68959 63.3625 246.18959Q63.159374 246.67397 62.659374 247.23647Q62.175 247.78334 61.05 248.73647Q60.096874 249.53334 59.815624 249.83022Q59.55 250.11147 59.378124 250.39272L63.596874 250.39272ZM65.05 249.15834L66.15938 249.06459Q66.28438 249.87709 66.72188 250.28334Q67.175 250.68959 67.81563 250.68959Q68.56563 250.68959 69.09688 250.11147Q69.62813 249.53334 69.62813 248.59584Q69.62813 247.68959 69.1125 247.17397Q68.6125 246.64272 67.78438 246.64272Q67.28438 246.64272 66.8625 246.87709Q66.45625 247.11147 66.22188 247.47084L65.2375 247.34584L66.06563 242.93959L70.34688 242.93959L70.34688 243.93959L66.90938 243.93959L66.45625 246.25209Q67.22188 245.70522 68.06563 245.70522Q69.19063 245.70522 69.95625 246.48647Q70.7375 247.26772 70.7375 248.50209Q70.7375 249.65834 70.06563 250.51772Q69.2375 251.54897 67.81563 251.54897Q66.64375 251.54897 65.89375 250.89272Q65.15938 250.23647 65.05 249.15834Z" fill-rule="nonzero"/><path fill="#000000" d="M58.05 196.11667L59.159374 196.02292Q59.284374 196.83542 59.721874 197.24167Q60.175 197.64792 60.815624 197.64792Q61.565624 197.64792 62.096874 197.0698Q62.628124 196.49167 62.628124 195.55417Q62.628124 194.64792 62.1125 194.1323Q61.6125 193.60104 60.784374 193.60104Q60.284374 193.60104 59.8625 193.83542Q59.45625 194.0698 59.221874 194.42917L58.2375 194.30417L59.065624 189.89792L63.346874 189.89792L63.346874 190.89792L59.909374 190.89792L59.45625 193.21042Q60.221874 192.66354 61.065624 192.66354Q62.190624 192.66354 62.95625 193.4448Q63.7375 194.22604 63.7375 195.46042Q63.7375 196.61667 63.065624 197.47604Q62.2375 198.5073 60.815624 198.5073Q59.64375 198.5073 58.89375 197.85104Q58.159374 197.1948 58.05 196.11667ZM65.05 194.1323Q65.05 192.60104 65.3625 191.67917Q65.675 190.74167 66.28438 190.24167Q66.90938 189.74167 67.84688 189.74167Q68.53438 189.74167 69.05 190.02292Q69.58125 190.30417 69.925 190.83542Q70.26875 191.35104 70.45625 192.10104Q70.64375 192.85104 70.64375 194.1323Q70.64375 195.64792 70.33125 196.5698Q70.03438 197.49167 69.40938 198.0073Q68.8 198.5073 67.84688 198.5073Q66.6125 198.5073 65.89375 197.61667Q65.05 196.55417 65.05 194.1323ZM66.12813 194.1323Q66.12813 196.24167 66.62813 196.9448Q67.12813 197.64792 67.84688 197.64792Q68.58125 197.64792 69.06563 196.9448Q69.56563 196.24167 69.56563 194.1323Q69.56563 192.0073 69.06563 191.3198Q68.58125 190.61667 67.83125 190.61667Q67.1125 190.61667 66.675 191.22604Q66.12813 192.0073 66.12813 194.1323Z" fill-rule="nonzero"/><path fill="#000000" d="M58.1125 137.85625L58.1125 136.84062L63.675 136.84062L63.675 137.66875Q62.8625 138.54375 62.05 139.99687Q61.253124 141.43437 60.815624 142.96562Q60.4875 144.04375 60.409374 145.325L59.315624 145.325Q59.33125 144.30937 59.70625 142.87187Q60.096874 141.43437 60.8 140.10625Q61.51875 138.77812 62.33125 137.85625L58.1125 137.85625ZM65.05 143.075L66.15938 142.98125Q66.28438 143.79375 66.72188 144.2Q67.175 144.60625 67.81563 144.60625Q68.56563 144.60625 69.09688 144.02812Q69.62813 143.45 69.62813 142.5125Q69.62813 141.60625 69.1125 141.09062Q68.6125 140.55937 67.78438 140.55937Q67.28438 140.55937 66.8625 140.79375Q66.45625 141.02812 66.22188 141.3875L65.2375 141.2625L66.06563 136.85625L70.34688 136.85625L70.34688 137.85625L66.90938 137.85625L66.45625 140.16875Q67.22188 139.62187 68.06563 139.62187Q69.19063 139.62187 69.95625 140.40312Q70.7375 141.18437 70.7375 142.41875Q70.7375 143.575 70.06563 144.43437Q69.2375 145.46562 67.81563 145.46562Q66.64375 145.46562 65.89375 144.80937Q65.15938 144.15312 65.05 143.075Z" fill-rule="nonzero"/><path fill="#000000" d="M55.01875 92.28333L53.971874 92.28333L53.971874 85.56458Q53.58125 85.92396 52.95625 86.29896Q52.346874 86.65833 51.8625 86.83021L51.8625 85.81458Q52.7375 85.39271 53.39375 84.81458Q54.065624 84.22083 54.346874 83.65833L55.01875 83.65833L55.01875 92.28333ZM58.05 88.04896Q58.05 86.51771 58.3625 85.59583Q58.675 84.65833 59.284374 84.15833Q59.909374 83.65833 60.846874 83.65833Q61.534374 83.65833 62.05 83.93958Q62.58125 84.22083 62.925 84.75208Q63.26875 85.26771 63.45625 86.01771Q63.64375 86.76771 63.64375 88.04896Q63.64375 89.56458 63.33125 90.48646Q63.034374 91.40833 62.409374 91.92396Q61.8 92.42396 60.846874 92.42396Q59.6125 92.42396 58.89375 91.53333Q58.05 90.47083 58.05 88.04896ZM59.128124 88.04896Q59.128124 90.15833 59.628124 90.86146Q60.128124 91.56458 60.846874 91.56458Q61.58125 91.56458 62.065624 90.86146Q62.565624 90.15833 62.565624 88.04896Q62.565624 85.92396 62.065624 85.23646Q61.58125 84.53333 60.83125 84.53333Q60.1125 84.53333 59.675 85.14271Q59.128124 85.92396 59.128124 88.04896ZM65.05 88.04896Q65.05 86.51771 65.3625 85.59583Q65.675 84.65833 66.28438 84.15833Q66.90938 83.65833 67.84688 83.65833Q68.53438 83.65833 69.05 83.93958Q69.58125 84.22083 69.925 84.75208Q70.26875 85.26771 70.45625 86.01771Q70.64375 86.76771 70.64375 88.04896Q70.64375 89.56458 70.33125 90.48646Q70.03438 91.40833 69.40938 91.92396Q68.8 92.42396 67.84688 92.42396Q66.6125 92.42396 65.89375 91.53333Q65.05 90.47083 65.05 88.04896ZM66.12813 88.04896Q66.12813 90.15833 66.62813 90.86146Q67.12813 91.56458 67.84688 91.56458Q68.58125 91.56458 69.06563 90.86146Q69.56563 90.15833 69.56563 88.04896Q69.56563 85.92396 69.06563 85.23646Q68.58125 84.53333 67.83125 84.53333Q67.1125 84.53333 66.675 85.14271Q66.12813 85.92396 66.12813 88.04896Z" fill-rule="nonzero"/><path fill="#000000" d="M171.88066 317.45L170.83379 317.45L170.83379 310.73126Q170.44316 311.09064 169.81816 311.46564Q169.20879 311.825 168.72441 311.9969L168.72441 310.98126Q169.59941 310.5594 170.25566 309.98126Q170.92754 309.3875 171.20879 308.825L171.88066 308.825L171.88066 317.45ZM174.91191 313.21564Q174.91191 311.6844 175.22441 310.7625Q175.53691 309.825 176.14629 309.325Q176.77129 308.825 177.70879 308.825Q178.39629 308.825 178.91191 309.10626Q179.44316 309.3875 179.78691 309.91876Q180.13066 310.4344 180.31816 311.1844Q180.50566 311.9344 180.50566 313.21564Q180.50566 314.73126 180.19316 315.65314Q179.89629 316.575 179.27129 317.09064Q178.66191 317.59064 177.70879 317.59064Q176.47441 317.59064 175.75566 316.7Q174.91191 315.6375 174.91191 313.21564ZM175.99004 313.21564Q175.99004 315.325 176.49004 316.02814Q176.99004 316.73126 177.70879 316.73126Q178.44316 316.73126 178.92754 316.02814Q179.42754 315.325 179.42754 313.21564Q179.42754 311.09064 178.92754 310.40314Q178.44316 309.7 177.69316 309.7Q176.97441 309.7 176.53691 310.3094Q175.99004 311.09064 175.99004 313.21564Z" fill-rule="nonzero"/><path fill="#000000" d="M273.51562 316.4344L273.51562 317.45L267.82812 317.45Q267.82812 317.075 267.95312 316.71564Q268.17188 316.1375 268.64062 315.575Q269.125 315.0125 270.03125 314.27814Q271.4375 313.1219 271.92188 312.45Q272.42188 311.77814 272.42188 311.1844Q272.42188 310.5594 271.96875 310.1375Q271.51562 309.7 270.79688 309.7Q270.03125 309.7 269.57812 310.15314Q269.125 310.60626 269.10938 311.41876L268.03125 311.3094Q268.14062 310.09064 268.85938 309.46564Q269.59375 308.825 270.82812 308.825Q272.0625 308.825 272.78125 309.5125Q273.5 310.2 273.5 311.21564Q273.5 311.73126 273.28125 312.23126Q273.07812 312.71564 272.57812 313.27814Q272.09375 313.825 270.96875 314.77814Q270.01562 315.575 269.73438 315.8719Q269.46875 316.15314 269.29688 316.4344L273.51562 316.4344ZM274.96875 313.21564Q274.96875 311.6844 275.28125 310.7625Q275.59375 309.825 276.20312 309.325Q276.82812 308.825 277.76562 308.825Q278.45312 308.825 278.96875 309.10626Q279.5 309.3875 279.84375 309.91876Q280.1875 310.4344 280.375 311.1844Q280.5625 311.9344 280.5625 313.21564Q280.5625 314.73126 280.25 315.65314Q279.95312 316.575 279.32812 317.09064Q278.71875 317.59064 277.76562 317.59064Q276.53125 317.59064 275.8125 316.7Q274.96875 315.6375 274.96875 313.21564ZM276.04688 313.21564Q276.04688 315.325 276.54688 316.02814Q277.04688 316.73126 277.76562 316.73126Q278.5 316.73126 278.98438 316.02814Q279.48438 315.325 279.48438 313.21564Q279.48438 311.09064 278.98438 310.40314Q278.5 309.7 277.75 309.7Q277.03125 309.7 276.59375 310.3094Q276.04688 311.09064 276.04688 313.21564Z" fill-rule="nonzero"/><path fill="#000000" d="M368.02557 315.1844L369.08807 315.04376Q369.25995 315.9344 369.69745 316.34064Q370.13495 316.73126 370.75995 316.73126Q371.50995 316.73126 372.02557 316.21564Q372.5412 315.7 372.5412 314.9344Q372.5412 314.21564 372.05682 313.7469Q371.58807 313.2625 370.8537 313.2625Q370.55682 313.2625 370.1037 313.3875L370.2287 312.45Q370.33807 312.46564 370.40057 312.46564Q371.07245 312.46564 371.6037 312.1219Q372.15057 311.7625 372.15057 311.02814Q372.15057 310.45 371.75995 310.075Q371.36932 309.6844 370.74432 309.6844Q370.13495 309.6844 369.71307 310.075Q369.30682 310.46564 369.19745 311.23126L368.13495 311.04376Q368.32245 309.9969 369.00995 309.41876Q369.69745 308.825 370.71307 308.825Q371.4162 308.825 372.00995 309.1375Q372.6037 309.4344 372.9162 309.95Q373.2287 310.46564 373.2287 311.0594Q373.2287 311.60626 372.93182 312.075Q372.63495 312.52814 372.05682 312.79376Q372.80682 312.96564 373.2287 313.52814Q373.65057 314.075 373.65057 314.91876Q373.65057 316.04376 372.82245 316.825Q372.00995 317.60626 370.75995 317.60626Q369.63495 317.60626 368.88495 316.9344Q368.13495 316.2469 368.02557 315.1844ZM375.02557 313.21564Q375.02557 311.6844 375.33807 310.7625Q375.65057 309.825 376.25995 309.325Q376.88495 308.825 377.82245 308.825Q378.50995 308.825 379.02557 309.10626Q379.55682 309.3875 379.90057 309.91876Q380.24432 310.4344 380.43182 311.1844Q380.61932 311.9344 380.61932 313.21564Q380.61932 314.73126 380.30682 315.65314Q380.00995 316.575 379.38495 317.09064Q378.77557 317.59064 377.82245 317.59064Q376.58807 317.59064 375.86932 316.7Q375.02557 315.6375 375.02557 313.21564ZM376.1037 313.21564Q376.1037 315.325 376.6037 316.02814Q377.1037 316.73126 377.82245 316.73126Q378.55682 316.73126 379.0412 316.02814Q379.5412 315.325 379.5412 313.21564Q379.5412 311.09064 379.0412 310.40314Q378.55682 309.7 377.80682 309.7Q377.08807 309.7 376.65057 310.3094Q376.1037 311.09064 376.1037 313.21564Z" fill-rule="nonzero"/><path fill="#000000" d="M471.4574 317.45L471.4574 315.3875L467.73865 315.3875L467.73865 314.41876L471.66052 308.85626L472.5199 308.85626L472.5199 314.41876L473.67615 314.41876L473.67615 315.3875L472.5199 315.3875L472.5199 317.45L471.4574 317.45ZM471.4574 314.41876L471.4574 310.5594L468.7699 314.41876L471.4574 314.41876ZM475.0824 313.21564Q475.0824 311.6844 475.3949 310.7625Q475.7074 309.825 476.31677 309.325Q476.94177 308.825 477.87927 308.825Q478.56677 308.825 479.0824 309.10626Q479.61365 309.3875 479.9574 309.91876Q480.30115 310.4344 480.48865 311.1844Q480.67615 311.9344 480.67615 313.21564Q480.67615 314.73126 480.36365 315.65314Q480.06677 316.575 479.44177 317.09064Q478.8324 317.59064 477.87927 317.59064Q476.6449 317.59064 475.92615 316.7Q475.0824 315.6375 475.0824 313.21564ZM476.16052 313.21564Q476.16052 315.325 476.66052 316.02814Q477.16052 316.73126 477.87927 316.73126Q478.61365 316.73126 479.09802 316.02814Q479.59802 315.325 479.59802 313.21564Q479.59802 311.09064 479.09802 310.40314Q478.61365 309.7 477.86365 309.7Q477.1449 309.7 476.7074 310.3094Q476.16052 311.09064 476.16052 313.21564Z" fill-rule="nonzero"/><path fill="#000000" d="M568.1392 315.2L569.2486 315.10626Q569.3736 315.91876 569.8111 316.325Q570.2642 316.73126 570.90485 316.73126Q571.65485 316.73126 572.1861 316.15314Q572.71735 315.575 572.71735 314.6375Q572.71735 313.73126 572.2017 313.21564Q571.7017 312.6844 570.8736 312.6844Q570.3736 312.6844 569.9517 312.91876Q569.5455 313.15314 569.3111 313.5125L568.3267 313.3875L569.15485 308.98126L573.4361 308.98126L573.4361 309.98126L569.9986 309.98126L569.5455 312.29376Q570.3111 311.7469 571.15485 311.7469Q572.27985 311.7469 573.0455 312.52814Q573.8267 313.3094 573.8267 314.54376Q573.8267 315.7 573.15485 316.5594Q572.3267 317.59064 570.90485 317.59064Q569.733 317.59064 568.983 316.9344Q568.2486 316.27814 568.1392 315.2ZM575.1392 313.21564Q575.1392 311.6844 575.4517 310.7625Q575.7642 309.825 576.3736 309.325Q576.9986 308.825 577.9361 308.825Q578.6236 308.825 579.1392 309.10626Q579.6705 309.3875 580.0142 309.91876Q580.358 310.4344 580.5455 311.1844Q580.733 311.9344 580.733 313.21564Q580.733 314.73126 580.4205 315.65314Q580.1236 316.575 579.4986 317.09064Q578.8892 317.59064 577.9361 317.59064Q576.7017 317.59064 575.983 316.7Q575.1392 315.6375 575.1392 313.21564ZM576.21735 313.21564Q576.21735 315.325 576.71735 316.02814Q577.21735 316.73126 577.9361 316.73126Q578.6705 316.73126 579.15485 316.02814Q579.65485 315.325 579.65485 313.21564Q579.65485 311.09064 579.15485 310.40314Q578.6705 309.7 577.9205 309.7Q577.2017 309.7 576.7642 310.3094Q576.21735 311.09064 576.21735 313.21564Z" fill-rule="nonzero"/><path fill="#4285f4" d="M178.5 61.916668C178.5 65.23038 175.8137 67.916664 172.5 67.916664C169.1863 67.916664 166.5 65.23038 166.5 61.916668C166.5 58.60296 169.1863 55.916668 172.5 55.916668C175.8137 55.916668 178.5 58.60296 178.5 61.916668Z" fill-rule="nonzero"/><path stroke="#4285f4" stroke-width="4.0" stroke-linecap="butt" d="M194.5 61.916668L206.5 61.916668" fill-rule="nonzero"/><path fill="#000000" d="M215.0 61.68229Q215.0 60.15104 215.3125 59.229164Q215.625 58.291664 216.23438 57.791664Q216.85938 57.291664 217.79688 57.291664Q218.48438 57.291664 219.0 57.572914Q219.53125 57.854164 219.875 58.385414Q220.21875 58.90104 220.40625 59.65104Q220.59375 60.40104 220.59375 61.68229Q220.59375 63.197914 220.28125 64.11979Q219.98438 65.041664 219.35938 65.55729Q218.75 66.05729 217.79688 66.05729Q216.5625 66.05729 215.84375 65.166664Q215.0 64.104164 215.0 61.68229ZM216.07812 61.68229Q216.07812 63.791664 216.57812 64.49479Q217.07812 65.197914 217.79688 65.197914Q218.53125 65.197914 219.01562 64.49479Q219.51562 63.791664 219.51562 61.68229Q219.51562 59.55729 219.01562 58.86979Q218.53125 58.166664 217.78125 58.166664Q217.0625 58.166664 216.625 58.77604Q216.07812 59.55729 216.07812 61.68229ZM222.59375 65.916664L222.59375 64.71354L223.79688 64.71354L223.79688 65.916664L222.59375 65.916664ZM225.0 63.65104L226.0625 63.510414Q226.23438 64.40104 226.67188 64.80729Q227.10938 65.197914 227.73438 65.197914Q228.48438 65.197914 229.0 64.68229Q229.51562 64.166664 229.51562 63.40104Q229.51562 62.68229 229.03125 62.21354Q228.5625 61.729164 227.82812 61.729164Q227.53125 61.729164 227.07812 61.854164L227.20312 60.916664Q227.3125 60.93229 227.375 60.93229Q228.04688 60.93229 228.57812 60.58854Q229.125 60.229164 229.125 59.49479Q229.125 58.916664 228.73438 58.541664Q228.34375 58.15104 227.71875 58.15104Q227.10938 58.15104 226.6875 58.541664Q226.28125 58.93229 226.17188 59.697914L225.10938 59.510414Q225.29688 58.46354 225.98438 57.885414Q226.67188 57.291664 227.6875 57.291664Q228.39062 57.291664 228.98438 57.604164Q229.57812 57.90104 229.89062 58.416664Q230.20312 58.93229 230.20312 59.52604Q230.20312 60.072914 229.90625 60.541664Q229.60938 60.99479 229.03125 61.260414Q229.78125 61.43229 230.20312 61.99479Q230.625 62.541664 230.625 63.385414Q230.625 64.510414 229.79688 65.291664Q228.98438 66.072914 227.73438 66.072914Q226.60938 66.072914 225.85938 65.40104Q225.10938 64.71354 225.0 63.65104ZM232.0 63.65104L233.0625 63.510414Q233.23438 64.40104 233.67188 64.80729Q234.10938 65.197914 234.73438 65.197914Q235.48438 65.197914 236.0 64.68229Q236.51562 64.166664 236.51562 63.40104Q236.51562 62.68229 236.03125 62.21354Q235.5625 61.729164 234.82812 61.729164Q234.53125 61.729164 234.07812 61.854164L234.20312 60.916664Q234.3125 60.93229 234.375 60.93229Q235.04688 60.93229 235.57812 60.58854Q236.125 60.229164 236.125 59.49479Q236.125 58.916664 235.73438 58.541664Q235.34375 58.15104 234.71875 58.15104Q234.10938 58.15104 233.6875 58.541664Q233.28125 58.93229 233.17188 59.697914L232.10938 59.510414Q232.29688 58.46354 232.98438 57.885414Q233.67188 57.291664 234.6875 57.291664Q235.39062 57.291664 235.98438 57.604164Q236.57812 57.90104 236.89062 58.416664Q237.20312 58.93229 237.20312 59.52604Q237.20312 60.072914 236.90625 60.541664Q236.60938 60.99479 236.03125 61.260414Q236.78125 61.43229 237.20312 61.99479Q237.625 62.541664 237.625 63.385414Q237.625 64.510414 236.79688 65.291664Q235.98438 66.072914 234.73438 66.072914Q233.60938 66.072914 232.85938 65.40104Q232.10938 64.71354 232.0 63.65104ZM240.625 61.260414Q239.96875 61.010414 239.64062 60.572914Q239.32812 60.11979 239.32812 59.510414Q239.32812 58.572914 240.0 57.93229Q240.6875 57.291664 241.79688 57.291664Q242.92188 57.291664 243.60938 57.947914Q244.29688 58.604164 244.29688 59.541664Q244.29688 60.135414 243.98438 60.572914Q243.67188 61.010414 243.03125 61.260414Q243.82812 61.510414 244.23438 62.08854Q244.64062 62.666664 244.64062 63.46354Q244.64062 64.55729 243.85938 65.30729Q243.09375 66.05729 241.8125 66.05729Q240.54688 66.05729 239.76562 65.30729Q238.98438 64.55729 238.98438 63.43229Q238.98438 62.58854 239.40625 62.02604Q239.84375 61.46354 240.625 61.260414ZM240.40625 59.46354Q240.40625 60.072914 240.79688 60.46354Q241.20312 60.854164 241.82812 60.854164Q242.4375 60.854164 242.82812 60.479164Q243.21875 60.08854 243.21875 59.52604Q243.21875 58.947914 242.8125 58.55729Q242.40625 58.15104 241.8125 58.15104Q241.20312 58.15104 240.79688 58.541664Q240.40625 58.93229 240.40625 59.46354ZM240.07812 63.43229Q240.07812 63.885414 240.28125 64.30729Q240.5 64.729164 240.92188 64.96354Q241.34375 65.197914 241.82812 65.197914Q242.57812 65.197914 243.0625 64.71354Q243.5625 64.229164 243.5625 63.479164Q243.5625 62.71354 243.0625 62.21354Q242.5625 61.71354 241.79688 61.71354Q241.04688 61.71354 240.5625 62.21354Q240.07812 62.697914 240.07812 63.43229ZM245.875 58.90104L246.14062 58.072914Q247.07812 58.40104 247.5 58.635414Q247.39062 57.572914 247.375 57.18229L248.23438 57.18229Q248.21875 57.760414 248.09375 58.635414Q248.70312 58.322914 249.48438 58.072914L249.75 58.90104Q249.0 59.15104 248.29688 59.229164Q248.64062 59.541664 249.29688 60.33854L248.59375 60.83854Q248.25 60.36979 247.79688 59.572914Q247.35938 60.40104 247.03125 60.83854L246.34375 60.33854Q247.01562 59.49479 247.3125 59.229164Q246.5625 59.08854 245.875 58.90104ZM250.59375 65.916664L252.85938 62.68229L250.76562 59.697914L252.07812 59.697914L253.03125 61.15104Q253.29688 61.572914 253.46875 61.854164Q253.71875 61.46354 253.9375 61.166664L254.98438 59.697914L256.25 59.697914L254.09375 62.61979L256.40625 65.916664L255.125 65.916664L253.84375 63.979164L253.5 63.46354L251.85938 65.916664L250.59375 65.916664ZM262.5 64.52604L262.5 62.166664L260.17188 62.166664L260.17188 61.18229L262.5 61.18229L262.5 58.854164L263.5 58.854164L263.5 61.18229L265.84375 61.18229L265.84375 62.166664L263.5 62.166664L263.5 64.52604L262.5 64.52604ZM270.0 63.65104L271.0625 63.510414Q271.23438 64.40104 271.67188 64.80729Q272.10938 65.197914 272.73438 65.197914Q273.48438 65.197914 274.0 64.68229Q274.51562 64.166664 274.51562 63.40104Q274.51562 62.68229 274.03125 62.21354Q273.5625 61.729164 272.82812 61.729164Q272.53125 61.729164 272.07812 61.854164L272.20312 60.916664Q272.3125 60.93229 272.375 60.93229Q273.04688 60.93229 273.57812 60.58854Q274.125 60.229164 274.125 59.49479Q274.125 58.916664 273.73438 58.541664Q273.34375 58.15104 272.71875 58.15104Q272.10938 58.15104 271.6875 58.541664Q271.28125 58.93229 271.17188 59.697914L270.10938 59.510414Q270.29688 58.46354 270.98438 57.885414Q271.67188 57.291664 272.6875 57.291664Q273.39062 57.291664 273.98438 57.604164Q274.57812 57.90104 274.89062 58.416664Q275.20312 58.93229 275.20312 59.52604Q275.20312 60.072914 274.90625 60.541664Q274.60938 60.99479 274.03125 61.260414Q274.78125 61.43229 275.20312 61.99479Q275.625 62.541664 275.625 63.385414Q275.625 64.510414 274.79688 65.291664Q273.98438 66.072914 272.73438 66.072914Q271.60938 66.072914 270.85938 65.40104Q270.10938 64.71354 270.0 63.65104ZM278.625 61.260414Q277.96875 61.010414 277.64062 60.572914Q277.32812 60.11979 277.32812 59.510414Q277.32812 58.572914 278.0 57.93229Q278.6875 57.291664 279.79688 57.291664Q280.92188 57.291664 281.60938 57.947914Q282.29688 58.604164 282.29688 59.541664Q282.29688 60.135414 281.98438 60.572914Q281.67188 61.010414 281.03125 61.260414Q281.82812 61.510414 282.23438 62.08854Q282.64062 62.666664 282.64062 63.46354Q282.64062 64.55729 281.85938 65.30729Q281.09375 66.05729 279.8125 66.05729Q278.54688 66.05729 277.76562 65.30729Q276.98438 64.55729 276.98438 63.43229Q276.98438 62.58854 277.40625 62.02604Q277.84375 61.46354 278.625 61.260414ZM278.40625 59.46354Q278.40625 60.072914 278.79688 60.46354Q279.20312 60.854164 279.82812 60.854164Q280.4375 60.854164 280.82812 60.479164Q281.21875 60.08854 281.21875 59.52604Q281.21875 58.947914 280.8125 58.55729Q280.40625 58.15104 279.8125 58.15104Q279.20312 58.15104 278.79688 58.541664Q278.40625 58.93229 278.40625 59.46354ZM278.07812 63.43229Q278.07812 63.885414 278.28125 64.30729Q278.5 64.729164 278.92188 64.96354Q279.34375 65.197914 279.82812 65.197914Q280.57812 65.197914 281.0625 64.71354Q281.5625 64.229164 281.5625 63.479164Q281.5625 62.71354 281.0625 62.21354Q280.5625 61.71354 279.79688 61.71354Q279.04688 61.71354 278.5625 62.21354Q278.07812 62.697914 278.07812 63.43229ZM284.59375 65.916664L284.59375 64.71354L285.79688 64.71354L285.79688 65.916664L284.59375 65.916664ZM292.54688 64.90104L292.54688 65.916664L286.85938 65.916664Q286.85938 65.541664 286.98438 65.18229Q287.20312 64.604164 287.67188 64.041664Q288.15625 63.479164 289.0625 62.74479Q290.46875 61.58854 290.95312 60.916664Q291.45312 60.24479 291.45312 59.65104Q291.45312 59.02604 291.0 58.604164Q290.54688 58.166664 289.82812 58.166664Q289.0625 58.166664 288.60938 58.61979Q288.15625 59.072914 288.14062 59.885414L287.0625 59.77604Q287.17188 58.55729 287.89062 57.93229Q288.625 57.291664 289.85938 57.291664Q291.09375 57.291664 291.8125 57.979164Q292.53125 58.666664 292.53125 59.68229Q292.53125 60.197914 292.3125 60.697914Q292.10938 61.18229 291.60938 61.74479Q291.125 62.291664 290.0 63.24479Q289.04688 64.041664 288.76562 64.33854Q288.5 64.61979 288.32812 64.90104L292.54688 64.90104Z" fill-rule="nonzero"/><path fill="#ea4335" d="M321.5 61.916668C321.5 65.23038 318.81372 67.916664 315.5 67.916664C312.18628 67.916664 309.5 65.23038 309.5 61.916668C309.5 58.60296 312.18628 55.916668 315.5 55.916668C318.81372 55.916668 321.5 58.60296 321.5 61.916668Z" fill-rule="nonzero"/><path stroke="#ea4335" stroke-width="4.0" stroke-linecap="butt" d="M337.5 61.916668L349.5 61.916668" fill-rule="nonzero"/><path fill="#000000" d="M357.875 63.33854L357.875 62.27604L361.125 62.27604L361.125 63.33854L357.875 63.33854ZM362.0 61.68229Q362.0 60.15104 362.3125 59.229164Q362.625 58.291664 363.23438 57.791664Q363.85938 57.291664 364.79688 57.291664Q365.48438 57.291664 366.0 57.572914Q366.53125 57.854164 366.875 58.385414Q367.21875 58.90104 367.40625 59.65104Q367.59375 60.40104 367.59375 61.68229Q367.59375 63.197914 367.28125 64.11979Q366.98438 65.041664 366.35938 65.55729Q365.75 66.05729 364.79688 66.05729Q363.5625 66.05729 362.84375 65.166664Q362.0 64.104164 362.0 61.68229ZM363.07812 61.68229Q363.07812 63.791664 363.57812 64.49479Q364.07812 65.197914 364.79688 65.197914Q365.53125 65.197914 366.01562 64.49479Q366.51562 63.791664 366.51562 61.68229Q366.51562 59.55729 366.01562 58.86979Q365.53125 58.166664 364.78125 58.166664Q364.0625 58.166664 363.625 58.77604Q363.07812 59.55729 363.07812 61.68229ZM369.59375 65.916664L369.59375 64.71354L370.79688 64.71354L370.79688 65.916664L369.59375 65.916664ZM375.96875 65.916664L374.92188 65.916664L374.92188 59.197914Q374.53125 59.55729 373.90625 59.93229Q373.29688 60.291664 372.8125 60.46354L372.8125 59.447914Q373.6875 59.02604 374.34375 58.447914Q375.01562 57.854164 375.29688 57.291664L375.96875 57.291664L375.96875 65.916664ZM384.54688 64.90104L384.54688 65.916664L378.85938 65.916664Q378.85938 65.541664 378.98438 65.18229Q379.20312 64.604164 379.67188 64.041664Q380.15625 63.479164 381.0625 62.74479Q382.46875 61.58854 382.95312 60.916664Q383.45312 60.24479 383.45312 59.65104Q383.45312 59.02604 383.0 58.604164Q382.54688 58.166664 381.82812 58.166664Q381.0625 58.166664 380.60938 58.61979Q380.15625 59.072914 380.14062 59.885414L379.0625 59.77604Q379.17188 58.55729 379.89062 57.93229Q380.625 57.291664 381.85938 57.291664Q383.09375 57.291664 383.8125 57.979164Q384.53125 58.666664 384.53125 59.68229Q384.53125 60.197914 384.3125 60.697914Q384.10938 61.18229 383.60938 61.74479Q383.125 62.291664 382.0 63.24479Q381.04688 64.041664 380.76562 64.33854Q380.5 64.61979 380.32812 64.90104L384.54688 64.90104ZM385.875 58.90104L386.14062 58.072914Q387.07812 58.40104 387.5 58.635414Q387.39062 57.572914 387.375 57.18229L388.23438 57.18229Q388.21875 57.760414 388.09375 58.635414Q388.70312 58.322914 389.48438 58.072914L389.75 58.90104Q389.0 59.15104 388.29688 59.229164Q388.64062 59.541664 389.29688 60.33854L388.59375 60.83854Q388.25 60.36979 387.79688 59.572914Q387.35938 60.40104 387.03125 60.83854L386.34375 60.33854Q387.01562 59.49479 387.3125 59.229164Q386.5625 59.08854 385.875 58.90104ZM390.59375 65.916664L392.85938 62.68229L390.76562 59.697914L392.07812 59.697914L393.03125 61.15104Q393.29688 61.572914 393.46875 61.854164Q393.71875 61.46354 393.9375 61.166664L394.98438 59.697914L396.25 59.697914L394.09375 62.61979L396.40625 65.916664L395.125 65.916664L393.84375 63.979164L393.5 63.46354L391.85938 65.916664L390.59375 65.916664ZM402.5 64.52604L402.5 62.166664L400.17188 62.166664L400.17188 61.18229L402.5 61.18229L402.5 58.854164L403.5 58.854164L403.5 61.18229L405.84375 61.18229L405.84375 62.166664L403.5 62.166664L403.5 64.52604L402.5 64.52604ZM413.375 65.916664L413.375 63.854164L409.65625 63.854164L409.65625 62.885414L413.57812 57.322914L414.4375 57.322914L414.4375 62.885414L415.59375 62.885414L415.59375 63.854164L414.4375 63.854164L414.4375 65.916664L413.375 65.916664ZM413.375 62.885414L413.375 59.02604L410.6875 62.885414L413.375 62.885414ZM418.625 61.260414Q417.96875 61.010414 417.64062 60.572914Q417.32812 60.11979 417.32812 59.510414Q417.32812 58.572914 418.0 57.93229Q418.6875 57.291664 419.79688 57.291664Q420.92188 57.291664 421.60938 57.947914Q422.29688 58.604164 422.29688 59.541664Q422.29688 60.135414 421.98438 60.572914Q421.67188 61.010414 421.03125 61.260414Q421.82812 61.510414 422.23438 62.08854Q422.64062 62.666664 422.64062 63.46354Q422.64062 64.55729 421.85938 65.30729Q421.09375 66.05729 419.8125 66.05729Q418.54688 66.05729 417.76562 65.30729Q416.98438 64.55729 416.98438 63.43229Q416.98438 62.58854 417.40625 62.02604Q417.84375 61.46354 418.625 61.260414ZM418.40625 59.46354Q418.40625 60.072914 418.79688 60.46354Q419.20312 60.854164 419.82812 60.854164Q420.4375 60.854164 420.82812 60.479164Q421.21875 60.08854 421.21875 59.52604Q421.21875 58.947914 420.8125 58.55729Q420.40625 58.15104 419.8125 58.15104Q419.20312 58.15104 418.79688 58.541664Q418.40625 58.93229 418.40625 59.46354ZM418.07812 63.43229Q418.07812 63.885414 418.28125 64.30729Q418.5 64.729164 418.92188 64.96354Q419.34375 65.197914 419.82812 65.197914Q420.57812 65.197914 421.0625 64.71354Q421.5625 64.229164 421.5625 63.479164Q421.5625 62.71354 421.0625 62.21354Q420.5625 61.71354 419.79688 61.71354Q419.04688 61.71354 418.5625 62.21354Q418.07812 62.697914 418.07812 63.43229ZM424.59375 65.916664L424.59375 64.71354L425.79688 64.71354L425.79688 65.916664L424.59375 65.916664ZM427.15625 63.93229L428.17188 63.83854Q428.29688 64.55729 428.65625 64.885414Q429.03125 65.197914 429.59375 65.197914Q430.07812 65.197914 430.4375 64.979164Q430.8125 64.74479 431.04688 64.385414Q431.28125 64.010414 431.4375 63.385414Q431.59375 62.74479 431.59375 62.08854Q431.59375 62.010414 431.59375 61.86979Q431.28125 62.36979 430.73438 62.697914Q430.1875 63.010414 429.54688 63.010414Q428.46875 63.010414 427.73438 62.24479Q427.0 61.46354 427.0 60.197914Q427.0 58.885414 427.76562 58.08854Q428.54688 57.291664 429.70312 57.291664Q430.53125 57.291664 431.21875 57.74479Q431.92188 58.197914 432.28125 59.041664Q432.64062 59.86979 432.64062 61.447914Q432.64062 63.08854 432.28125 64.072914Q431.9375 65.041664 431.21875 65.55729Q430.51562 66.05729 429.57812 66.05729Q428.5625 66.05729 427.92188 65.510414Q427.28125 64.947914 427.15625 63.93229ZM431.46875 60.135414Q431.46875 59.229164 430.98438 58.697914Q430.51562 58.166664 429.82812 58.166664Q429.125 58.166664 428.59375 58.74479Q428.07812 59.30729 428.07812 60.229164Q428.07812 61.041664 428.57812 61.55729Q429.07812 62.072914 429.79688 62.072914Q430.53125 62.072914 431.0 61.55729Q431.46875 61.041664 431.46875 60.135414Z" fill-rule="nonzero"/><path fill="#000000" d="M191.57812 37.55L191.57812 23.2375L197.92188 23.2375Q199.82812 23.2375 200.82812 23.628124Q201.82812 24.003124 202.42188 24.9875Q203.01562 25.95625 203.01562 27.14375Q203.01562 28.659374 202.03125 29.70625Q201.04688 30.753124 198.98438 31.034374Q199.73438 31.39375 200.125 31.753124Q200.95312 32.503124 201.70312 33.659374L204.1875 37.55L201.8125 37.55L199.90625 34.565624Q199.07812 33.284374 198.54688 32.596874Q198.01562 31.909374 197.57812 31.64375Q197.15625 31.3625 196.71875 31.253124Q196.39062 31.190624 195.67188 31.190624L193.46875 31.190624L193.46875 37.55L191.57812 37.55ZM193.46875 29.55L197.54688 29.55Q198.84375 29.55 199.5625 29.284374Q200.29688 29.01875 200.67188 28.425Q201.0625 27.83125 201.0625 27.14375Q201.0625 26.128124 200.32812 25.471874Q199.59375 24.815624 198.0 24.815624L193.46875 24.815624L193.46875 29.55ZM212.09375 36.26875Q211.10938 37.096874 210.20312 37.440624Q209.29688 37.784374 208.26562 37.784374Q206.5625 37.784374 205.64062 36.95625Q204.71875 36.1125 204.71875 34.815624Q204.71875 34.05 205.0625 33.425Q205.42188 32.8 205.98438 32.425Q206.54688 32.034374 207.25 31.83125Q207.76562 31.70625 208.8125 31.565624Q210.9375 31.315624 211.9375 30.971874Q211.95312 30.6125 211.95312 30.503124Q211.95312 29.440624 211.45312 28.9875Q210.78125 28.39375 209.45312 28.39375Q208.20312 28.39375 207.60938 28.83125Q207.03125 29.26875 206.75 30.378124L205.03125 30.14375Q205.26562 29.034374 205.79688 28.3625Q206.32812 27.675 207.34375 27.315624Q208.35938 26.940624 209.70312 26.940624Q211.03125 26.940624 211.85938 27.253124Q212.6875 27.565624 213.07812 28.05Q213.46875 28.51875 213.625 29.2375Q213.71875 29.690624 213.71875 30.8625L213.71875 33.20625Q213.71875 35.659374 213.82812 36.315624Q213.9375 36.95625 214.28125 37.55L212.4375 37.55Q212.17188 37.003124 212.09375 36.26875ZM211.9375 32.346874Q210.98438 32.7375 209.0625 33.003124Q207.98438 33.159374 207.53125 33.3625Q207.09375 33.55 206.84375 33.925Q206.59375 34.3 206.59375 34.76875Q206.59375 35.471874 207.125 35.940624Q207.65625 36.409374 208.6875 36.409374Q209.70312 36.409374 210.48438 35.971874Q211.28125 35.51875 211.65625 34.753124Q211.9375 34.14375 211.9375 32.9875L211.9375 32.346874ZM216.3125 37.55L216.3125 27.175L217.90625 27.175L217.90625 28.659374Q219.04688 26.940624 221.20312 26.940624Q222.14062 26.940624 222.92188 27.284374Q223.71875 27.6125 224.10938 28.159374Q224.5 28.70625 224.65625 29.45625Q224.75 29.95625 224.75 31.175L224.75 37.55L222.98438 37.55L222.98438 31.2375Q222.98438 30.159374 222.78125 29.628124Q222.57812 29.096874 222.04688 28.784374Q221.53125 28.471874 220.82812 28.471874Q219.70312 28.471874 218.89062 29.190624Q218.07812 29.89375 218.07812 31.878124L218.07812 37.55L216.3125 37.55ZM234.04688 37.55L234.04688 36.2375Q233.0625 37.784374 231.14062 37.784374Q229.90625 37.784374 228.85938 37.096874Q227.82812 36.409374 227.25 35.190624Q226.6875 33.971874 226.6875 32.378124Q226.6875 30.815624 227.20312 29.55Q227.71875 28.284374 228.75 27.6125Q229.79688 26.940624 231.0625 26.940624Q232.0 26.940624 232.73438 27.346874Q233.46875 27.7375 233.9375 28.3625L233.9375 23.2375L235.67188 23.2375L235.67188 37.55L234.04688 37.55ZM228.48438 32.378124Q228.48438 34.3625 229.32812 35.346874Q230.17188 36.33125 231.3125 36.33125Q232.46875 36.33125 233.26562 35.39375Q234.07812 34.45625 234.07812 32.51875Q234.07812 30.39375 233.25 29.39375Q232.4375 28.39375 231.23438 28.39375Q230.0625 28.39375 229.26562 29.3625Q228.48438 30.315624 228.48438 32.378124ZM237.67188 32.3625Q237.67188 29.4875 239.26562 28.096874Q240.60938 26.940624 242.53125 26.940624Q244.67188 26.940624 246.01562 28.346874Q247.375 29.753124 247.375 32.221874Q247.375 34.221874 246.78125 35.378124Q246.1875 36.51875 245.03125 37.159374Q243.89062 37.784374 242.53125 37.784374Q240.34375 37.784374 239.0 36.39375Q237.67188 34.9875 237.67188 32.3625ZM239.46875 32.3625Q239.46875 34.3625 240.32812 35.346874Q241.20312 36.33125 242.53125 36.33125Q243.84375 36.33125 244.70312 35.346874Q245.57812 34.346874 245.57812 32.3Q245.57812 30.378124 244.70312 29.39375Q243.82812 28.39375 242.53125 28.39375Q241.20312 28.39375 240.32812 29.39375Q239.46875 30.378124 239.46875 32.3625ZM249.3125 37.55L249.3125 27.175L250.89062 27.175L250.89062 28.628124Q251.375 27.878124 252.1875 27.409374Q253.0 26.940624 254.03125 26.940624Q255.1875 26.940624 255.92188 27.425Q256.65625 27.89375 256.96875 28.753124Q258.20312 26.940624 260.17188 26.940624Q261.71875 26.940624 262.54688 27.8Q263.375 28.659374 263.375 30.425L263.375 37.55L261.625 37.55L261.625 31.01875Q261.625 29.95625 261.45312 29.503124Q261.28125 29.034374 260.82812 28.753124Q260.39062 28.471874 259.78125 28.471874Q258.6875 28.471874 257.95312 29.20625Q257.23438 29.925 257.23438 31.51875L257.23438 37.55L255.48438 37.55L255.48438 30.815624Q255.48438 29.64375 255.04688 29.065624Q254.625 28.471874 253.64062 28.471874Q252.90625 28.471874 252.26562 28.8625Q251.64062 29.253124 251.35938 30.003124Q251.07812 30.753124 251.07812 32.175L251.07812 37.55L249.3125 37.55ZM266.32812 25.253124L266.32812 23.2375L268.09375 23.2375L268.09375 25.253124L266.32812 25.253124ZM266.32812 37.55L266.32812 27.175L268.09375 27.175L268.09375 37.55L266.32812 37.55ZM269.39062 37.55L269.39062 36.128124L276.0 28.55Q274.875 28.596874 274.01562 28.596874L269.78125 28.596874L269.78125 27.175L278.26562 27.175L278.26562 28.346874L272.64062 34.925L271.5625 36.128124Q272.73438 36.034374 273.78125 36.034374L278.57812 36.034374L278.57812 37.55L269.39062 37.55ZM287.42188 34.20625L289.23438 34.440624Q288.8125 36.01875 287.64062 36.909374Q286.48438 37.784374 284.67188 37.784374Q282.40625 37.784374 281.0625 36.39375Q279.73438 34.9875 279.73438 32.45625Q279.73438 29.83125 281.07812 28.39375Q282.42188 26.940624 284.57812 26.940624Q286.65625 26.940624 287.96875 28.3625Q289.29688 29.76875 289.29688 32.346874Q289.29688 32.503124 289.28125 32.815624L281.54688 32.815624Q281.64062 34.51875 282.51562 35.425Q283.39062 36.33125 284.6875 36.33125Q285.65625 36.33125 286.32812 35.83125Q287.01562 35.315624 287.42188 34.20625ZM281.64062 31.3625L287.4375 31.3625Q287.32812 30.065624 286.78125 29.409374Q285.9375 28.39375 284.59375 28.39375Q283.39062 28.39375 282.5625 29.20625Q281.73438 30.003124 281.64062 31.3625ZM298.04688 37.55L298.04688 36.2375Q297.0625 37.784374 295.14062 37.784374Q293.90625 37.784374 292.85938 37.096874Q291.82812 36.409374 291.25 35.190624Q290.6875 33.971874 290.6875 32.378124Q290.6875 30.815624 291.20312 29.55Q291.71875 28.284374 292.75 27.6125Q293.79688 26.940624 295.0625 26.940624Q296.0 26.940624 296.73438 27.346874Q297.46875 27.7375 297.9375 28.3625L297.9375 23.2375L299.67188 23.2375L299.67188 37.55L298.04688 37.55ZM292.48438 32.378124Q292.48438 34.3625 293.32812 35.346874Q294.17188 36.33125 295.3125 36.33125Q296.46875 36.33125 297.26562 35.39375Q298.07812 34.45625 298.07812 32.51875Q298.07812 30.39375 297.25 29.39375Q296.4375 28.39375 295.23438 28.39375Q294.0625 28.39375 293.26562 29.3625Q292.48438 30.315624 292.48438 32.378124ZM308.54688 37.55L308.54688 23.2375L313.46875 23.2375Q315.14062 23.2375 316.03125 23.440624Q317.25 23.721874 318.125 24.45625Q319.25 25.425 319.8125 26.909374Q320.375 28.39375 320.375 30.315624Q320.375 31.940624 320.0 33.20625Q319.625 34.45625 319.01562 35.284374Q318.42188 36.1125 317.71875 36.596874Q317.01562 37.065624 316.01562 37.315624Q315.01562 37.55 313.70312 37.55L308.54688 37.55ZM310.4375 35.8625L313.5 35.8625Q314.90625 35.8625 315.70312 35.596874Q316.51562 35.33125 317.0 34.846874Q317.67188 34.175 318.04688 33.05Q318.42188 31.909374 318.42188 30.284374Q318.42188 28.034374 317.6875 26.83125Q316.95312 25.628124 315.89062 25.221874Q315.14062 24.925 313.45312 24.925L310.4375 24.925L310.4375 35.8625ZM329.09375 36.26875Q328.10938 37.096874 327.20312 37.440624Q326.29688 37.784374 325.26562 37.784374Q323.5625 37.784374 322.64062 36.95625Q321.71875 36.1125 321.71875 34.815624Q321.71875 34.05 322.0625 33.425Q322.42188 32.8 322.98438 32.425Q323.54688 32.034374 324.25 31.83125Q324.76562 31.70625 325.8125 31.565624Q327.9375 31.315624 328.9375 30.971874Q328.95312 30.6125 328.95312 30.503124Q328.95312 29.440624 328.45312 28.9875Q327.78125 28.39375 326.45312 28.39375Q325.20312 28.39375 324.60938 28.83125Q324.03125 29.26875 323.75 30.378124L322.03125 30.14375Q322.26562 29.034374 322.79688 28.3625Q323.32812 27.675 324.34375 27.315624Q325.35938 26.940624 326.70312 26.940624Q328.03125 26.940624 328.85938 27.253124Q329.6875 27.565624 330.07812 28.05Q330.46875 28.51875 330.625 29.2375Q330.71875 29.690624 330.71875 30.8625L330.71875 33.20625Q330.71875 35.659374 330.82812 36.315624Q330.9375 36.95625 331.28125 37.55L329.4375 37.55Q329.17188 37.003124 329.09375 36.26875ZM328.9375 32.346874Q327.98438 32.7375 326.0625 33.003124Q324.98438 33.159374 324.53125 33.3625Q324.09375 33.55 323.84375 33.925Q323.59375 34.3 323.59375 34.76875Q323.59375 35.471874 324.125 35.940624Q324.65625 36.409374 325.6875 36.409374Q326.70312 36.409374 327.48438 35.971874Q328.28125 35.51875 328.65625 34.753124Q328.9375 34.14375 328.9375 32.9875L328.9375 32.346874ZM337.15625 35.971874L337.40625 37.534374Q336.67188 37.690624 336.07812 37.690624Q335.125 37.690624 334.59375 37.39375Q334.07812 37.08125 333.85938 36.596874Q333.64062 36.096874 333.64062 34.51875L333.64062 28.55L332.35938 28.55L332.35938 27.175L333.64062 27.175L333.64062 24.6125L335.39062 23.55L335.39062 27.175L337.15625 27.175L337.15625 28.55L335.39062 28.55L335.39062 34.6125Q335.39062 35.3625 335.48438 35.58125Q335.57812 35.784374 335.78125 35.925Q336.0 36.05 336.39062 36.05Q336.67188 36.05 337.15625 35.971874ZM346.09375 36.26875Q345.10938 37.096874 344.20312 37.440624Q343.29688 37.784374 342.26562 37.784374Q340.5625 37.784374 339.64062 36.95625Q338.71875 36.1125 338.71875 34.815624Q338.71875 34.05 339.0625 33.425Q339.42188 32.8 339.98438 32.425Q340.54688 32.034374 341.25 31.83125Q341.76562 31.70625 342.8125 31.565624Q344.9375 31.315624 345.9375 30.971874Q345.95312 30.6125 345.95312 30.503124Q345.95312 29.440624 345.45312 28.9875Q344.78125 28.39375 343.45312 28.39375Q342.20312 28.39375 341.60938 28.83125Q341.03125 29.26875 340.75 30.378124L339.03125 30.14375Q339.26562 29.034374 339.79688 28.3625Q340.32812 27.675 341.34375 27.315624Q342.35938 26.940624 343.70312 26.940624Q345.03125 26.940624 345.85938 27.253124Q346.6875 27.565624 347.07812 28.05Q347.46875 28.51875 347.625 29.2375Q347.71875 29.690624 347.71875 30.8625L347.71875 33.20625Q347.71875 35.659374 347.82812 36.315624Q347.9375 36.95625 348.28125 37.55L346.4375 37.55Q346.17188 37.003124 346.09375 36.26875ZM345.9375 32.346874Q344.98438 32.7375 343.0625 33.003124Q341.98438 33.159374 341.53125 33.3625Q341.09375 33.55 340.84375 33.925Q340.59375 34.3 340.59375 34.76875Q340.59375 35.471874 341.125 35.940624Q341.65625 36.409374 342.6875 36.409374Q343.70312 36.409374 344.48438 35.971874Q345.28125 35.51875 345.65625 34.753124Q345.9375 34.14375 345.9375 32.9875L345.9375 32.346874ZM356.54688 37.55L356.54688 23.2375L361.9375 23.2375Q363.375 23.2375 364.125 23.3625Q365.17188 23.55 365.89062 24.05Q366.60938 24.534374 367.03125 25.425Q367.46875 26.315624 367.46875 27.378124Q367.46875 29.20625 366.29688 30.471874Q365.14062 31.721874 362.10938 31.721874L358.4375 31.721874L358.4375 37.55L356.54688 37.55ZM358.4375 30.034374L362.14062 30.034374Q363.96875 30.034374 364.73438 29.3625Q365.51562 28.675 365.51562 27.425Q365.51562 26.534374 365.0625 25.89375Q364.60938 25.253124 363.875 25.05Q363.39062 24.925 362.09375 24.925L358.4375 24.925L358.4375 30.034374ZM368.67188 32.3625Q368.67188 29.4875 370.26562 28.096874Q371.60938 26.940624 373.53125 26.940624Q375.67188 26.940624 377.01562 28.346874Q378.375 29.753124 378.375 32.221874Q378.375 34.221874 377.78125 35.378124Q377.1875 36.51875 376.03125 37.159374Q374.89062 37.784374 373.53125 37.784374Q371.34375 37.784374 370.0 36.39375Q368.67188 34.9875 368.67188 32.3625ZM370.46875 32.3625Q370.46875 34.3625 371.32812 35.346874Q372.20312 36.33125 373.53125 36.33125Q374.84375 36.33125 375.70312 35.346874Q376.57812 34.346874 376.57812 32.3Q376.57812 30.378124 375.70312 29.39375Q374.82812 28.39375 373.53125 28.39375Q372.20312 28.39375 371.32812 29.39375Q370.46875 30.378124 370.46875 32.3625ZM380.32812 25.253124L380.32812 23.2375L382.09375 23.2375L382.09375 25.253124L380.32812 25.253124ZM380.32812 37.55L380.32812 27.175L382.09375 27.175L382.09375 37.55L380.32812 37.55ZM384.3125 37.55L384.3125 27.175L385.90625 27.175L385.90625 28.659374Q387.04688 26.940624 389.20312 26.940624Q390.14062 26.940624 390.92188 27.284374Q391.71875 27.6125 392.10938 28.159374Q392.5 28.70625 392.65625 29.45625Q392.75 29.95625 392.75 31.175L392.75 37.55L390.98438 37.55L390.98438 31.2375Q390.98438 30.159374 390.78125 29.628124Q390.57812 29.096874 390.04688 28.784374Q389.53125 28.471874 388.82812 28.471874Q387.70312 28.471874 386.89062 29.190624Q386.07812 29.89375 386.07812 31.878124L386.07812 37.55L384.3125 37.55ZM399.15625 35.971874L399.40625 37.534374Q398.67188 37.690624 398.07812 37.690624Q397.125 37.690624 396.59375 37.39375Q396.07812 37.08125 395.85938 36.596874Q395.64062 36.096874 395.64062 34.51875L395.64062 28.55L394.35938 28.55L394.35938 27.175L395.64062 27.175L395.64062 24.6125L397.39062 23.55L397.39062 27.175L399.15625 27.175L399.15625 28.55L397.39062 28.55L397.39062 34.6125Q397.39062 35.3625 397.48438 35.58125Q397.57812 35.784374 397.78125 35.925Q398.0 36.05 398.39062 36.05Q398.67188 36.05 399.15625 35.971874ZM400.60938 34.45625L402.35938 34.175Q402.5 35.221874 403.17188 35.784374Q403.84375 36.33125 405.04688 36.33125Q406.25 36.33125 406.82812 35.846874Q407.42188 35.346874 407.42188 34.690624Q407.42188 34.096874 406.90625 33.753124Q406.54688 33.51875 405.10938 33.159374Q403.17188 32.659374 402.42188 32.315624Q401.6875 31.95625 401.29688 31.33125Q400.90625 30.690624 400.90625 29.925Q400.90625 29.2375 401.21875 28.64375Q401.54688 28.05 402.09375 27.659374Q402.5 27.3625 403.20312 27.159374Q403.92188 26.940624 404.73438 26.940624Q405.95312 26.940624 406.875 27.3Q407.79688 27.64375 408.23438 28.253124Q408.67188 28.846874 408.84375 29.846874L407.125 30.08125Q407.0 29.284374 406.4375 28.846874Q405.875 28.39375 404.85938 28.39375Q403.64062 28.39375 403.125 28.8Q402.60938 29.190624 402.60938 29.721874Q402.60938 30.065624 402.82812 30.346874Q403.03125 30.628124 403.5 30.815624Q403.76562 30.909374 405.04688 31.253124Q406.92188 31.753124 407.65625 32.08125Q408.39062 32.39375 408.8125 33.003124Q409.23438 33.596874 409.23438 34.503124Q409.23438 35.378124 408.71875 36.159374Q408.20312 36.940624 407.23438 37.3625Q406.26562 37.784374 405.04688 37.784374Q403.03125 37.784374 401.96875 36.940624Q400.90625 36.096874 400.60938 34.45625Z" fill-rule="nonzero"/></svg>