<svg version="1.1" viewBox="0.0 0.0 600.0 371.0" fill="none" stroke="none" stroke-linecap="square" stroke-miterlimit="10" width="600" height="371" xmlns:xlink="http://www.w3.org/1999/xlink" xmlns="http://www.w3.org/2000/svg"><path fill="#ffffff" d="M0 0L600.0 0L600.0 371.0L0 371.0L0 0Z" fill-rule="nonzero"/><path stroke="#333333" stroke-width="1.0" stroke-linecap="butt" d="M77.5 300.5L581.5 300.5" fill-rule="nonzero"/><path stroke="#cccccc" stroke-width="1.0" stroke-linecap="butt" d="M77.5 265.5L581.5 265.5" fill-rule="nonzero"/><path stroke="#cccccc" stroke-width="1.0" stroke-linecap="butt" d="M77.5 229.5L581.5 229.5" fill-rule="nonzero"/><path stroke="#cccccc" stroke-width="1.0" stroke-linecap="butt" d="M77.5 194.5L581.5 194.5" fill-rule="nonzero"/><path stroke="#cccccc" stroke-width="1.0" stroke-linecap="butt" d="M77.5 159.5L581.5 159.5" fill-rule="nonzero"/><path stroke="#cccccc" stroke-width="1.0" stroke-linecap="butt" d="M77.5 123.5L581.5 123.5" fill-rule="nonzero"/><path stroke="#cccccc" stroke-width="1.0" stroke-linecap="butt" d="M77.5 88.5L581.5 88.5" fill-rule="nonzero"/><clipPath id="id_0"><path d="M77.55 88.28333L581.45 88.28333L581.45 300.45L77.55 300.45L77.55 88.28333Z" clip-rule="nonzero"/></clipPath><path stroke="#000000" stroke-width="0.0" stroke-linecap="butt" stroke-opacity="0.0" clip-path="url(#id_0)" d="M113.0 300.0L78.0 300.0L78.0 214.0C78.0 212.89543 78.89543 212.0 80.0 212.0L111.0 212.0C112.10457 212.0 113.0 212.89543 113.0 214.0Z" fill-rule="nonzero"/><path fill="#4285f4" clip-path="url(#id_0)" d="M113.0 300.0L78.0 300.0L78.0 214.0C78.0 212.89543 78.89543 212.0 80.0 212.0L111.0 212.0C112.10457 212.0 113.0 212.89543 113.0 214.0Z" fill-rule="nonzero"/><path stroke="#000000" stroke-width="0.0" stroke-linecap="butt" stroke-opacity="0.0" clip-path="url(#id_0)" d="M185.0 300.0L150.0 300.0L150.0 90.0C150.0 88.89543 150.89543 88.0 152.0 88.0L183.0 88.0C184.10457 88.0 185.0 88.89543 185.0 90.0Z" fill-rule="nonzero"/><path fill="#4285f4" clip-path="url(#id_0)" d="M185.0 300.0L150.0 300.0L150.0 90.0C150.0 88.89543 150.89543 88.0 152.0 88.0L183.0 88.0C184.10457 88.0 185.0 88.89543 185.0 90.0Z" fill-rule="nonzero"/><path stroke="#000000" stroke-width="0.0" stroke-linecap="butt" stroke-opacity="0.0" clip-path="url(#id_0)" d="M257.0 300.0L222.0 300.0L222.0 161.0C222.0 159.89543 222.89543 159.0 224.0 159.0L255.0 159.0C256.10458 159.0 257.0 159.89543 257.0 161.0Z" fill-rule="nonzero"/><path fill="#4285f4" clip-path="url(#id_0)" d="M257.0 300.0L222.0 300.0L222.0 161.0C222.0 159.89543 222.89543 159.0 224.0 159.0L255.0 159.0C256.10458 159.0 257.0 159.89543 257.0 161.0Z" fill-rule="nonzero"/><path stroke="#000000" stroke-width="0.0" stroke-linecap="butt" stroke-opacity="0.0" clip-path="url(#id_0)" d="M329.0 300.0L294.0 300.0L294.0 126.0C294.0 124.89543 294.89542 124.0 296.0 124.0L327.0 124.0C328.10458 124.0 329.0 124.89543 329.0 126.0Z" fill-rule="nonzero"/><path fill="#4285f4" clip-path="url(#id_0)" d="M329.0 300.0L294.0 300.0L294.0 126.0C294.0 124.89543 294.89542 124.0 296.0 124.0L327.0 124.0C328.10458 124.0 329.0 124.89543 329.0 126.0Z" fill-rule="nonzero"/><path stroke="#000000" stroke-width="0.0" stroke-linecap="butt" stroke-opacity="0.0" clip-path="url(#id_0)" d="M400.0 300.0L365.0 300.0L365.0 214.0C365.0 212.89543 365.89542 212.0 367.0 212.0L398.0 212.0C399.10458 212.0 400.0 212.89543 400.0 214.0Z" fill-rule="nonzero"/><path fill="#4285f4" clip-path="url(#id_0)" d="M400.0 300.0L365.0 300.0L365.0 214.0C365.0 212.89543 365.89542 212.0 367.0 212.0L398.0 212.0C399.10458 212.0 400.0 212.89543 400.0 214.0Z" fill-rule="nonzero"/><path stroke="#000000" stroke-width="0.0" stroke-linecap="butt" stroke-opacity="0.0" clip-path="url(#id_0)" d="M472.0 300.0L437.0 300.0L437.0 232.0C437.0 230.89543 437.89542 230.0 439.0 230.0L470.0 230.0C471.10458 230.0 472.0 230.89543 472.0 232.0Z" fill-rule="nonzero"/><path fill="#4285f4" clip-path="url(#id_0)" d="M472.0 300.0L437.0 300.0L437.0 232.0C437.0 230.89543 437.89542 230.0 439.0 230.0L470.0 230.0C471.10458 230.0 472.0 230.89543 472.0 232.0Z" fill-rule="nonzero"/><path stroke="#000000" stroke-width="0.0" stroke-linecap="butt" stroke-opacity="0.0" clip-path="url(#id_0)" d="M544.0 300.0L509.0 300.0L509.0 196.0C509.0 194.89543 509.89542 194.0 511.0 194.0L542.0 194.0C543.10455 194.0 544.0 194.89543 544.0 196.0Z" fill-rule="nonzero"/><path fill="#4285f4" clip-path="url(#id_0)" d="M544.0 300.0L509.0 300.0L509.0 196.0C509.0 194.89543 509.89542 194.0 511.0 194.0L542.0 194.0C543.10455 194.0 544.0 194.89543 544.0 196.0Z" fill-rule="nonzero"/><path stroke="#000000" stroke-width="0.0" stroke-linecap="butt" stroke-opacity="0.0" clip-path="url(#id_0)" d="M149.0 300.0L114.0 300.0L114.0 108.0C114.0 106.89543 114.89543 106.0 116.0 106.0L147.0 106.0C148.10457 106.0 149.0 106.89543 149.0 108.0Z" fill-rule="nonzero"/><path fill="#ea4335" clip-path="url(#id_0)" d="M149.0 300.0L114.0 300.0L114.0 108.0C114.0 106.89543 114.89543 106.0 116.0 106.0L147.0 106.0C148.10457 106.0 149.0 106.89543 149.0 108.0Z" fill-rule="nonzero"/><path stroke="#000000" stroke-width="0.0" stroke-linecap="butt" stroke-opacity="0.0" clip-path="url(#id_0)" d="M221.0 300.0L186.0 300.0L186.0 143.0C186.0 141.89543 186.89543 141.0 188.0 141.0L219.0 141.0C220.10457 141.0 221.0 141.89543 221.0 143.0Z" fill-rule="nonzero"/><path fill="#ea4335" clip-path="url(#id_0)" d="M221.0 300.0L186.0 300.0L186.0 143.0C186.0 141.89543 186.89543 141.0 188.0 141.0L219.0 141.0C220.10457 141.0 221.0 141.89543 221.0 143.0Z" fill-rule="nonzero"/><path stroke="#000000" stroke-width="0.0" stroke-linecap="butt" stroke-opacity="0.0" clip-path="url(#id_0)" d="M293.0 300.0L258.0 300.0L258.0 179.0C258.0 177.89543 258.89542 177.0 260.0 177.0L291.0 177.0C292.10458 177.0 293.0 177.89543 293.0 179.0Z" fill-rule="nonzero"/><path fill="#ea4335" clip-path="url(#id_0)" d="M293.0 300.0L258.0 300.0L258.0 179.0C258.0 177.89543 258.89542 177.0 260.0 177.0L291.0 177.0C292.10458 177.0 293.0 177.89543 293.0 179.0Z" fill-rule="nonzero"/><path stroke="#000000" stroke-width="0.0" stroke-linecap="butt" stroke-opacity="0.0" clip-path="url(#id_0)" d="M365.0 300.0L330.0 300.0L330.0 214.0C330.0 212.89543 330.89542 212.0 332.0 212.0L363.0 212.0C364.10458 212.0 365.0 212.89543 365.0 214.0Z" fill-rule="nonzero"/><path fill="#ea4335" clip-path="url(#id_0)" d="M365.0 300.0L330.0 300.0L330.0 214.0C330.0 212.89543 330.89542 212.0 332.0 212.0L363.0 212.0C364.10458 212.0 365.0 212.89543 365.0 214.0Z" fill-rule="nonzero"/><path stroke="#000000" stroke-width="0.0" stroke-linecap="butt" stroke-opacity="0.0" clip-path="url(#id_0)" d="M436.0 300.0L401.0 300.0L401.0 196.0C401.0 194.89543 401.89542 194.0 403.0 194.0L434.0 194.0C435.10458 194.0 436.0 194.89543 436.0 196.0Z" fill-rule="nonzero"/><path fill="#ea4335" clip-path="url(#id_0)" d="M436.0 300.0L401.0 300.0L401.0 196.0C401.0 194.89543 401.89542 194.0 403.0 194.0L434.0 194.0C435.10458 194.0 436.0 194.89543 436.0 196.0Z" fill-rule="nonzero"/><path stroke="#000000" stroke-width="0.0" stroke-linecap="butt" stroke-opacity="0.0" clip-path="url(#id_0)" d="M508.0 300.0L473.0 300.0L473.0 196.0C473.0 194.89543 473.89542 194.0 475.0 194.0L506.0 194.0C507.10458 194.0 508.0 194.89543 508.0 196.0Z" fill-rule="nonzero"/><path fill="#ea4335" clip-path="url(#id_0)" d="M508.0 300.0L473.0 300.0L473.0 196.0C473.0 194.89543 473.89542 194.0 475.0 194.0L506.0 194.0C507.10458 194.0 508.0 194.89543 508.0 196.0Z" fill-rule="nonzero"/><path stroke="#000000" stroke-width="0.0" stroke-linecap="butt" stroke-opacity="0.0" clip-path="url(#id_0)" d="M580.0 300.0L545.0 300.0L545.0 196.0C545.0 194.89543 545.89545 194.0 547.0 194.0L578.0 194.0C579.10455 194.0 580.0 194.89543 580.0 196.0Z" fill-rule="nonzero"/><path fill="#ea4335" clip-path="url(#id_0)" d="M580.0 300.0L545.0 300.0L545.0 196.0C545.0 194.89543 545.89545 194.0 547.0 194.0L578.0 194.0C579.10455 194.0 580.0 194.89543 580.0 196.0Z" fill-rule="nonzero"/><path fill="#000000" d="M299.92188 349.45L299.92188 340.85626L302.89062 340.85626Q303.89062 340.85626 304.42188 340.98126Q305.15625 341.15314 305.67188 341.59064Q306.35938 342.16876 306.6875 343.075Q307.03125 343.96564 307.03125 345.10626Q307.03125 346.09064 306.79688 346.84064Q306.57812 347.59064 306.21875 348.09064Q305.85938 348.59064 305.42188 348.8719Q305.0 349.15314 304.40625 349.3094Q303.8125 349.45 303.03125 349.45L299.92188 349.45ZM301.0625 348.4344L302.89062 348.4344Q303.75 348.4344 304.23438 348.27814Q304.71875 348.1219 305.0 347.825Q305.40625 347.4344 305.625 346.7469Q305.85938 346.0594 305.85938 345.09064Q305.85938 343.7469 305.40625 343.02814Q304.96875 342.29376 304.34375 342.04376Q303.875 341.8719 302.875 341.8719L301.0625 341.8719L301.0625 348.4344ZM312.85938 348.6844Q312.26562 349.1844 311.71875 349.3875Q311.1875 349.59064 310.5625 349.59064Q309.53125 349.59064 308.98438 349.09064Q308.4375 348.59064 308.4375 347.8094Q308.4375 347.35626 308.64062 346.98126Q308.84375 346.59064 309.1875 346.3719Q309.53125 346.1375 309.95312 346.02814Q310.25 345.9344 310.89062 345.85626Q312.15625 345.71564 312.76562 345.4969Q312.76562 345.27814 312.76562 345.23126Q312.76562 344.575 312.46875 344.3094Q312.0625 343.96564 311.26562 343.96564Q310.53125 343.96564 310.17188 344.23126Q309.8125 344.48126 309.64062 345.1375L308.60938 344.9969Q308.75 344.34064 309.07812 343.9344Q309.40625 343.52814 310.01562 343.3094Q310.625 343.09064 311.42188 343.09064Q312.21875 343.09064 312.71875 343.27814Q313.21875 343.46564 313.45312 343.7469Q313.6875 344.02814 313.78125 344.46564Q313.82812 344.73126 313.82812 345.4344L313.82812 346.84064Q313.82812 348.3094 313.89062 348.7Q313.96875 349.09064 314.17188 349.45L313.0625 349.45Q312.90625 349.1219 312.85938 348.6844ZM312.76562 346.325Q312.1875 346.5594 311.04688 346.73126Q310.39062 346.825 310.125 346.95Q309.85938 347.0594 309.70312 347.27814Q309.5625 347.4969 309.5625 347.77814Q309.5625 348.2 309.875 348.48126Q310.20312 348.7625 310.8125 348.7625Q311.42188 348.7625 311.89062 348.4969Q312.375 348.23126 312.59375 347.7625Q312.76562 347.40314 312.76562 346.71564L312.76562 346.325ZM318.09375 348.5125L318.25 349.4344Q317.79688 349.52814 317.45312 349.52814Q316.875 349.52814 316.5625 349.35626Q316.25 349.16876 316.10938 348.8719Q315.98438 348.575 315.98438 347.6219L315.98438 344.04376L315.21875 344.04376L315.21875 343.23126L315.98438 343.23126L315.98438 341.6844L317.03125 341.0594L317.03125 343.23126L318.09375 343.23126L318.09375 344.04376L317.03125 344.04376L317.03125 347.6844Q317.03125 348.1375 317.07812 348.2625Q317.14062 348.3875 317.26562 348.46564Q317.39062 348.54376 317.625 348.54376Q317.8125 348.54376 318.09375 348.5125ZM322.85938 348.6844Q322.26562 349.1844 321.71875 349.3875Q321.1875 349.59064 320.5625 349.59064Q319.53125 349.59064 318.98438 349.09064Q318.4375 348.59064 318.4375 347.8094Q318.4375 347.35626 318.64062 346.98126Q318.84375 346.59064 319.1875 346.3719Q319.53125 346.1375 319.95312 346.02814Q320.25 345.9344 320.89062 345.85626Q322.15625 345.71564 322.76562 345.4969Q322.76562 345.27814 322.76562 345.23126Q322.76562 344.575 322.46875 344.3094Q322.0625 343.96564 321.26562 343.96564Q320.53125 343.96564 320.17188 344.23126Q319.8125 344.48126 319.64062 345.1375L318.60938 344.9969Q318.75 344.34064 319.07812 343.9344Q319.40625 343.52814 320.01562 343.3094Q320.625 343.09064 321.42188 343.09064Q322.21875 343.09064 322.71875 343.27814Q323.21875 343.46564 323.45312 343.7469Q323.6875 344.02814 323.78125 344.46564Q323.82812 344.73126 323.82812 345.4344L323.82812 346.84064Q323.82812 348.3094 323.89062 348.7Q323.96875 349.09064 324.17188 349.45L323.0625 349.45Q322.90625 349.1219 322.85938 348.6844ZM322.76562 346.325Q322.1875 346.5594 321.04688 346.73126Q320.39062 346.825 320.125 346.95Q319.85938 347.0594 319.70312 347.27814Q319.5625 347.4969 319.5625 347.77814Q319.5625 348.2 319.875 348.48126Q320.20312 348.7625 320.8125 348.7625Q321.42188 348.7625 321.89062 348.4969Q322.375 348.23126 322.59375 347.7625Q322.76562 347.40314 322.76562 346.71564L322.76562 346.325ZM331.375 349.45L328.04688 340.85626L329.28125 340.85626L331.51562 347.10626Q331.78125 347.85626 331.96875 348.5125Q332.17188 347.8094 332.4375 347.10626L334.75 340.85626L335.90625 340.85626L332.54688 349.45L331.375 349.45ZM340.85938 348.6844Q340.26562 349.1844 339.71875 349.3875Q339.1875 349.59064 338.5625 349.59064Q337.53125 349.59064 336.98438 349.09064Q336.4375 348.59064 336.4375 347.8094Q336.4375 347.35626 336.64062 346.98126Q336.84375 346.59064 337.1875 346.3719Q337.53125 346.1375 337.95312 346.02814Q338.25 345.9344 338.89062 345.85626Q340.15625 345.71564 340.76562 345.4969Q340.76562 345.27814 340.76562 345.23126Q340.76562 344.575 340.46875 344.3094Q340.0625 343.96564 339.26562 343.96564Q338.53125 343.96564 338.17188 344.23126Q337.8125 344.48126 337.64062 345.1375L336.60938 344.9969Q336.75 344.34064 337.07812 343.9344Q337.40625 343.52814 338.01562 343.3094Q338.625 343.09064 339.42188 343.09064Q340.21875 343.09064 340.71875 343.27814Q341.21875 343.46564 341.45312 343.7469Q341.6875 344.02814 341.78125 344.46564Q341.82812 344.73126 341.82812 345.4344L341.82812 346.84064Q341.82812 348.3094 341.89062 348.7Q341.96875 349.09064 342.17188 349.45L341.0625 349.45Q340.90625 349.1219 340.85938 348.6844ZM340.76562 346.325Q340.1875 346.5594 339.04688 346.73126Q338.39062 346.825 338.125 346.95Q337.85938 347.0594 337.70312 347.27814Q337.5625 347.4969 337.5625 347.77814Q337.5625 348.2 337.875 348.48126Q338.20312 348.7625 338.8125 348.7625Q339.42188 348.7625 339.89062 348.4969Q340.375 348.23126 340.59375 347.7625Q340.76562 347.40314 340.76562 346.71564L340.76562 346.325ZM343.76562 349.45L343.76562 340.85626L344.82812 340.85626L344.82812 349.45L343.76562 349.45ZM350.875 349.45L350.875 348.52814Q350.14062 349.59064 348.89062 349.59064Q348.34375 349.59064 347.85938 349.3875Q347.39062 349.16876 347.15625 348.85626Q346.92188 348.52814 346.82812 348.0594Q346.76562 347.7625 346.76562 347.075L346.76562 343.23126L347.82812 343.23126L347.82812 346.6844Q347.82812 347.4969 347.89062 347.79376Q347.98438 348.2 348.29688 348.45Q348.625 348.6844 349.10938 348.6844Q349.57812 348.6844 349.98438 348.45Q350.40625 348.2 350.57812 347.77814Q350.76562 347.35626 350.76562 346.5594L350.76562 343.23126L351.8125 343.23126L351.8125 349.45L350.875 349.45ZM358.04688 347.45L359.14062 347.575Q358.89062 348.52814 358.1875 349.0594Q357.48438 349.59064 356.40625 349.59064Q355.04688 349.59064 354.23438 348.7469Q353.4375 347.90314 353.4375 346.3875Q353.4375 344.825 354.25 343.96564Q355.0625 343.09064 356.34375 343.09064Q357.59375 343.09064 358.375 343.9344Q359.17188 344.77814 359.17188 346.325Q359.17188 346.41876 359.17188 346.60626L354.53125 346.60626Q354.59375 347.6375 355.10938 348.1844Q355.625 348.71564 356.40625 348.71564Q356.98438 348.71564 357.39062 348.41876Q357.8125 348.10626 358.04688 347.45ZM354.59375 345.7469L358.0625 345.7469Q358.0 344.95 357.67188 344.5594Q357.15625 343.95 356.35938 343.95Q355.625 343.95 355.125 344.4344Q354.64062 344.91876 354.59375 345.7469Z" fill-rule="nonzero"/><path fill="#000000" d="M29.550013 228.8823L20.956263 228.8823L20.956263 223.08542L21.971888 223.08542L21.971888 227.74167L24.628138 227.74167L24.628138 223.71042L25.643763 223.71042L25.643763 227.74167L29.550013 227.74167L29.550013 228.8823ZM29.550013 222.08542L23.331263 222.08542L23.331263 221.1323L24.268763 221.1323Q23.612513 220.77292 23.409388 220.47604Q23.190638 220.16354 23.190638 219.78854Q23.190638 219.2573 23.518763 218.71042L24.503138 219.0698Q24.268763 219.46042 24.268763 219.83542Q24.268763 220.1948 24.487513 220.47604Q24.690638 220.74167 25.065638 220.85104Q25.628138 221.03854 26.284388 221.03854L29.550013 221.03854L29.550013 222.08542ZM27.550013 213.8198L27.675013 212.72604Q28.628138 212.97604 29.159388 213.67917Q29.690638 214.3823 29.690638 215.46042Q29.690638 216.8198 28.846888 217.6323Q28.003138 218.42917 26.487513 218.42917Q24.925013 218.42917 24.065638 217.61667Q23.190638 216.80417 23.190638 215.52292Q23.190638 214.27292 24.034388 213.49167Q24.878138 212.6948 26.425013 212.6948Q26.518763 212.6948 26.706263 212.6948L26.706263 217.33542Q27.737513 217.27292 28.284388 216.7573Q28.815638 216.24167 28.815638 215.46042Q28.815638 214.8823 28.518763 214.47604Q28.206263 214.05417 27.550013 213.8198ZM25.846888 217.27292L25.846888 213.80417Q25.050013 213.86667 24.659388 214.1948Q24.050013 214.71042 24.050013 215.5073Q24.050013 216.24167 24.534388 216.74167Q25.018763 217.22604 25.846888 217.27292ZM31.940638 207.10104L28.893763 207.10104Q29.237513 207.35104 29.471888 207.80417Q29.690638 208.24167 29.690638 208.74167Q29.690638 209.85104 28.815638 210.64792Q27.925013 211.4448 26.378138 211.4448Q25.440638 211.4448 24.706263 211.11667Q23.956263 210.78854 23.581263 210.17917Q23.190638 209.55417 23.190638 208.8198Q23.190638 207.66354 24.159388 207.0073L23.331263 207.0073L23.331263 206.05417L31.940638 206.05417L31.940638 207.10104ZM26.425013 210.36667Q27.628138 210.36667 28.221888 209.86667Q28.815638 209.35104 28.815638 208.64792Q28.815638 207.97604 28.253138 207.49167Q27.675013 207.0073 26.518763 207.0073Q25.268763 207.0073 24.643763 207.52292Q24.018763 208.02292 24.018763 208.72604Q24.018763 209.39792 24.612513 209.8823Q25.190638 210.36667 26.425013 210.36667ZM29.550013 199.99167L28.628138 199.99167Q29.690638 200.72604 29.690638 201.97604Q29.690638 202.52292 29.487513 203.0073Q29.268763 203.47604 28.956263 203.71042Q28.628138 203.9448 28.159388 204.03854Q27.862513 204.10104 27.175013 204.10104L23.331263 204.10104L23.331263 203.03854L26.784388 203.03854Q27.596888 203.03854 27.893763 202.97604Q28.300013 202.8823 28.550013 202.5698Q28.784388 202.24167 28.784388 201.7573Q28.784388 201.28854 28.550013 200.8823Q28.300013 200.46042 27.878138 200.28854Q27.456263 200.10104 26.659388 200.10104L23.331263 200.10104L23.331263 199.05417L29.550013 199.05417L29.550013 199.99167ZM27.550013 192.8198L27.675013 191.72604Q28.628138 191.97604 29.159388 192.67917Q29.690638 193.3823 29.690638 194.46042Q29.690638 195.8198 28.846888 196.6323Q28.003138 197.42917 26.487513 197.42917Q24.925013 197.42917 24.065638 196.61667Q23.190638 195.80417 23.190638 194.52292Q23.190638 193.27292 24.034388 192.49167Q24.878138 191.6948 26.425013 191.6948Q26.518763 191.6948 26.706263 191.6948L26.706263 196.33542Q27.737513 196.27292 28.284388 195.7573Q28.815638 195.24167 28.815638 194.46042Q28.815638 193.8823 28.518763 193.47604Q28.206263 193.05417 27.550013 192.8198ZM25.846888 196.27292L25.846888 192.80417Q25.050013 192.86667 24.659388 193.1948Q24.050013 193.71042 24.050013 194.5073Q24.050013 195.24167 24.534388 195.74167Q25.018763 196.22604 25.846888 196.27292ZM29.550013 190.0698L23.331263 190.0698L23.331263 189.1323L24.206263 189.1323Q23.190638 188.4448 23.190638 187.14792Q23.190638 186.58542 23.393763 186.11667Q23.596888 185.6323 23.925013 185.39792Q24.253138 185.16354 24.690638 185.0698Q24.987513 185.02292 25.721888 185.02292L29.550013 185.02292L29.550013 186.0698L25.768763 186.0698Q25.112513 186.0698 24.800013 186.1948Q24.487513 186.3198 24.300013 186.6323Q24.096888 186.9448 24.096888 187.36667Q24.096888 188.03854 24.534388 188.53854Q24.956263 189.02292 26.143763 189.02292L29.550013 189.02292L29.550013 190.0698ZM27.268763 179.0073L27.409388 177.97604Q28.471888 178.14792 29.081263 178.85104Q29.690638 179.55417 29.690638 180.5698Q29.690638 181.85104 28.862513 182.6323Q28.018763 183.39792 26.456263 183.39792Q25.456263 183.39792 24.706263 183.0698Q23.940638 182.72604 23.565638 182.05417Q23.190638 181.36667 23.190638 180.55417Q23.190638 179.55417 23.706263 178.91354Q24.206263 178.2573 25.159388 178.0698L25.315638 179.10104Q24.690638 179.24167 24.378138 179.61667Q24.050013 179.99167 24.050013 180.52292Q24.050013 181.3198 24.628138 181.8198Q25.190638 182.3198 26.425013 182.3198Q27.690638 182.3198 28.253138 181.83542Q28.815638 181.35104 28.815638 180.58542Q28.815638 179.96042 28.440638 179.55417Q28.065638 179.1323 27.268763 179.0073ZM31.940638 177.11667L30.956263 177.24167Q31.050013 176.89792 31.050013 176.6323Q31.050013 176.28854 30.925013 176.08542Q30.815638 175.86667 30.612513 175.72604Q30.440638 175.6323 29.815638 175.39792Q29.737513 175.3823 29.565638 175.30417L23.331263 177.67917L23.331263 176.53854L26.925013 175.24167Q27.612513 174.99167 28.378138 174.78854Q27.643763 174.60104 26.956263 174.35104L23.331263 173.02292L23.331263 171.97604L29.659388 174.33542Q30.675013 174.72604 31.065638 174.92917Q31.596888 175.21042 31.831263 175.58542Q32.08126 175.9448 32.08126 176.4448Q32.08126 176.74167 31.940638 177.11667Z" fill-rule="nonzero"/><path fill="#000000" d="M65.05 300.21564Q65.05 298.6844 65.3625 297.7625Q65.675 296.825 66.28438 296.325Q66.90938 295.825 67.84688 295.825Q68.53438 295.825 69.05 296.10626Q69.58125 296.3875 69.925 296.91876Q70.26875 297.4344 70.45625 298.1844Q70.64375 298.9344 70.64375 300.21564Q70.64375 301.73126 70.33125 302.65314Q70.03438 303.575 69.40938 304.09064Q68.8 304.59064 67.84688 304.59064Q66.6125 304.59064 65.89375 303.7Q65.05 302.6375 65.05 300.21564ZM66.12813 300.21564Q66.12813 302.325 66.62813 303.02814Q67.12813 303.73126 67.84688 303.73126Q68.58125 303.73126 69.06563 303.02814Q69.56563 302.325 69.56563 300.21564Q69.56563 298.09064 69.06563 297.40314Q68.58125 296.7 67.83125 296.7Q67.1125 296.7 66.675 297.3094Q66.12813 298.09064 66.12813 300.21564Z" fill-rule="nonzero"/><path fill="#000000" d="M70.59688 268.07327L70.59688 269.0889L64.90938 269.0889Q64.90938 268.7139 65.03438 268.35452Q65.25313 267.7764 65.72188 267.2139Q66.20625 266.6514 67.1125 265.91702Q68.51875 264.76077 69.00313 264.0889Q69.50313 263.41702 69.50313 262.82327Q69.50313 262.19827 69.05 261.7764Q68.59688 261.3389 67.87813 261.3389Q67.1125 261.3389 66.65938 261.79202Q66.20625 262.24515 66.19063 263.05765L65.1125 262.94827Q65.22188 261.72952 65.94063 261.10452Q66.675 260.4639 67.90938 260.4639Q69.14375 260.4639 69.8625 261.1514Q70.58125 261.8389 70.58125 262.85452Q70.58125 263.37015 70.3625 263.87015Q70.15938 264.35452 69.65938 264.91702Q69.175 265.4639 68.05 266.41702Q67.09688 267.2139 66.81563 267.51077Q66.55 267.79202 66.37813 268.07327L70.59688 268.07327Z" fill-rule="nonzero"/><path fill="#000000" d="M68.425 233.72778L68.425 231.66528L64.70625 231.66528L64.70625 230.69653L68.62813 225.13403L69.4875 225.13403L69.4875 230.69653L70.64375 230.69653L70.64375 231.66528L69.4875 231.66528L69.4875 233.72778L68.425 233.72778ZM68.425 230.69653L68.425 226.83716L65.7375 230.69653L68.425 230.69653Z" fill-rule="nonzero"/><path fill="#000000" d="M70.51875 191.8823L69.47188 191.96042Q69.33125 191.33542 69.08125 191.05417Q68.64375 190.60104 68.01875 190.60104Q67.51875 190.60104 67.12813 190.8823Q66.64375 191.2573 66.34688 191.96042Q66.06563 192.64792 66.05 193.92917Q66.425 193.35104 66.97188 193.0698Q67.53438 192.78854 68.14375 192.78854Q69.19063 192.78854 69.925 193.5698Q70.675 194.35104 70.675 195.5698Q70.675 196.3823 70.31563 197.08542Q69.97188 197.77292 69.3625 198.14792Q68.75313 198.5073 67.9875 198.5073Q66.65938 198.5073 65.83125 197.53854Q65.00313 196.5698 65.00313 194.35104Q65.00313 191.85104 65.925 190.72604Q66.72188 189.74167 68.08125 189.74167Q69.09688 189.74167 69.7375 190.3198Q70.39375 190.8823 70.51875 191.8823ZM66.22188 195.58542Q66.22188 196.1323 66.44063 196.6323Q66.675 197.11667 67.08125 197.3823Q67.50313 197.64792 67.97188 197.64792Q68.62813 197.64792 69.1125 197.11667Q69.59688 196.5698 69.59688 195.64792Q69.59688 194.7573 69.1125 194.24167Q68.64375 193.72604 67.925 193.72604Q67.20625 193.72604 66.70625 194.24167Q66.22188 194.7573 66.22188 195.58542Z" fill-rule="nonzero"/><path fill="#000000" d="M66.675 158.3493Q66.01875 158.0993 65.69063 157.6618Q65.37813 157.20868 65.37813 156.5993Q65.37813 155.6618 66.05 155.02118Q66.7375 154.38055 67.84688 154.38055Q68.97188 154.38055 69.65938 155.0368Q70.34688 155.69305 70.34688 156.63055Q70.34688 157.2243 70.03438 157.6618Q69.72188 158.0993 69.08125 158.3493Q69.87813 158.5993 70.28438 159.17743Q70.69063 159.75555 70.69063 160.55243Q70.69063 161.64618 69.90938 162.39618Q69.14375 163.14618 67.8625 163.14618Q66.59688 163.14618 65.81563 162.39618Q65.03438 161.64618 65.03438 160.52118Q65.03438 159.67743 65.45625 159.11493Q65.89375 158.55243 66.675 158.3493ZM66.45625 156.55243Q66.45625 157.1618 66.84688 157.55243Q67.25313 157.94305 67.87813 157.94305Q68.4875 157.94305 68.87813 157.56805Q69.26875 157.17743 69.26875 156.61493Q69.26875 156.0368 68.8625 155.64618Q68.45625 155.23993 67.8625 155.23993Q67.25313 155.23993 66.84688 155.63055Q66.45625 156.02118 66.45625 156.55243ZM66.12813 160.52118Q66.12813 160.9743 66.33125 161.39618Q66.55 161.81805 66.97188 162.05243Q67.39375 162.2868 67.87813 162.2868Q68.62813 162.2868 69.1125 161.80243Q69.6125 161.31805 69.6125 160.56805Q69.6125 159.80243 69.1125 159.30243Q68.6125 158.80243 67.84688 158.80243Q67.09688 158.80243 66.6125 159.30243Q66.12813 159.7868 66.12813 160.52118Z" fill-rule="nonzero"/><path fill="#000000" d="M62.01875 127.64445L60.971874 127.64445L60.971874 120.9257Q60.58125 121.28507 59.95625 121.66007Q59.346874 122.01945 58.8625 122.19132L58.8625 121.1757Q59.7375 120.75382 60.39375 120.1757Q61.065624 119.58195 61.346874 119.01945L62.01875 119.01945L62.01875 127.64445ZM65.05 123.41007Q65.05 121.87882 65.3625 120.95695Q65.675 120.01945 66.28438 119.51945Q66.90938 119.01945 67.84688 119.01945Q68.53438 119.01945 69.05 119.3007Q69.58125 119.58195 69.925 120.1132Q70.26875 120.62882 70.45625 121.37882Q70.64375 122.12882 70.64375 123.41007Q70.64375 124.9257 70.33125 125.84757Q70.03438 126.76945 69.40938 127.28507Q68.8 127.78507 67.84688 127.78507Q66.6125 127.78507 65.89375 126.89445Q65.05 125.83195 65.05 123.41007ZM66.12813 123.41007Q66.12813 125.51945 66.62813 126.22257Q67.12813 126.9257 67.84688 126.9257Q68.58125 126.9257 69.06563 126.22257Q69.56563 125.51945 69.56563 123.41007Q69.56563 121.28507 69.06563 120.59757Q68.58125 119.89445 67.83125 119.89445Q67.1125 119.89445 66.675 120.50382Q66.12813 121.28507 66.12813 123.41007Z" fill-rule="nonzero"/><path fill="#000000" d="M62.01875 92.28333L60.971874 92.28333L60.971874 85.56458Q60.58125 85.92396 59.95625 86.29896Q59.346874 86.65833 58.8625 86.83021L58.8625 85.81458Q59.7375 85.39271 60.39375 84.81458Q61.065624 84.22083 61.346874 83.65833L62.01875 83.65833L62.01875 92.28333ZM70.59688 91.26771L70.59688 92.28333L64.90938 92.28333Q64.90938 91.90833 65.03438 91.54896Q65.25313 90.97083 65.72188 90.40833Q66.20625 89.84583 67.1125 89.11146Q68.51875 87.95521 69.00313 87.28333Q69.50313 86.61146 69.50313 86.01771Q69.50313 85.39271 69.05 84.97083Q68.59688 84.53333 67.87813 84.53333Q67.1125 84.53333 66.65938 84.98646Q66.20625 85.43958 66.19063 86.25208L65.1125 86.14271Q65.22188 84.92396 65.94063 84.29896Q66.675 83.65833 67.90938 83.65833Q69.14375 83.65833 69.8625 84.34583Q70.58125 85.03333 70.58125 86.04896Q70.58125 86.56458 70.3625 87.06458Q70.15938 87.54896 69.65938 88.11146Q69.175 88.65833 68.05 89.61146Q67.09688 90.40833 66.81563 90.70521Q66.55 90.98646 66.37813 91.26771L70.59688 91.26771Z" fill-rule="nonzero"/><path fill="#000000" d="M66.05 313.21564Q66.05 311.6844 66.3625 310.7625Q66.675 309.825 67.28438 309.325Q67.90938 308.825 68.84688 308.825Q69.53438 308.825 70.05 309.10626Q70.58125 309.3875 70.925 309.91876Q71.26875 310.4344 71.45625 311.1844Q71.64375 311.9344 71.64375 313.21564Q71.64375 314.73126 71.33125 315.65314Q71.03438 316.575 70.40938 317.09064Q69.8 317.59064 68.84688 317.59064Q67.6125 317.59064 66.89375 316.7Q66.05 315.6375 66.05 313.21564ZM67.12813 313.21564Q67.12813 315.325 67.62813 316.02814Q68.12813 316.73126 68.84688 316.73126Q69.58125 316.73126 70.06563 316.02814Q70.56563 315.325 70.56563 313.21564Q70.56563 311.09064 70.06563 310.40314Q69.58125 309.7 68.83125 309.7Q68.1125 309.7 67.675 310.3094Q67.12813 311.09064 67.12813 313.21564ZM73.64375 317.45L73.64375 316.2469L74.84688 316.2469L74.84688 317.45L73.64375 317.45ZM76.05 313.21564Q76.05 311.6844 76.3625 310.7625Q76.675 309.825 77.28438 309.325Q77.90938 308.825 78.84688 308.825Q79.53438 308.825 80.05 309.10626Q80.58125 309.3875 80.925 309.91876Q81.26875 310.4344 81.45625 311.1844Q81.64375 311.9344 81.64375 313.21564Q81.64375 314.73126 81.33125 315.65314Q81.03438 316.575 80.40938 317.09064Q79.8 317.59064 78.84688 317.59064Q77.6125 317.59064 76.89375 316.7Q76.05 315.6375 76.05 313.21564ZM77.12813 313.21564Q77.12813 315.325 77.62813 316.02814Q78.12813 316.73126 78.84688 316.73126Q79.58125 316.73126 80.06563 316.02814Q80.56563 315.325 80.56563 313.21564Q80.56563 311.09064 80.06563 310.40314Q79.58125 309.7 78.83125 309.7Q78.1125 309.7 77.675 310.3094Q77.12813 311.09064 77.12813 313.21564ZM83.05 313.21564Q83.05 311.6844 83.3625 310.7625Q83.675 309.825 84.28438 309.325Q84.90938 308.825 85.84688 308.825Q86.53438 308.825 87.05 309.10626Q87.58125 309.3875 87.925 309.91876Q88.26875 310.4344 88.45625 311.1844Q88.64375 311.9344 88.64375 313.21564Q88.64375 314.73126 88.33125 315.65314Q88.03438 316.575 87.40938 317.09064Q86.8 317.59064 85.84688 317.59064Q84.6125 317.59064 83.89375 316.7Q83.05 315.6375 83.05 313.21564ZM84.12813 313.21564Q84.12813 315.325 84.62813 316.02814Q85.12813 316.73126 85.84688 316.73126Q86.58125 316.73126 87.06563 316.02814Q87.56563 315.325 87.56563 313.21564Q87.56563 311.09064 87.06563 310.40314Q86.58125 309.7 85.83125 309.7Q85.1125 309.7 84.675 310.3094Q84.12813 311.09064 84.12813 313.21564Z" fill-rule="nonzero"/><path fill="#000000" d="M138.50447 317.45L137.4576 317.45L137.4576 310.73126Q137.06697 311.09064 136.44197 311.46564Q135.8326 311.825 135.34822 311.9969L135.34822 310.98126Q136.22322 310.5594 136.87947 309.98126Q137.55135 309.3875 137.8326 308.825L138.50447 308.825L138.50447 317.45ZM141.53572 315.2L142.6451 315.10626Q142.7701 315.91876 143.2076 316.325Q143.66072 316.73126 144.30135 316.73126Q145.05135 316.73126 145.5826 316.15314Q146.11385 315.575 146.11385 314.6375Q146.11385 313.73126 145.59822 313.21564Q145.09822 312.6844 144.2701 312.6844Q143.7701 312.6844 143.34822 312.91876Q142.94197 313.15314 142.7076 313.5125L141.72322 313.3875L142.55135 308.98126L146.8326 308.98126L146.8326 309.98126L143.3951 309.98126L142.94197 312.29376Q143.7076 311.7469 144.55135 311.7469Q145.67635 311.7469 146.44197 312.52814Q147.22322 313.3094 147.22322 314.54376Q147.22322 315.7 146.55135 316.5594Q145.72322 317.59064 144.30135 317.59064Q143.12947 317.59064 142.37947 316.9344Q141.6451 316.27814 141.53572 315.2ZM149.12947 317.45L149.12947 316.2469L150.3326 316.2469L150.3326 317.45L149.12947 317.45ZM151.53572 313.21564Q151.53572 311.6844 151.84822 310.7625Q152.16072 309.825 152.7701 309.325Q153.3951 308.825 154.3326 308.825Q155.0201 308.825 155.53572 309.10626Q156.06697 309.3875 156.41072 309.91876Q156.75447 310.4344 156.94197 311.1844Q157.12947 311.9344 157.12947 313.21564Q157.12947 314.73126 156.81697 315.65314Q156.5201 316.575 155.8951 317.09064Q155.28572 317.59064 154.3326 317.59064Q153.09822 317.59064 152.37947 316.7Q151.53572 315.6375 151.53572 313.21564ZM152.61385 313.21564Q152.61385 315.325 153.11385 316.02814Q153.61385 316.73126 154.3326 316.73126Q155.06697 316.73126 155.55135 316.02814Q156.05135 315.325 156.05135 313.21564Q156.05135 311.09064 155.55135 310.40314Q155.06697 309.7 154.31697 309.7Q153.59822 309.7 153.16072 310.3094Q152.61385 311.09064 152.61385 313.21564ZM158.53572 313.21564Q158.53572 311.6844 158.84822 310.7625Q159.16072 309.825 159.7701 309.325Q160.3951 308.825 161.3326 308.825Q162.0201 308.825 162.53572 309.10626Q163.06697 309.3875 163.41072 309.91876Q163.75447 310.4344 163.94197 311.1844Q164.12947 311.9344 164.12947 313.21564Q164.12947 314.73126 163.81697 315.65314Q163.5201 316.575 162.8951 317.09064Q162.28572 317.59064 161.3326 317.59064Q160.09822 317.59064 159.37947 316.7Q158.53572 315.6375 158.53572 313.21564ZM159.61385 313.21564Q159.61385 315.325 160.11385 316.02814Q160.61385 316.73126 161.3326 316.73126Q162.06697 316.73126 162.55135 316.02814Q163.05135 315.325 163.05135 313.21564Q163.05135 311.09064 162.55135 310.40314Q162.06697 309.7 161.31697 309.7Q160.59822 309.7 160.16072 310.3094Q159.61385 311.09064 159.61385 313.21564Z" fill-rule="nonzero"/><path fill="#000000" d="M206.52142 315.1844L207.58392 315.04376Q207.7558 315.9344 208.1933 316.34064Q208.6308 316.73126 209.2558 316.73126Q210.0058 316.73126 210.52142 316.21564Q211.03705 315.7 211.03705 314.9344Q211.03705 314.21564 210.55267 313.7469Q210.08392 313.2625 209.34955 313.2625Q209.05267 313.2625 208.59955 313.3875L208.72455 312.45Q208.83392 312.46564 208.89642 312.46564Q209.5683 312.46564 210.09955 312.1219Q210.64642 311.7625 210.64642 311.02814Q210.64642 310.45 210.2558 310.075Q209.86517 309.6844 209.24017 309.6844Q208.6308 309.6844 208.20892 310.075Q207.80267 310.46564 207.6933 311.23126L206.6308 311.04376Q206.8183 309.9969 207.5058 309.41876Q208.1933 308.825 209.20892 308.825Q209.91205 308.825 210.5058 309.1375Q211.09955 309.4344 211.41205 309.95Q211.72455 310.46564 211.72455 311.0594Q211.72455 311.60626 211.42767 312.075Q211.1308 312.52814 210.55267 312.79376Q211.30267 312.96564 211.72455 313.52814Q212.14642 314.075 212.14642 314.91876Q212.14642 316.04376 211.3183 316.825Q210.5058 317.60626 209.2558 317.60626Q208.1308 317.60626 207.3808 316.9344Q206.6308 316.2469 206.52142 315.1844ZM213.52142 313.21564Q213.52142 311.6844 213.83392 310.7625Q214.14642 309.825 214.7558 309.325Q215.3808 308.825 216.3183 308.825Q217.0058 308.825 217.52142 309.10626Q218.05267 309.3875 218.39642 309.91876Q218.74017 310.4344 218.92767 311.1844Q219.11517 311.9344 219.11517 313.21564Q219.11517 314.73126 218.80267 315.65314Q218.5058 316.575 217.8808 317.09064Q217.27142 317.59064 216.3183 317.59064Q215.08392 317.59064 214.36517 316.7Q213.52142 315.6375 213.52142 313.21564ZM214.59955 313.21564Q214.59955 315.325 215.09955 316.02814Q215.59955 316.73126 216.3183 316.73126Q217.05267 316.73126 217.53705 316.02814Q218.03705 315.325 218.03705 313.21564Q218.03705 311.09064 217.53705 310.40314Q217.05267 309.7 216.30267 309.7Q215.58392 309.7 215.14642 310.3094Q214.59955 311.09064 214.59955 313.21564ZM221.11517 317.45L221.11517 316.2469L222.3183 316.2469L222.3183 317.45L221.11517 317.45ZM223.52142 313.21564Q223.52142 311.6844 223.83392 310.7625Q224.14642 309.825 224.7558 309.325Q225.3808 308.825 226.3183 308.825Q227.0058 308.825 227.52142 309.10626Q228.05267 309.3875 228.39642 309.91876Q228.74017 310.4344 228.92767 311.1844Q229.11517 311.9344 229.11517 313.21564Q229.11517 314.73126 228.80267 315.65314Q228.5058 316.575 227.8808 317.09064Q227.27142 317.59064 226.3183 317.59064Q225.08392 317.59064 224.36517 316.7Q223.52142 315.6375 223.52142 313.21564ZM224.59955 313.21564Q224.59955 315.325 225.09955 316.02814Q225.59955 316.73126 226.3183 316.73126Q227.05267 316.73126 227.53705 316.02814Q228.03705 315.325 228.03705 313.21564Q228.03705 311.09064 227.53705 310.40314Q227.05267 309.7 226.30267 309.7Q225.58392 309.7 225.14642 310.3094Q224.59955 311.09064 224.59955 313.21564ZM230.52142 313.21564Q230.52142 311.6844 230.83392 310.7625Q231.14642 309.825 231.7558 309.325Q232.3808 308.825 233.3183 308.825Q234.0058 308.825 234.52142 309.10626Q235.05267 309.3875 235.39642 309.91876Q235.74017 310.4344 235.92767 311.1844Q236.11517 311.9344 236.11517 313.21564Q236.11517 314.73126 235.80267 315.65314Q235.5058 316.575 234.8808 317.09064Q234.27142 317.59064 233.3183 317.59064Q232.08392 317.59064 231.36517 316.7Q230.52142 315.6375 230.52142 313.21564ZM231.59955 313.21564Q231.59955 315.325 232.09955 316.02814Q232.59955 316.73126 233.3183 316.73126Q234.05267 316.73126 234.53705 316.02814Q235.03705 315.325 235.03705 313.21564Q235.03705 311.09064 234.53705 310.40314Q234.05267 309.7 233.30267 309.7Q232.58392 309.7 232.14642 310.3094Q231.59955 311.09064 231.59955 313.21564Z" fill-rule="nonzero"/><path fill="#000000" d="M281.88214 317.45L281.88214 315.3875L278.1634 315.3875L278.1634 314.41876L282.08527 308.85626L282.94464 308.85626L282.94464 314.41876L284.1009 314.41876L284.1009 315.3875L282.94464 315.3875L282.94464 317.45L281.88214 317.45ZM281.88214 314.41876L281.88214 310.5594L279.19464 314.41876L281.88214 314.41876ZM285.50714 315.2L286.61652 315.10626Q286.74152 315.91876 287.17902 316.325Q287.63214 316.73126 288.27277 316.73126Q289.02277 316.73126 289.55402 316.15314Q290.08527 315.575 290.08527 314.6375Q290.08527 313.73126 289.56964 313.21564Q289.06964 312.6844 288.24152 312.6844Q287.74152 312.6844 287.31964 312.91876Q286.9134 313.15314 286.67902 313.5125L285.69464 313.3875L286.52277 308.98126L290.80402 308.98126L290.80402 309.98126L287.36652 309.98126L286.9134 312.29376Q287.67902 311.7469 288.52277 311.7469Q289.64777 311.7469 290.4134 312.52814Q291.19464 313.3094 291.19464 314.54376Q291.19464 315.7 290.52277 316.5594Q289.69464 317.59064 288.27277 317.59064Q287.1009 317.59064 286.3509 316.9344Q285.61652 316.27814 285.50714 315.2ZM293.1009 317.45L293.1009 316.2469L294.30402 316.2469L294.30402 317.45L293.1009 317.45ZM295.50714 313.21564Q295.50714 311.6844 295.81964 310.7625Q296.13214 309.825 296.74152 309.325Q297.36652 308.825 298.30402 308.825Q298.99152 308.825 299.50714 309.10626Q300.0384 309.3875 300.38214 309.91876Q300.7259 310.4344 300.9134 311.1844Q301.1009 311.9344 301.1009 313.21564Q301.1009 314.73126 300.7884 315.65314Q300.49152 316.575 299.86652 317.09064Q299.25714 317.59064 298.30402 317.59064Q297.06964 317.59064 296.3509 316.7Q295.50714 315.6375 295.50714 313.21564ZM296.58527 313.21564Q296.58527 315.325 297.08527 316.02814Q297.58527 316.73126 298.30402 316.73126Q299.0384 316.73126 299.52277 316.02814Q300.02277 315.325 300.02277 313.21564Q300.02277 311.09064 299.52277 310.40314Q299.0384 309.7 298.2884 309.7Q297.56964 309.7 297.13214 310.3094Q296.58527 311.09064 296.58527 313.21564ZM302.50714 313.21564Q302.50714 311.6844 302.81964 310.7625Q303.13214 309.825 303.74152 309.325Q304.36652 308.825 305.30402 308.825Q305.99152 308.825 306.50714 309.10626Q307.0384 309.3875 307.38214 309.91876Q307.7259 310.4344 307.9134 311.1844Q308.1009 311.9344 308.1009 313.21564Q308.1009 314.73126 307.7884 315.65314Q307.49152 316.575 306.86652 317.09064Q306.25714 317.59064 305.30402 317.59064Q304.06964 317.59064 303.3509 316.7Q302.50714 315.6375 302.50714 313.21564ZM303.58527 313.21564Q303.58527 315.325 304.08527 316.02814Q304.58527 316.73126 305.30402 316.73126Q306.0384 316.73126 306.52277 316.02814Q307.02277 315.325 307.02277 313.21564Q307.02277 311.09064 306.52277 310.40314Q306.0384 309.7 305.2884 309.7Q304.56964 309.7 304.13214 310.3094Q303.58527 311.09064 303.58527 313.21564Z" fill-rule="nonzero"/><path fill="#000000" d="M355.9616 310.96564L354.91473 311.04376Q354.7741 310.41876 354.5241 310.1375Q354.0866 309.6844 353.4616 309.6844Q352.9616 309.6844 352.57098 309.96564Q352.0866 310.34064 351.78973 311.04376Q351.50848 311.73126 351.49286 313.0125Q351.86786 312.4344 352.41473 312.15314Q352.97723 311.8719 353.5866 311.8719Q354.63348 311.8719 355.36786 312.65314Q356.11786 313.4344 356.11786 314.65314Q356.11786 315.46564 355.75848 316.16876Q355.41473 316.85626 354.80536 317.23126Q354.19598 317.59064 353.43036 317.59064Q352.10223 317.59064 351.2741 316.6219Q350.44598 315.65314 350.44598 313.4344Q350.44598 310.9344 351.36786 309.8094Q352.16473 308.825 353.5241 308.825Q354.53973 308.825 355.18036 309.40314Q355.8366 309.96564 355.9616 310.96564ZM351.66473 314.66876Q351.66473 315.21564 351.88348 315.71564Q352.11786 316.2 352.5241 316.46564Q352.94598 316.73126 353.41473 316.73126Q354.07098 316.73126 354.55536 316.2Q355.03973 315.65314 355.03973 314.73126Q355.03973 313.84064 354.55536 313.325Q354.0866 312.8094 353.36786 312.8094Q352.6491 312.8094 352.1491 313.325Q351.66473 313.84064 351.66473 314.66876ZM357.49286 313.21564Q357.49286 311.6844 357.80536 310.7625Q358.11786 309.825 358.72723 309.325Q359.35223 308.825 360.28973 308.825Q360.97723 308.825 361.49286 309.10626Q362.0241 309.3875 362.36786 309.91876Q362.7116 310.4344 362.8991 311.1844Q363.0866 311.9344 363.0866 313.21564Q363.0866 314.73126 362.7741 315.65314Q362.47723 316.575 361.85223 317.09064Q361.24286 317.59064 360.28973 317.59064Q359.05536 317.59064 358.3366 316.7Q357.49286 315.6375 357.49286 313.21564ZM358.57098 313.21564Q358.57098 315.325 359.07098 316.02814Q359.57098 316.73126 360.28973 316.73126Q361.0241 316.73126 361.50848 316.02814Q362.00848 315.325 362.00848 313.21564Q362.00848 311.09064 361.50848 310.40314Q361.0241 309.7 360.2741 309.7Q359.55536 309.7 359.11786 310.3094Q358.57098 311.09064 358.57098 313.21564ZM365.0866 317.45L365.0866 316.2469L366.28973 316.2469L366.28973 317.45L365.0866 317.45ZM367.49286 313.21564Q367.49286 311.6844 367.80536 310.7625Q368.11786 309.825 368.72723 309.325Q369.35223 308.825 370.28973 308.825Q370.97723 308.825 371.49286 309.10626Q372.0241 309.3875 372.36786 309.91876Q372.7116 310.4344 372.8991 311.1844Q373.0866 311.9344 373.0866 313.21564Q373.0866 314.73126 372.7741 315.65314Q372.47723 316.575 371.85223 317.09064Q371.24286 317.59064 370.28973 317.59064Q369.05536 317.59064 368.3366 316.7Q367.49286 315.6375 367.49286 313.21564ZM368.57098 313.21564Q368.57098 315.325 369.07098 316.02814Q369.57098 316.73126 370.28973 316.73126Q371.0241 316.73126 371.50848 316.02814Q372.00848 315.325 372.00848 313.21564Q372.00848 311.09064 371.50848 310.40314Q371.0241 309.7 370.2741 309.7Q369.55536 309.7 369.11786 310.3094Q368.57098 311.09064 368.57098 313.21564ZM374.49286 313.21564Q374.49286 311.6844 374.80536 310.7625Q375.11786 309.825 375.72723 309.325Q376.35223 308.825 377.28973 308.825Q377.97723 308.825 378.49286 309.10626Q379.0241 309.3875 379.36786 309.91876Q379.7116 310.4344 379.8991 311.1844Q380.0866 311.9344 380.0866 313.21564Q380.0866 314.73126 379.7741 315.65314Q379.47723 316.575 378.85223 317.09064Q378.24286 317.59064 377.28973 317.59064Q376.05536 317.59064 375.3366 316.7Q374.49286 315.6375 374.49286 313.21564ZM375.57098 313.21564Q375.57098 315.325 376.07098 316.02814Q376.57098 316.73126 377.28973 316.73126Q378.0241 316.73126 378.50848 316.02814Q379.00848 315.325 379.00848 313.21564Q379.00848 311.09064 378.50848 310.40314Q378.0241 309.7 377.2741 309.7Q376.55536 309.7 376.11786 310.3094Q375.57098 311.09064 375.57098 313.21564Z" fill-rule="nonzero"/><path fill="#000000" d="M422.54108 309.98126L422.54108 308.96564L428.10358 308.96564L428.10358 309.79376Q427.29108 310.66876 426.47858 312.1219Q425.6817 313.5594 425.2442 315.09064Q424.91608 316.16876 424.83795 317.45L423.7442 317.45Q423.75983 316.4344 424.13483 314.9969Q424.52545 313.5594 425.22858 312.23126Q425.94733 310.90314 426.75983 309.98126L422.54108 309.98126ZM429.47858 315.2L430.58795 315.10626Q430.71295 315.91876 431.15045 316.325Q431.60358 316.73126 432.2442 316.73126Q432.9942 316.73126 433.52545 316.15314Q434.0567 315.575 434.0567 314.6375Q434.0567 313.73126 433.54108 313.21564Q433.04108 312.6844 432.21295 312.6844Q431.71295 312.6844 431.29108 312.91876Q430.88483 313.15314 430.65045 313.5125L429.66608 313.3875L430.4942 308.98126L434.77545 308.98126L434.77545 309.98126L431.33795 309.98126L430.88483 312.29376Q431.65045 311.7469 432.4942 311.7469Q433.6192 311.7469 434.38483 312.52814Q435.16608 313.3094 435.16608 314.54376Q435.16608 315.7 434.4942 316.5594Q433.66608 317.59064 432.2442 317.59064Q431.07233 317.59064 430.32233 316.9344Q429.58795 316.27814 429.47858 315.2ZM437.07233 317.45L437.07233 316.2469L438.27545 316.2469L438.27545 317.45L437.07233 317.45ZM439.47858 313.21564Q439.47858 311.6844 439.79108 310.7625Q440.10358 309.825 440.71295 309.325Q441.33795 308.825 442.27545 308.825Q442.96295 308.825 443.47858 309.10626Q444.00983 309.3875 444.35358 309.91876Q444.69733 310.4344 444.88483 311.1844Q445.07233 311.9344 445.07233 313.21564Q445.07233 314.73126 444.75983 315.65314Q444.46295 316.575 443.83795 317.09064Q443.22858 317.59064 442.27545 317.59064Q441.04108 317.59064 440.32233 316.7Q439.47858 315.6375 439.47858 313.21564ZM440.5567 313.21564Q440.5567 315.325 441.0567 316.02814Q441.5567 316.73126 442.27545 316.73126Q443.00983 316.73126 443.4942 316.02814Q443.9942 315.325 443.9942 313.21564Q443.9942 311.09064 443.4942 310.40314Q443.00983 309.7 442.25983 309.7Q441.54108 309.7 441.10358 310.3094Q440.5567 311.09064 440.5567 313.21564ZM446.47858 313.21564Q446.47858 311.6844 446.79108 310.7625Q447.10358 309.825 447.71295 309.325Q448.33795 308.825 449.27545 308.825Q449.96295 308.825 450.47858 309.10626Q451.00983 309.3875 451.35358 309.91876Q451.69733 310.4344 451.88483 311.1844Q452.07233 311.9344 452.07233 313.21564Q452.07233 314.73126 451.75983 315.65314Q451.46295 316.575 450.83795 317.09064Q450.22858 317.59064 449.27545 317.59064Q448.04108 317.59064 447.32233 316.7Q446.47858 315.6375 446.47858 313.21564ZM447.5567 313.21564Q447.5567 315.325 448.0567 316.02814Q448.5567 316.73126 449.27545 316.73126Q450.00983 316.73126 450.4942 316.02814Q450.9942 315.325 450.9942 313.21564Q450.9942 311.09064 450.4942 310.40314Q450.00983 309.7 449.25983 309.7Q448.54108 309.7 448.10358 310.3094Q447.5567 311.09064 447.5567 313.21564Z" fill-rule="nonzero"/><path fill="#000000" d="M494.62054 315.46564L495.63617 315.3719Q495.76117 316.09064 496.12054 316.41876Q496.49554 316.73126 497.05804 316.73126Q497.54242 316.73126 497.9018 316.5125Q498.2768 316.27814 498.51117 315.91876Q498.74554 315.54376 498.9018 314.91876Q499.05804 314.27814 499.05804 313.6219Q499.05804 313.54376 499.05804 313.40314Q498.74554 313.90314 498.19867 314.23126Q497.6518 314.54376 497.01117 314.54376Q495.93304 314.54376 495.19867 313.77814Q494.4643 312.9969 494.4643 311.73126Q494.4643 310.41876 495.22992 309.6219Q496.01117 308.825 497.16742 308.825Q497.99554 308.825 498.68304 309.27814Q499.38617 309.73126 499.74554 310.575Q500.10492 311.40314 500.10492 312.98126Q500.10492 314.6219 499.74554 315.60626Q499.4018 316.575 498.68304 317.09064Q497.97992 317.59064 497.04242 317.59064Q496.0268 317.59064 495.38617 317.04376Q494.74554 316.48126 494.62054 315.46564ZM498.93304 311.66876Q498.93304 310.7625 498.44867 310.23126Q497.97992 309.7 497.29242 309.7Q496.5893 309.7 496.05804 310.27814Q495.54242 310.84064 495.54242 311.7625Q495.54242 312.575 496.04242 313.09064Q496.54242 313.60626 497.26117 313.60626Q497.99554 313.60626 498.4643 313.09064Q498.93304 312.575 498.93304 311.66876ZM501.4643 313.21564Q501.4643 311.6844 501.7768 310.7625Q502.0893 309.825 502.69867 309.325Q503.32367 308.825 504.26117 308.825Q504.94867 308.825 505.4643 309.10626Q505.99554 309.3875 506.3393 309.91876Q506.68304 310.4344 506.87054 311.1844Q507.05804 311.9344 507.05804 313.21564Q507.05804 314.73126 506.74554 315.65314Q506.44867 316.575 505.82367 317.09064Q505.2143 317.59064 504.26117 317.59064Q503.0268 317.59064 502.30804 316.7Q501.4643 315.6375 501.4643 313.21564ZM502.54242 313.21564Q502.54242 315.325 503.04242 316.02814Q503.54242 316.73126 504.26117 316.73126Q504.99554 316.73126 505.47992 316.02814Q505.97992 315.325 505.97992 313.21564Q505.97992 311.09064 505.47992 310.40314Q504.99554 309.7 504.24554 309.7Q503.5268 309.7 503.0893 310.3094Q502.54242 311.09064 502.54242 313.21564ZM509.05804 317.45L509.05804 316.2469L510.26117 316.2469L510.26117 317.45L509.05804 317.45ZM511.4643 313.21564Q511.4643 311.6844 511.7768 310.7625Q512.0893 309.825 512.69867 309.325Q513.32367 308.825 514.26117 308.825Q514.94867 308.825 515.4643 309.10626Q515.99554 309.3875 516.3393 309.91876Q516.68304 310.4344 516.87054 311.1844Q517.05804 311.9344 517.05804 313.21564Q517.05804 314.73126 516.74554 315.65314Q516.44867 316.575 515.82367 317.09064Q515.2143 317.59064 514.26117 317.59064Q513.0268 317.59064 512.30804 316.7Q511.4643 315.6375 511.4643 313.21564ZM512.5424 313.21564Q512.5424 315.325 513.0424 316.02814Q513.5424 316.73126 514.26117 316.73126Q514.99554 316.73126 515.4799 316.02814Q515.9799 315.325 515.9799 313.21564Q515.9799 311.09064 515.4799 310.40314Q514.99554 309.7 514.24554 309.7Q513.5268 309.7 513.0893 310.3094Q512.5424 311.09064 512.5424 313.21564ZM518.4643 313.21564Q518.4643 311.6844 518.7768 310.7625Q519.0893 309.825 519.69867 309.325Q520.32367 308.825 521.26117 308.825Q521.94867 308.825 522.4643 309.10626Q522.99554 309.3875 523.3393 309.91876Q523.68304 310.4344 523.87054 311.1844Q524.05804 311.9344 524.05804 313.21564Q524.05804 314.73126 523.74554 315.65314Q523.44867 316.575 522.82367 317.09064Q522.2143 317.59064 521.26117 317.59064Q520.0268 317.59064 519.30804 316.7Q518.4643 315.6375 518.4643 313.21564ZM519.5424 313.21564Q519.5424 315.325 520.0424 316.02814Q520.5424 316.73126 521.26117 316.73126Q521.99554 316.73126 522.4799 316.02814Q522.9799 315.325 522.9799 313.21564Q522.9799 311.09064 522.4799 310.40314Q521.99554 309.7 521.24554 309.7Q520.5268 309.7 520.0893 310.3094Q519.5424 311.09064 519.5424 313.21564Z" fill-rule="nonzero"/><path fill="#4285f4" d="M234.0 56.916668C234.0 56.364384 234.44771 55.916668 235.0 55.916668L245.0 55.916668C245.55229 55.916668 246.0 56.364384 246.0 56.916668L246.0 66.916664C246.0 67.46895 245.55229 67.916664 245.0 67.916664L235.0 67.916664C234.44771 67.916664 234.0 67.46895 234.0 66.916664Z" fill-rule="nonzero"/><path fill="#000000" d="M256.8125 68.447914Q255.9375 67.33854 255.32812 65.86979Q254.73438 64.385414 254.73438 62.80729Q254.73438 61.416664 255.17188 60.135414Q255.70312 58.65104 256.8125 57.18229L257.5625 57.18229Q256.85938 58.40104 256.625 58.916664Q256.26562 59.729164 256.0625 60.604164Q255.8125 61.697914 255.8125 62.80729Q255.8125 65.635414 257.5625 68.447914L256.8125 68.447914ZM262.85938 63.635414L263.89062 63.77604Q263.71875 64.83854 263.01562 65.447914Q262.3125 66.05729 261.29688 66.05729Q260.01562 66.05729 259.23438 65.229164Q258.46875 64.385414 258.46875 62.822914Q258.46875 61.822914 258.79688 61.072914Q259.14062 60.30729 259.8125 59.93229Q260.5 59.55729 261.3125 59.55729Q262.3125 59.55729 262.95312 60.072914Q263.60938 60.572914 263.79688 61.52604L262.76562 61.68229Q262.625 61.05729 262.25 60.74479Q261.875 60.416664 261.34375 60.416664Q260.54688 60.416664 260.04688 60.99479Q259.54688 61.55729 259.54688 62.791664Q259.54688 64.05729 260.03125 64.61979Q260.51562 65.18229 261.28125 65.18229Q261.90625 65.18229 262.3125 64.80729Q262.73438 64.43229 262.85938 63.635414ZM264.40625 62.80729Q264.40625 61.072914 265.35938 60.24479Q266.15625 59.55729 267.3125 59.55729Q268.59375 59.55729 269.40625 60.40104Q270.23438 61.229164 270.23438 62.71354Q270.23438 63.916664 269.875 64.604164Q269.51562 65.291664 268.8125 65.68229Q268.125 66.05729 267.3125 66.05729Q266.01562 66.05729 265.20312 65.229164Q264.40625 64.385414 264.40625 62.80729ZM265.48438 62.80729Q265.48438 63.99479 266.0 64.58854Q266.53125 65.18229 267.3125 65.18229Q268.10938 65.18229 268.625 64.58854Q269.14062 63.99479 269.14062 62.77604Q269.14062 61.61979 268.60938 61.02604Q268.09375 60.43229 267.3125 60.43229Q266.53125 60.43229 266.0 61.02604Q265.48438 61.604164 265.48438 62.80729ZM275.875 65.916664L275.875 64.99479Q275.14062 66.05729 273.89062 66.05729Q273.34375 66.05729 272.85938 65.854164Q272.39062 65.635414 272.15625 65.322914Q271.92188 64.99479 271.82812 64.52604Q271.76562 64.229164 271.76562 63.541664L271.76562 59.697914L272.82812 59.697914L272.82812 63.15104Q272.82812 63.96354 272.89062 64.260414Q272.98438 64.666664 273.29688 64.916664Q273.625 65.15104 274.10938 65.15104Q274.57812 65.15104 274.98438 64.916664Q275.40625 64.666664 275.57812 64.24479Q275.76562 63.822914 275.76562 63.02604L275.76562 59.697914L276.8125 59.697914L276.8125 65.916664L275.875 65.916664ZM278.79688 65.916664L278.79688 59.697914L279.73438 59.697914L279.73438 60.572914Q280.42188 59.55729 281.71875 59.55729Q282.28125 59.55729 282.75 59.760414Q283.23438 59.96354 283.46875 60.291664Q283.70312 60.61979 283.79688 61.05729Q283.84375 61.354164 283.84375 62.08854L283.84375 65.916664L282.79688 65.916664L282.79688 62.135414Q282.79688 61.479164 282.67188 61.166664Q282.54688 60.854164 282.23438 60.666664Q281.92188 60.46354 281.5 60.46354Q280.82812 60.46354 280.32812 60.90104Q279.84375 61.322914 279.84375 62.510414L279.84375 65.916664L278.79688 65.916664ZM288.09375 64.979164L288.25 65.90104Q287.79688 65.99479 287.45312 65.99479Q286.875 65.99479 286.5625 65.822914Q286.25 65.635414 286.10938 65.33854Q285.98438 65.041664 285.98438 64.08854L285.98438 60.510414L285.21875 60.510414L285.21875 59.697914L285.98438 59.697914L285.98438 58.15104L287.03125 57.52604L287.03125 59.697914L288.09375 59.697914L288.09375 60.510414L287.03125 60.510414L287.03125 64.15104Q287.03125 64.604164 287.07812 64.729164Q287.14062 64.854164 287.26562 64.93229Q287.39062 65.010414 287.625 65.010414Q287.8125 65.010414 288.09375 64.979164ZM289.48438 68.447914L288.73438 68.447914Q290.48438 65.635414 290.48438 62.80729Q290.48438 61.71354 290.23438 60.61979Q290.03125 59.74479 289.67188 58.93229Q289.4375 58.416664 288.73438 57.18229L289.48438 57.18229Q290.57812 58.65104 291.10938 60.135414Q291.5625 61.416664 291.5625 62.80729Q291.5625 64.385414 290.95312 65.86979Q290.34375 67.33854 289.48438 68.447914Z" fill-rule="nonzero"/><path fill="#ea4335" d="M308.0 56.916668C308.0 56.364384 308.44772 55.916668 309.0 55.916668L319.0 55.916668C319.55228 55.916668 320.0 56.364384 320.0 56.916668L320.0 66.916664C320.0 67.46895 319.55228 67.916664 319.0 67.916664L309.0 67.916664C308.44772 67.916664 308.0 67.46895 308.0 66.916664Z" fill-rule="nonzero"/><path fill="#000000" d="M330.8125 68.447914Q329.9375 67.33854 329.32812 65.86979Q328.73438 64.385414 328.73438 62.80729Q328.73438 61.416664 329.17188 60.135414Q329.70312 58.65104 330.8125 57.18229L331.5625 57.18229Q330.85938 58.40104 330.625 58.916664Q330.26562 59.729164 330.0625 60.604164Q329.8125 61.697914 329.8125 62.80729Q329.8125 65.635414 331.5625 68.447914L330.8125 68.447914ZM336.85938 63.635414L337.89062 63.77604Q337.71875 64.83854 337.01562 65.447914Q336.3125 66.05729 335.29688 66.05729Q334.01562 66.05729 333.23438 65.229164Q332.46875 64.385414 332.46875 62.822914Q332.46875 61.822914 332.79688 61.072914Q333.14062 60.30729 333.8125 59.93229Q334.5 59.55729 335.3125 59.55729Q336.3125 59.55729 336.95312 60.072914Q337.60938 60.572914 337.79688 61.52604L336.76562 61.68229Q336.625 61.05729 336.25 60.74479Q335.875 60.416664 335.34375 60.416664Q334.54688 60.416664 334.04688 60.99479Q333.54688 61.55729 333.54688 62.791664Q333.54688 64.05729 334.03125 64.61979Q334.51562 65.18229 335.28125 65.18229Q335.90625 65.18229 336.3125 64.80729Q336.73438 64.43229 336.85938 63.635414ZM338.40625 62.80729Q338.40625 61.072914 339.35938 60.24479Q340.15625 59.55729 341.3125 59.55729Q342.59375 59.55729 343.40625 60.40104Q344.23438 61.229164 344.23438 62.71354Q344.23438 63.916664 343.875 64.604164Q343.51562 65.291664 342.8125 65.68229Q342.125 66.05729 341.3125 66.05729Q340.01562 66.05729 339.20312 65.229164Q338.40625 64.385414 338.40625 62.80729ZM339.48438 62.80729Q339.48438 63.99479 340.0 64.58854Q340.53125 65.18229 341.3125 65.18229Q342.10938 65.18229 342.625 64.58854Q343.14062 63.99479 343.14062 62.77604Q343.14062 61.61979 342.60938 61.02604Q342.09375 60.43229 341.3125 60.43229Q340.53125 60.43229 340.0 61.02604Q339.48438 61.604164 339.48438 62.80729ZM349.875 65.916664L349.875 64.99479Q349.14062 66.05729 347.89062 66.05729Q347.34375 66.05729 346.85938 65.854164Q346.39062 65.635414 346.15625 65.322914Q345.92188 64.99479 345.82812 64.52604Q345.76562 64.229164 345.76562 63.541664L345.76562 59.697914L346.82812 59.697914L346.82812 63.15104Q346.82812 63.96354 346.89062 64.260414Q346.98438 64.666664 347.29688 64.916664Q347.625 65.15104 348.10938 65.15104Q348.57812 65.15104 348.98438 64.916664Q349.40625 64.666664 349.57812 64.24479Q349.76562 63.822914 349.76562 63.02604L349.76562 59.697914L350.8125 59.697914L350.8125 65.916664L349.875 65.916664ZM352.79688 65.916664L352.79688 59.697914L353.73438 59.697914L353.73438 60.572914Q354.42188 59.55729 355.71875 59.55729Q356.28125 59.55729 356.75 59.760414Q357.23438 59.96354 357.46875 60.291664Q357.70312 60.61979 357.79688 61.05729Q357.84375 61.354164 357.84375 62.08854L357.84375 65.916664L356.79688 65.916664L356.79688 62.135414Q356.79688 61.479164 356.67188 61.166664Q356.54688 60.854164 356.23438 60.666664Q355.92188 60.46354 355.5 60.46354Q354.82812 60.46354 354.32812 60.90104Q353.84375 61.322914 353.84375 62.510414L353.84375 65.916664L352.79688 65.916664ZM362.09375 64.979164L362.25 65.90104Q361.79688 65.99479 361.45312 65.99479Q360.875 65.99479 360.5625 65.822914Q360.25 65.635414 360.10938 65.33854Q359.98438 65.041664 359.98438 64.08854L359.98438 60.510414L359.21875 60.510414L359.21875 59.697914L359.98438 59.697914L359.98438 58.15104L361.03125 57.52604L361.03125 59.697914L362.09375 59.697914L362.09375 60.510414L361.03125 60.510414L361.03125 64.15104Q361.03125 64.604164 361.07812 64.729164Q361.14062 64.854164 361.26562 64.93229Q361.39062 65.010414 361.625 65.010414Q361.8125 65.010414 362.09375 64.979164ZM363.48438 68.447914L362.73438 68.447914Q364.48438 65.635414 364.48438 62.80729Q364.48438 61.71354 364.23438 60.61979Q364.03125 59.74479 363.67188 58.93229Q363.4375 58.416664 362.73438 57.18229L363.48438 57.18229Q364.57812 58.65104 365.10938 60.135414Q365.5625 61.416664 365.5625 62.80729Q365.5625 64.385414 364.95312 65.86979Q364.34375 67.33854 363.48438 68.447914Z" fill-rule="nonzero"/><path fill="#000000" d="M191.57812 37.55L191.57812 23.2375L197.92188 23.2375Q199.82812 23.2375 200.82812 23.628124Q201.82812 24.003124 202.42188 24.9875Q203.01562 25.95625 203.01562 27.14375Q203.01562 28.659374 202.03125 29.70625Q201.04688 30.753124 198.98438 31.034374Q199.73438 31.39375 200.125 31.753124Q200.95312 32.503124 201.70312 33.659374L204.1875 37.55L201.8125 37.55L199.90625 34.565624Q199.07812 33.284374 198.54688 32.596874Q198.01562 31.909374 197.57812 31.64375Q197.15625 31.3625 196.71875 31.253124Q196.39062 31.190624 195.67188 31.190624L193.46875 31.190624L193.46875 37.55L191.57812 37.55ZM193.46875 29.55L197.54688 29.55Q198.84375 29.55 199.5625 29.284374Q200.29688 29.01875 200.67188 28.425Q201.0625 27.83125 201.0625 27.14375Q201.0625 26.128124 200.32812 25.471874Q199.59375 24.815624 198.0 24.815624L193.46875 24.815624L193.46875 29.55ZM212.09375 36.26875Q211.10938 37.096874 210.20312 37.440624Q209.29688 37.784374 208.26562 37.784374Q206.5625 37.784374 205.64062 36.95625Q204.71875 36.1125 204.71875 34.815624Q204.71875 34.05 205.0625 33.425Q205.42188 32.8 205.98438 32.425Q206.54688 32.034374 207.25 31.83125Q207.76562 31.70625 208.8125 31.565624Q210.9375 31.315624 211.9375 30.971874Q211.95312 30.6125 211.95312 30.503124Q211.95312 29.440624 211.45312 28.9875Q210.78125 28.39375 209.45312 28.39375Q208.20312 28.39375 207.60938 28.83125Q207.03125 29.26875 206.75 30.378124L205.03125 30.14375Q205.26562 29.034374 205.79688 28.3625Q206.32812 27.675 207.34375 27.315624Q208.35938 26.940624 209.70312 26.940624Q211.03125 26.940624 211.85938 27.253124Q212.6875 27.565624 213.07812 28.05Q213.46875 28.51875 213.625 29.2375Q213.71875 29.690624 213.71875 30.8625L213.71875 33.20625Q213.71875 35.659374 213.82812 36.315624Q213.9375 36.95625 214.28125 37.55L212.4375 37.55Q212.17188 37.003124 212.09375 36.26875ZM211.9375 32.346874Q210.98438 32.7375 209.0625 33.003124Q207.98438 33.159374 207.53125 33.3625Q207.09375 33.55 206.84375 33.925Q206.59375 34.3 206.59375 34.76875Q206.59375 35.471874 207.125 35.940624Q207.65625 36.409374 208.6875 36.409374Q209.70312 36.409374 210.48438 35.971874Q211.28125 35.51875 211.65625 34.753124Q211.9375 34.14375 211.9375 32.9875L211.9375 32.346874ZM216.3125 37.55L216.3125 27.175L217.90625 27.175L217.90625 28.659374Q219.04688 26.940624 221.20312 26.940624Q222.14062 26.940624 222.92188 27.284374Q223.71875 27.6125 224.10938 28.159374Q224.5 28.70625 224.65625 29.45625Q224.75 29.95625 224.75 31.175L224.75 37.55L222.98438 37.55L222.98438 31.2375Q222.98438 30.159374 222.78125 29.628124Q222.57812 29.096874 222.04688 28.784374Q221.53125 28.471874 220.82812 28.471874Q219.70312 28.471874 218.89062 29.190624Q218.07812 29.89375 218.07812 31.878124L218.07812 37.55L216.3125 37.55ZM234.04688 37.55L234.04688 36.2375Q233.0625 37.784374 231.14062 37.784374Q229.90625 37.784374 228.85938 37.096874Q227.82812 36.409374 227.25 35.190624Q226.6875 33.971874 226.6875 32.378124Q226.6875 30.815624 227.20312 29.55Q227.71875 28.284374 228.75 27.6125Q229.79688 26.940624 231.0625 26.940624Q232.0 26.940624 232.73438 27.346874Q233.46875 27.7375 233.9375 28.3625L233.9375 23.2375L235.67188 23.2375L235.67188 37.55L234.04688 37.55ZM228.48438 32.378124Q228.48438 34.3625 229.32812 35.346874Q230.17188 36.33125 231.3125 36.33125Q232.46875 36.33125 233.26562 35.39375Q234.07812 34.45625 234.07812 32.51875Q234.07812 30.39375 233.25 29.39375Q232.4375 28.39375 231.23438 28.39375Q230.0625 28.39375 229.26562 29.3625Q228.48438 30.315624 228.48438 32.378124ZM237.67188 32.3625Q237.67188 29.4875 239.26562 28.096874Q240.60938 26.940624 242.53125 26.940624Q244.67188 26.940624 246.01562 28.346874Q247.375 29.753124 247.375 32.221874Q247.375 34.221874 246.78125 35.378124Q246.1875 36.51875 245.03125 37.159374Q243.89062 37.784374 242.53125 37.784374Q240.34375 37.784374 239.0 36.39375Q237.67188 34.9875 237.67188 32.3625ZM239.46875 32.3625Q239.46875 34.3625 240.32812 35.346874Q241.20312 36.33125 242.53125 36.33125Q243.84375 36.33125 244.70312 35.346874Q245.57812 34.346874 245.57812 32.3Q245.57812 30.378124 244.70312 29.39375Q243.82812 28.39375 242.53125 28.39375Q241.20312 28.39375 240.32812 29.39375Q239.46875 30.378124 239.46875 32.3625ZM249.3125 37.55L249.3125 27.175L250.89062 27.175L250.89062 28.628124Q251.375 27.878124 252.1875 27.409374Q253.0 26.940624 254.03125 26.940624Q255.1875 26.940624 255.92188 27.425Q256.65625 27.89375 256.96875 28.753124Q258.20312 26.940624 260.17188 26.940624Q261.71875 26.940624 262.54688 27.8Q263.375 28.659374 263.375 30.425L263.375 37.55L261.625 37.55L261.625 31.01875Q261.625 29.95625 261.45312 29.503124Q261.28125 29.034374 260.82812 28.753124Q260.39062 28.471874 259.78125 28.471874Q258.6875 28.471874 257.95312 29.20625Q257.23438 29.925 257.23438 31.51875L257.23438 37.55L255.48438 37.55L255.48438 30.815624Q255.48438 29.64375 255.04688 29.065624Q254.625 28.471874 253.64062 28.471874Q252.90625 28.471874 252.26562 28.8625Q251.64062 29.253124 251.35938 30.003124Q251.07812 30.753124 251.07812 32.175L251.07812 37.55L249.3125 37.55ZM266.32812 25.253124L266.32812 23.2375L268.09375 23.2375L268.09375 25.253124L266.32812 25.253124ZM266.32812 37.55L266.32812 27.175L268.09375 27.175L268.09375 37.55L266.32812 37.55ZM269.39062 37.55L269.39062 36.128124L276.0 28.55Q274.875 28.596874 274.01562 28.596874L269.78125 28.596874L269.78125 27.175L278.26562 27.175L278.26562 28.346874L272.64062 34.925L271.5625 36.128124Q272.73438 36.034374 273.78125 36.034374L278.57812 36.034374L278.57812 37.55L269.39062 37.55ZM287.42188 34.20625L289.23438 34.440624Q288.8125 36.01875 287.64062 36.909374Q286.48438 37.784374 284.67188 37.784374Q282.40625 37.784374 281.0625 36.39375Q279.73438 34.9875 279.73438 32.45625Q279.73438 29.83125 281.07812 28.39375Q282.42188 26.940624 284.57812 26.940624Q286.65625 26.940624 287.96875 28.3625Q289.29688 29.76875 289.29688 32.346874Q289.29688 32.503124 289.28125 32.815624L281.54688 32.815624Q281.64062 34.51875 282.51562 35.425Q283.39062 36.33125 284.6875 36.33125Q285.65625 36.33125 286.32812 35.83125Q287.01562 35.315624 287.42188 34.20625ZM281.64062 31.3625L287.4375 31.3625Q287.32812 30.065624 286.78125 29.409374Q285.9375 28.39375 284.59375 28.39375Q283.39062 28.39375 282.5625 29.20625Q281.73438 30.003124 281.64062 31.3625ZM298.04688 37.55L298.04688 36.2375Q297.0625 37.784374 295.14062 37.784374Q293.90625 37.784374 292.85938 37.096874Q291.82812 36.409374 291.25 35.190624Q290.6875 33.971874 290.6875 32.378124Q290.6875 30.815624 291.20312 29.55Q291.71875 28.284374 292.75 27.6125Q293.79688 26.940624 295.0625 26.940624Q296.0 26.940624 296.73438 27.346874Q297.46875 27.7375 297.9375 28.3625L297.9375 23.2375L299.67188 23.2375L299.67188 37.55L298.04688 37.55ZM292.48438 32.378124Q292.48438 34.3625 293.32812 35.346874Q294.17188 36.33125 295.3125 36.33125Q296.46875 36.33125 297.26562 35.39375Q298.07812 34.45625 298.07812 32.51875Q298.07812 30.39375 297.25 29.39375Q296.4375 28.39375 295.23438 28.39375Q294.0625 28.39375 293.26562 29.3625Q292.48438 30.315624 292.48438 32.378124ZM308.54688 37.55L308.54688 23.2375L313.46875 23.2375Q315.14062 23.2375 316.03125 23.440624Q317.25 23.721874 318.125 24.45625Q319.25 25.425 319.8125 26.909374Q320.375 28.39375 320.375 30.315624Q320.375 31.940624 320.0 33.20625Q319.625 34.45625 319.01562 35.284374Q318.42188 36.1125 317.71875 36.596874Q317.01562 37.065624 316.01562 37.315624Q315.01562 37.55 313.70312 37.55L308.54688 37.55ZM310.4375 35.8625L313.5 35.8625Q314.90625 35.8625 315.70312 35.596874Q316.51562 35.33125 317.0 34.846874Q317.67188 34.175 318.04688 33.05Q318.42188 31.909374 318.42188 30.284374Q318.42188 28.034374 317.6875 26.83125Q316.95312 25.628124 315.89062 25.221874Q315.14062 24.925 313.45312 24.925L310.4375 24.925L310.4375 35.8625ZM329.09375 36.26875Q328.10938 37.096874 327.20312 37.440624Q326.29688 37.784374 325.26562 37.784374Q323.5625 37.784374 322.64062 36.95625Q321.71875 36.1125 321.71875 34.815624Q321.71875 34.05 322.0625 33.425Q322.42188 32.8 322.98438 32.425Q323.54688 32.034374 324.25 31.83125Q324.76562 31.70625 325.8125 31.565624Q327.9375 31.315624 328.9375 30.971874Q328.95312 30.6125 328.95312 30.503124Q328.95312 29.440624 328.45312 28.9875Q327.78125 28.39375 326.45312 28.39375Q325.20312 28.39375 324.60938 28.83125Q324.03125 29.26875 323.75 30.378124L322.03125 30.14375Q322.26562 29.034374 322.79688 28.3625Q323.32812 27.675 324.34375 27.315624Q325.35938 26.940624 326.70312 26.940624Q328.03125 26.940624 328.85938 27.253124Q329.6875 27.565624 330.07812 28.05Q330.46875 28.51875 330.625 29.2375Q330.71875 29.690624 330.71875 30.8625L330.71875 33.20625Q330.71875 35.659374 330.82812 36.315624Q330.9375 36.95625 331.28125 37.55L329.4375 37.55Q329.17188 37.003124 329.09375 36.26875ZM328.9375 32.346874Q327.98438 32.7375 326.0625 33.003124Q324.98438 33.159374 324.53125 33.3625Q324.09375 33.55 323.84375 33.925Q323.59375 34.3 323.59375 34.76875Q323.59375 35.471874 324.125 35.940624Q324.65625 36.409374 325.6875 36.409374Q326.70312 36.409374 327.48438 35.971874Q328.28125 35.51875 328.65625 34.753124Q328.9375 34.14375 328.9375 32.9875L328.9375 32.346874ZM337.15625 35.971874L337.40625 37.534374Q336.67188 37.690624 336.07812 37.690624Q335.125 37.690624 334.59375 37.39375Q334.07812 37.08125 333.85938 36.596874Q333.64062 36.096874 333.64062 34.51875L333.64062 28.55L332.35938 28.55L332.35938 27.175L333.64062 27.175L333.64062 24.6125L335.39062 23.55L335.39062 27.175L337.15625 27.175L337.15625 28.55L335.39062 28.55L335.39062 34.6125Q335.39062 35.3625 335.48438 35.58125Q335.57812 35.784374 335.78125 35.925Q336.0 36.05 336.39062 36.05Q336.67188 36.05 337.15625 35.971874ZM346.09375 36.26875Q345.10938 37.096874 344.20312 37.440624Q343.29688 37.784374 342.26562 37.784374Q340.5625 37.784374 339.64062 36.95625Q338.71875 36.1125 338.71875 34.815624Q338.71875 34.05 339.0625 33.425Q339.42188 32.8 339.98438 32.425Q340.54688 32.034374 341.25 31.83125Q341.76562 31.70625 342.8125 31.565624Q344.9375 31.315624 345.9375 30.971874Q345.95312 30.6125 345.95312 30.503124Q345.95312 29.440624 345.45312 28.9875Q344.78125 28.39375 343.45312 28.39375Q342.20312 28.39375 341.60938 28.83125Q341.03125 29.26875 340.75 30.378124L339.03125 30.14375Q339.26562 29.034374 339.79688 28.3625Q340.32812 27.675 341.34375 27.315624Q342.35938 26.940624 343.70312 26.940624Q345.03125 26.940624 345.85938 27.253124Q346.6875 27.565624 347.07812 28.05Q347.46875 28.51875 347.625 29.2375Q347.71875 29.690624 347.71875 30.8625L347.71875 33.20625Q347.71875 35.659374 347.82812 36.315624Q347.9375 36.95625 348.28125 37.55L346.4375 37.55Q346.17188 37.003124 346.09375 36.26875ZM345.9375 32.346874Q344.98438 32.7375 343.0625 33.003124Q341.98438 33.159374 341.53125 33.3625Q341.09375 33.55 340.84375 33.925Q340.59375 34.3 340.59375 34.76875Q340.59375 35.471874 341.125 35.940624Q341.65625 36.409374 342.6875 36.409374Q343.70312 36.409374 344.48438 35.971874Q345.28125 35.51875 345.65625 34.753124Q345.9375 34.14375 345.9375 32.9875L345.9375 32.346874ZM356.54688 37.55L356.54688 23.2375L361.9375 23.2375Q363.375 23.2375 364.125 23.3625Q365.17188 23.55 365.89062 24.05Q366.60938 24.534374 367.03125 25.425Q367.46875 26.315624 367.46875 27.378124Q367.46875 29.20625 366.29688 30.471874Q365.14062 31.721874 362.10938 31.721874L358.4375 31.721874L358.4375 37.55L356.54688 37.55ZM358.4375 30.034374L362.14062 30.034374Q363.96875 30.034374 364.73438 29.3625Q365.51562 28.675 365.51562 27.425Q365.51562 26.534374 365.0625 25.89375Q364.60938 25.253124 363.875 25.05Q363.39062 24.925 362.09375 24.925L358.4375 24.925L358.4375 30.034374ZM368.67188 32.3625Q368.67188 29.4875 370.26562 28.096874Q371.60938 26.940624 373.53125 26.940624Q375.67188 26.940624 377.01562 28.346874Q378.375 29.753124 378.375 32.221874Q378.375 34.221874 377.78125 35.378124Q377.1875 36.51875 376.03125 37.159374Q374.89062 37.784374 373.53125 37.784374Q371.34375 37.784374 370.0 36.39375Q368.67188 34.9875 368.67188 32.3625ZM370.46875 32.3625Q370.46875 34.3625 371.32812 35.346874Q372.20312 36.33125 373.53125 36.33125Q374.84375 36.33125 375.70312 35.346874Q376.57812 34.346874 376.57812 32.3Q376.57812 30.378124 375.70312 29.39375Q374.82812 28.39375 373.53125 28.39375Q372.20312 28.39375 371.32812 29.39375Q370.46875 30.378124 370.46875 32.3625ZM380.32812 25.253124L380.32812 23.2375L382.09375 23.2375L382.09375 25.253124L380.32812 25.253124ZM380.32812 37.55L380.32812 27.175L382.09375 27.175L382.09375 37.55L380.32812 37.55ZM384.3125 37.55L384.3125 27.175L385.90625 27.175L385.90625 28.659374Q387.04688 26.940624 389.20312 26.940624Q390.14062 26.940624 390.92188 27.284374Q391.71875 27.6125 392.10938 28.159374Q392.5 28.70625 392.65625 29.45625Q392.75 29.95625 392.75 31.175L392.75 37.55L390.98438 37.55L390.98438 31.2375Q390.98438 30.159374 390.78125 29.628124Q390.57812 29.096874 390.04688 28.784374Q389.53125 28.471874 388.82812 28.471874Q387.70312 28.471874 386.89062 29.190624Q386.07812 29.89375 386.07812 31.878124L386.07812 37.55L384.3125 37.55ZM399.15625 35.971874L399.40625 37.534374Q398.67188 37.690624 398.07812 37.690624Q397.125 37.690624 396.59375 37.39375Q396.07812 37.08125 395.85938 36.596874Q395.64062 36.096874 395.64062 34.51875L395.64062 28.55L394.35938 28.55L394.35938 27.175L395.64062 27.175L395.64062 24.6125L397.39062 23.55L397.39062 27.175L399.15625 27.175L399.15625 28.55L397.39062 28.55L397.39062 34.6125Q397.39062 35.3625 397.48438 35.58125Q397.57812 35.784374 397.78125 35.925Q398.0 36.05 398.39062 36.05Q398.67188 36.05 399.15625 35.971874ZM400.60938 34.45625L402.35938 34.175Q402.5 35.221874 403.17188 35.784374Q403.84375 36.33125 405.04688 36.33125Q406.25 36.33125 406.82812 35.846874Q407.42188 35.346874 407.42188 34.690624Q407.42188 34.096874 406.90625 33.753124Q406.54688 33.51875 405.10938 33.159374Q403.17188 32.659374 402.42188 32.315624Q401.6875 31.95625 401.29688 31.33125Q400.90625 30.690624 400.90625 29.925Q400.90625 29.2375 401.21875 28.64375Q401.54688 28.05 402.09375 27.659374Q402.5 27.3625 403.20312 27.159374Q403.92188 26.940624 404.73438 26.940624Q405.95312 26.940624 406.875 27.3Q407.79688 27.64375 408.23438 28.253124Q408.67188 28.846874 408.84375 29.846874L407.125 30.08125Q407.0 29.284374 406.4375 28.846874Q405.875 28.39375 404.85938 28.39375Q403.64062 28.39375 403.125 28.8Q402.60938 29.190624 402.60938 29.721874Q402.60938 30.065624 402.82812 30.346874Q403.03125 30.628124 403.5 30.815624Q403.76562 30.909374 405.04688 31.253124Q406.92188 31.753124 407.65625 32.08125Q408.39062 32.39375 408.8125 33.003124Q409.23438 33.596874 409.23438 34.503124Q409.23438 35.378124 408.71875 36.159374Q408.20312 36.940624 407.23438 37.3625Q406.26562 37.784374 405.04688 37.784374Q403.03125 37.784374 401.96875 36.940624Q400.90625 36.096874 400.60938 34.45625Z" fill-rule="nonzero"/></svg>